<?xml version="1.0" encoding="UTF-8" standalone="no"?>
<!DOCTYPE svg PUBLIC "-//W3C//DTD SVG 1.1//EN" "http://www.w3.org/Graphics/SVG/1.1/DTD/svg11.dtd">
<!-- Generated by graphviz version 2.40.1 (20161225.0304)
 -->
<!-- Title: communication_protocol Pages: 1 -->
<svg width="658pt" height="384pt" viewBox="0.00 0.00 658.26 383.80" xmlns="http://www.w3.org/2000/svg" xmlns:xlink="http://www.w3.org/1999/xlink">
<g id="graph0" class="graph" transform="scale(1 1) rotate(0) translate(4 379.8)">
<title>communication_protocol</title>
<polygon fill="#ffffff" stroke="transparent" points="-4,4 -4,-379.8 654.2616,-379.8 654.2616,4 -4,4"/>
<!-- P1 -->
<g id="node1" class="node">
<title>P1</title>
<ellipse fill="none" stroke="#000000" cx="186.6308" cy="-337.5" rx="21.5" ry="21.5"/>
<text text-anchor="middle" x="186.6308" y="-333.3" font-family="Times,serif" font-size="14.00" fill="#000000">•</text>
<text text-anchor="middle" x="125.473" y="-363.2" font-family="Times,serif" font-size="14.00" fill="#000000">Ready to send</text>
</g>
<!-- T2 -->
<g id="node10" class="node">
<title>T2</title>
<polygon fill="none" stroke="#000000" points="234.0516,-270.8008 139.21,-270.8008 139.21,-246.1992 234.0516,-246.1992 234.0516,-270.8008"/>
<text text-anchor="middle" x="186.6308" y="-254.3" font-family="Times,serif" font-size="14.00" fill="#000000">Send message</text>
</g>
<!-- P1&#45;&gt;T2 -->
<g id="edge2" class="edge">
<title>P1-&gt;T2</title>
<path fill="none" stroke="#000000" d="M186.6308,-315.9129C186.6308,-305.0857 186.6308,-291.9804 186.6308,-281.0259"/>
<polygon fill="#000000" stroke="#000000" points="190.1309,-280.9524 186.6308,-270.9524 183.1309,-280.9525 190.1309,-280.9524"/>
</g>
<!-- P2 -->
<g id="node2" class="node">
<title>P2</title>
<ellipse fill="none" stroke="#000000" cx="186.6308" cy="-179.5" rx="21.5" ry="21.5"/>
<text text-anchor="middle" x="125.0901" y="-205.2" font-family="Times,serif" font-size="14.00" fill="#000000">Wait for ACK</text>
</g>
<!-- T3 -->
<g id="node11" class="node">
<title>T3</title>
<polygon fill="none" stroke="#000000" points="233.7663,-112.8008 139.4953,-112.8008 139.4953,-88.1992 233.7663,-88.1992 233.7663,-112.8008"/>
<text text-anchor="middle" x="186.6308" y="-96.3" font-family="Times,serif" font-size="14.00" fill="#000000">Receive ACK</text>
</g>
<!-- P2&#45;&gt;T3 -->
<g id="edge4" class="edge">
<title>P2-&gt;T3</title>
<path fill="none" stroke="#000000" d="M186.6308,-157.9129C186.6308,-147.0857 186.6308,-133.9804 186.6308,-123.0259"/>
<polygon fill="#000000" stroke="#000000" points="190.1309,-122.9524 186.6308,-112.9524 183.1309,-122.9525 190.1309,-122.9524"/>
</g>
<!-- P3 -->
<g id="node3" class="node">
<title>P3</title>
<ellipse fill="none" stroke="#000000" cx="186.6308" cy="-21.5" rx="21.5" ry="21.5"/>
<text text-anchor="middle" x="124.9011" y="-47.2" font-family="Times,serif" font-size="14.00" fill="#000000">ACK received</text>
</g>
<!-- T1 -->
<g id="node9" class="node">
<title>T1</title>
<polygon fill="none" stroke="#000000" points="69.3929,-191.8008 -.1313,-191.8008 -.1313,-167.1992 69.3929,-167.1992 69.3929,-191.8008"/>
<text text-anchor="middle" x="34.6308" y="-175.3" font-family="Times,serif" font-size="14.00" fill="#000000">Process 1</text>
</g>
<!-- P3&#45;&gt;T1 -->
<g id="edge6" class="edge">
<title>P3-&gt;T1</title>
<path fill="none" stroke="#000000" d="M167.7058,-31.8972C149.8683,-42.2901 123.0507,-59.4983 103.6308,-79 79.6723,-103.0595 58.6442,-136.4328 46.2829,-157.9976"/>
<polygon fill="#000000" stroke="#000000" points="43.0735,-156.565 41.2338,-166.9989 49.1786,-159.9896 43.0735,-156.565"/>
</g>
<!-- P4 -->
<g id="node4" class="node">
<title>P4</title>
<ellipse fill="none" stroke="#000000" cx="477.6308" cy="-337.5" rx="21.5" ry="21.5"/>
<text text-anchor="middle" x="477.6308" y="-333.3" font-family="Times,serif" font-size="14.00" fill="#000000">•</text>
<text text-anchor="middle" x="409.0978" y="-363.2" font-family="Times,serif" font-size="14.00" fill="#000000">Ready to receive</text>
</g>
<!-- T5 -->
<g id="node13" class="node">
<title>T5</title>
<polygon fill="none" stroke="#000000" points="533.64,-270.8008 421.6216,-270.8008 421.6216,-246.1992 533.64,-246.1992 533.64,-270.8008"/>
<text text-anchor="middle" x="477.6308" y="-254.3" font-family="Times,serif" font-size="14.00" fill="#000000">Receive message</text>
</g>
<!-- P4&#45;&gt;T5 -->
<g id="edge8" class="edge">
<title>P4-&gt;T5</title>
<path fill="none" stroke="#000000" d="M477.6308,-315.9129C477.6308,-305.0857 477.6308,-291.9804 477.6308,-281.0259"/>
<polygon fill="#000000" stroke="#000000" points="481.1309,-280.9524 477.6308,-270.9524 474.1309,-280.9525 481.1309,-280.9524"/>
</g>
<!-- P5 -->
<g id="node5" class="node">
<title>P5</title>
<ellipse fill="none" stroke="#000000" cx="477.6308" cy="-179.5" rx="21.5" ry="21.5"/>
<text text-anchor="middle" x="406.1872" y="-205.2" font-family="Times,serif" font-size="14.00" fill="#000000">Message received</text>
</g>
<!-- T6 -->
<g id="node14" class="node">
<title>T6</title>
<polygon fill="none" stroke="#000000" points="516.1778,-112.8008 439.0838,-112.8008 439.0838,-88.1992 516.1778,-88.1992 516.1778,-112.8008"/>
<text text-anchor="middle" x="477.6308" y="-96.3" font-family="Times,serif" font-size="14.00" fill="#000000">Send ACK</text>
</g>
<!-- P5&#45;&gt;T6 -->
<g id="edge10" class="edge">
<title>P5-&gt;T6</title>
<path fill="none" stroke="#000000" d="M477.6308,-157.9129C477.6308,-147.0857 477.6308,-133.9804 477.6308,-123.0259"/>
<polygon fill="#000000" stroke="#000000" points="481.1309,-122.9524 477.6308,-112.9524 474.1309,-122.9525 481.1309,-122.9524"/>
</g>
<!-- P6 -->
<g id="node6" class="node">
<title>P6</title>
<ellipse fill="none" stroke="#000000" cx="477.6308" cy="-21.5" rx="21.5" ry="21.5"/>
<text text-anchor="middle" x="428.331" y="-47.2" font-family="Times,serif" font-size="14.00" fill="#000000">ACK sent</text>
</g>
<!-- T4 -->
<g id="node12" class="node">
<title>T4</title>
<polygon fill="none" stroke="#000000" points="650.3929,-191.8008 580.8687,-191.8008 580.8687,-167.1992 650.3929,-167.1992 650.3929,-191.8008"/>
<text text-anchor="middle" x="615.6308" y="-175.3" font-family="Times,serif" font-size="14.00" fill="#000000">Process 2</text>
</g>
<!-- P6&#45;&gt;T4 -->
<g id="edge12" class="edge">
<title>P6-&gt;T4</title>
<path fill="none" stroke="#000000" d="M496.079,-32.9178C512.2457,-43.5215 535.7352,-60.434 552.6308,-79 574.8662,-103.4339 593.9745,-136.7123 605.1426,-158.1541"/>
<polygon fill="#000000" stroke="#000000" points="602.0407,-159.776 609.6978,-167.0986 608.2784,-156.5992 602.0407,-159.776"/>
</g>
<!-- P7 -->
<g id="node7" class="node">
<title>P7</title>
<ellipse fill="none" stroke="#000000" cx="327.6308" cy="-258.5" rx="21.5" ry="21.5"/>
<text text-anchor="middle" x="276.3934" y="-284.2" font-family="Times,serif" font-size="14.00" fill="#000000">Buffer full</text>
</g>
<!-- P7&#45;&gt;T5 -->
<g id="edge14" class="edge">
<title>P7-&gt;T5</title>
<path fill="none" stroke="#000000" d="M349.3105,-258.5C369.9871,-258.5 390.6637,-258.5 411.3403,-258.5"/>
<polygon fill="#000000" stroke="#000000" points="411.4907,-262.0001 421.4907,-258.5 411.4906,-255.0001 411.4907,-262.0001"/>
</g>
<!-- P8 -->
<g id="node8" class="node">
<title>P8</title>
<ellipse fill="none" stroke="#000000" cx="336.6308" cy="-100.5" rx="21.5" ry="21.5"/>
<text text-anchor="middle" x="285.3934" y="-126.2" font-family="Times,serif" font-size="14.00" fill="#000000">Buffer full</text>
</g>
<!-- P8&#45;&gt;T3 -->
<g id="edge16" class="edge">
<title>P8-&gt;T3</title>
<path fill="none" stroke="#000000" d="M314.9397,-100.5C291.2736,-100.5 267.6075,-100.5 243.9414,-100.5"/>
<polygon fill="#000000" stroke="#000000" points="243.7988,-97.0001 233.7988,-100.5 243.7987,-104.0001 243.7988,-97.0001"/>
</g>
<!-- T1&#45;&gt;P1 -->
<g id="edge1" class="edge">
<title>T1-&gt;P1</title>
<path fill="none" stroke="#000000" d="M41.2338,-192.0011C52.272,-212.1263 76.003,-252.2558 103.6308,-280 120.0163,-296.4545 141.6684,-311.2763 158.7492,-321.7492"/>
<polygon fill="#000000" stroke="#000000" points="157.3265,-324.9764 167.7058,-327.1028 160.918,-318.9679 157.3265,-324.9764"/>
</g>
<!-- T2&#45;&gt;P2 -->
<g id="edge3" class="edge">
<title>T2-&gt;P2</title>
<path fill="none" stroke="#000000" d="M186.6308,-246.1563C186.6308,-236.8926 186.6308,-223.7666 186.6308,-211.6092"/>
<polygon fill="#000000" stroke="#000000" points="190.1309,-211.2962 186.6308,-201.2962 183.1309,-211.2963 190.1309,-211.2962"/>
</g>
<!-- T2&#45;&gt;P7 -->
<g id="edge13" class="edge">
<title>T2-&gt;P7</title>
<path fill="none" stroke="#000000" d="M234.2734,-258.5C254.853,-258.5 275.4325,-258.5 296.0121,-258.5"/>
<polygon fill="#000000" stroke="#000000" points="296.1149,-262.0001 306.1148,-258.5 296.1148,-255.0001 296.1149,-262.0001"/>
</g>
<!-- T3&#45;&gt;P3 -->
<g id="edge5" class="edge">
<title>T3-&gt;P3</title>
<path fill="none" stroke="#000000" d="M186.6308,-88.1563C186.6308,-78.8926 186.6308,-65.7666 186.6308,-53.6092"/>
<polygon fill="#000000" stroke="#000000" points="190.1309,-53.2962 186.6308,-43.2962 183.1309,-53.2963 190.1309,-53.2962"/>
</g>
<!-- T4&#45;&gt;P4 -->
<g id="edge7" class="edge">
<title>T4-&gt;P4</title>
<path fill="none" stroke="#000000" d="M612.4768,-191.9184C606.7947,-212.2819 593.1843,-253.1843 569.6308,-280 552.3261,-299.7015 526.6344,-314.98 506.7955,-324.8195"/>
<polygon fill="#000000" stroke="#000000" points="505.1095,-321.7458 497.589,-329.2085 508.1219,-328.0645 505.1095,-321.7458"/>
</g>
<!-- T5&#45;&gt;P5 -->
<g id="edge9" class="edge">
<title>T5-&gt;P5</title>
<path fill="none" stroke="#000000" d="M477.6308,-246.1563C477.6308,-236.8926 477.6308,-223.7666 477.6308,-211.6092"/>
<polygon fill="#000000" stroke="#000000" points="481.1309,-211.2962 477.6308,-201.2962 474.1309,-211.2963 481.1309,-211.2962"/>
</g>
<!-- T6&#45;&gt;P6 -->
<g id="edge11" class="edge">
<title>T6-&gt;P6</title>
<path fill="none" stroke="#000000" d="M477.6308,-88.1563C477.6308,-78.8926 477.6308,-65.7666 477.6308,-53.6092"/>
<polygon fill="#000000" stroke="#000000" points="481.1309,-53.2962 477.6308,-43.2962 474.1309,-53.2963 481.1309,-53.2962"/>
</g>
<!-- T6&#45;&gt;P8 -->
<g id="edge15" class="edge">
<title>T6-&gt;P8</title>
<path fill="none" stroke="#000000" d="M438.9696,-100.5C415.4663,-100.5 391.9629,-100.5 368.4595,-100.5"/>
<polygon fill="#000000" stroke="#000000" points="368.3867,-97.0001 358.3867,-100.5 368.3866,-104.0001 368.3867,-97.0001"/>
</g>
</g>
</svg>