<?xml version="1.0" encoding="UTF-8" standalone="no"?>
<!DOCTYPE svg PUBLIC "-//W3C//DTD SVG 1.1//EN" "http://www.w3.org/Graphics/SVG/1.1/DTD/svg11.dtd">
<!-- Generated by graphviz version 2.40.1 (20161225.0304)
 -->
<!-- Title: petrinet Pages: 1 -->
<svg width="1102pt" height="1085pt" viewBox="0.00 0.00 1101.97 1084.96" xmlns="http://www.w3.org/2000/svg" xmlns:xlink="http://www.w3.org/1999/xlink">
<g id="graph0" class="graph" transform="scale(1 1) rotate(0) translate(4 1080.9607)">
<title>petrinet</title>
<polygon fill="#ffffff" stroke="transparent" points="-4,4 -4,-1080.9607 1097.9692,-1080.9607 1097.9692,4 -4,4"/>
<!-- CONDVAR_0_NOTIFY -->
<g id="node1" class="node">
<title>CONDVAR_0_NOTIFY</title>
<ellipse fill="none" stroke="#000000" cx="377.986" cy="-1039.4673" rx="18" ry="18"/>
<text text-anchor="middle" x="289.2251" y="-1061.6673" font-family="Times,serif" font-size="14.00" fill="#000000">CONDVAR_0_NOTIFY</text>
</g>
<!-- CONDVAR_0_LOST_SIGNAL -->
<g id="node17" class="node">
<title>CONDVAR_0_LOST_SIGNAL</title>
<polygon fill="none" stroke="#000000" points="349.5028,-982.7738 150.4692,-982.7738 150.4692,-946.7738 349.5028,-946.7738 349.5028,-982.7738"/>
<text text-anchor="middle" x="249.986" y="-960.5738" font-family="Times,serif" font-size="14.00" fill="#000000">CONDVAR_0_LOST_SIGNAL</text>
</g>
<!-- CONDVAR_0_NOTIFY&#45;&gt;CONDVAR_0_LOST_SIGNAL -->
<g id="edge1" class="edge">
<title>CONDVAR_0_NOTIFY-&gt;CONDVAR_0_LOST_SIGNAL</title>
<path fill="none" stroke="#000000" d="M362.2907,-1030.3084C344.3351,-1019.8305 314.2518,-1002.2757 289.7382,-987.9709"/>
<polygon fill="#000000" stroke="#000000" points="291.3927,-984.8841 280.9916,-982.8669 287.8646,-990.93 291.3927,-984.8841"/>
</g>
<!-- CONDVAR_0_NOTIFY_RECEIVED -->
<g id="node18" class="node">
<title>CONDVAR_0_NOTIFY_RECEIVED</title>
<polygon fill="none" stroke="#000000" points="366.7128,-684 133.2592,-684 133.2592,-648 366.7128,-648 366.7128,-684"/>
<text text-anchor="middle" x="249.986" y="-661.8" font-family="Times,serif" font-size="14.00" fill="#000000">CONDVAR_0_NOTIFY_RECEIVED</text>
</g>
<!-- CONDVAR_0_NOTIFY&#45;&gt;CONDVAR_0_NOTIFY_RECEIVED -->
<g id="edge2" class="edge">
<title>CONDVAR_0_NOTIFY-&gt;CONDVAR_0_NOTIFY_RECEIVED</title>
<path fill="none" stroke="#000000" d="M377.986,-1021.0688C377.986,-992.874 377.986,-937.2825 377.986,-890.0804 377.986,-890.0804 377.986,-890.0804 377.986,-815.3869 377.986,-760.5285 327.5958,-715.7005 290.0485,-689.9124"/>
<polygon fill="#000000" stroke="#000000" points="291.5609,-686.7144 281.2983,-684.0819 287.6794,-692.5396 291.5609,-686.7144"/>
</g>
<!-- CONDVAR_0_WAIT_ENABLED -->
<g id="node2" class="node">
<title>CONDVAR_0_WAIT_ENABLED</title>
<ellipse fill="none" stroke="#000000" cx="249.986" cy="-890.0804" rx="20.8887" ry="20.8887"/>
<text text-anchor="middle" x="249.986" y="-885.8804" font-family="Times,serif" font-size="14.00" fill="#000000">•</text>
<text text-anchor="middle" x="129.7651" y="-914.9738" font-family="Times,serif" font-size="14.00" fill="#000000">CONDVAR_0_WAIT_ENABLED</text>
</g>
<!-- CONDVAR_0_WAIT_ENABLED&#45;&gt;CONDVAR_0_LOST_SIGNAL -->
<g id="edge3" class="edge">
<title>CONDVAR_0_WAIT_ENABLED-&gt;CONDVAR_0_LOST_SIGNAL</title>
<path fill="none" stroke="#000000" d="M256.0434,-910.0968C256.74,-918.1943 256.9111,-927.6884 256.5569,-936.4722"/>
<polygon fill="#000000" stroke="#000000" points="253.0485,-936.4788 255.8642,-946.6926 260.0325,-936.9522 253.0485,-936.4788"/>
</g>
<!-- CONDVAR_0_WAIT_START -->
<g id="node19" class="node">
<title>CONDVAR_0_WAIT_START</title>
<polygon fill="none" stroke="#000000" points="600.0576,-833.3869 405.9144,-833.3869 405.9144,-797.3869 600.0576,-797.3869 600.0576,-833.3869"/>
<text text-anchor="middle" x="502.986" y="-811.1869" font-family="Times,serif" font-size="14.00" fill="#000000">CONDVAR_0_WAIT_START</text>
</g>
<!-- CONDVAR_0_WAIT_ENABLED&#45;&gt;CONDVAR_0_WAIT_START -->
<g id="edge4" class="edge">
<title>CONDVAR_0_WAIT_ENABLED-&gt;CONDVAR_0_WAIT_START</title>
<path fill="none" stroke="#000000" d="M269.8385,-884.2193C304.3443,-874.0321 376.9615,-852.5933 432.0422,-836.3317"/>
<polygon fill="#000000" stroke="#000000" points="433.1622,-839.6505 441.7619,-833.4622 431.1801,-832.9369 433.1622,-839.6505"/>
</g>
<!-- MUTEX_0 -->
<g id="node3" class="node">
<title>MUTEX_0</title>
<ellipse fill="none" stroke="#000000" cx="494.986" cy="-740.6935" rx="20.8887" ry="20.8887"/>
<text text-anchor="middle" x="494.986" y="-736.4935" font-family="Times,serif" font-size="14.00" fill="#000000">•</text>
<text text-anchor="middle" x="442.411" y="-765.5869" font-family="Times,serif" font-size="14.00" fill="#000000">MUTEX_0</text>
</g>
<!-- MUTEX_0&#45;&gt;CONDVAR_0_NOTIFY_RECEIVED -->
<g id="edge5" class="edge">
<title>MUTEX_0-&gt;CONDVAR_0_NOTIFY_RECEIVED</title>
<path fill="none" stroke="#000000" d="M474.9366,-734.581C441.208,-724.2981 371.6196,-703.0826 318.7194,-686.9548"/>
<polygon fill="#000000" stroke="#000000" points="319.6345,-683.5748 309.0484,-684.0064 317.5931,-690.2706 319.6345,-683.5748"/>
</g>
<!-- std_sync_Mutex_T_lock_0_CALL -->
<g id="node30" class="node">
<title>std_sync_Mutex_T_lock_0_CALL</title>
<polygon fill="none" stroke="#000000" points="822.2365,-684 609.7355,-684 609.7355,-648 822.2365,-648 822.2365,-684"/>
<text text-anchor="middle" x="715.986" y="-661.8" font-family="Times,serif" font-size="14.00" fill="#000000">std_sync_Mutex_T_lock_0_CALL</text>
</g>
<!-- MUTEX_0&#45;&gt;std_sync_Mutex_T_lock_0_CALL -->
<g id="edge6" class="edge">
<title>MUTEX_0-&gt;std_sync_Mutex_T_lock_0_CALL</title>
<path fill="none" stroke="#000000" d="M514.5983,-734.0649C545.2702,-723.6984 605.9184,-703.2006 652.6809,-687.3958"/>
<polygon fill="#000000" stroke="#000000" points="654.0801,-690.6175 662.433,-684.0998 651.8388,-683.986 654.0801,-690.6175"/>
</g>
<!-- PROGRAM_END -->
<g id="node4" class="node">
<title>PROGRAM_END</title>
<ellipse fill="none" stroke="#000000" cx="122.986" cy="-306" rx="18" ry="18"/>
<text text-anchor="middle" x="52.493" y="-328.2" font-family="Times,serif" font-size="14.00" fill="#000000">PROGRAM_END</text>
</g>
<!-- PROGRAM_PANIC -->
<g id="node5" class="node">
<title>PROGRAM_PANIC</title>
<ellipse fill="none" stroke="#000000" cx="307.986" cy="-18" rx="18" ry="18"/>
<text text-anchor="middle" x="230.8794" y="-40.2" font-family="Times,serif" font-size="14.00" fill="#000000">PROGRAM_PANIC</text>
</g>
<!-- PROGRAM_START -->
<g id="node6" class="node">
<title>PROGRAM_START</title>
<ellipse fill="none" stroke="#000000" cx="987.986" cy="-1039.4673" rx="20.8887" ry="20.8887"/>
<text text-anchor="middle" x="987.986" y="-1035.2673" font-family="Times,serif" font-size="14.00" fill="#000000">•</text>
<text text-anchor="middle" x="907.0169" y="-1064.3607" font-family="Times,serif" font-size="14.00" fill="#000000">PROGRAM_START</text>
</g>
<!-- std_sync_Mutex_T_new_0_CALL -->
<g id="node31" class="node">
<title>std_sync_Mutex_T_new_0_CALL</title>
<polygon fill="none" stroke="#000000" points="1093.9524,-982.7738 882.0196,-982.7738 882.0196,-946.7738 1093.9524,-946.7738 1093.9524,-982.7738"/>
<text text-anchor="middle" x="987.986" y="-960.5738" font-family="Times,serif" font-size="14.00" fill="#000000">std_sync_Mutex_T_new_0_CALL</text>
</g>
<!-- PROGRAM_START&#45;&gt;std_sync_Mutex_T_new_0_CALL -->
<g id="edge7" class="edge">
<title>PROGRAM_START-&gt;std_sync_Mutex_T_new_0_CALL</title>
<path fill="none" stroke="#000000" d="M987.986,-1018.661C987.986,-1010.7696 987.986,-1001.6436 987.986,-993.1706"/>
<polygon fill="#000000" stroke="#000000" points="991.4861,-992.9295 987.986,-982.9295 984.4861,-992.9295 991.4861,-992.9295"/>
</g>
<!-- main_BB1 -->
<g id="node7" class="node">
<title>main_BB1</title>
<ellipse fill="none" stroke="#000000" cx="764.986" cy="-890.0804" rx="18" ry="18"/>
<text text-anchor="middle" x="716.6515" y="-912.2804" font-family="Times,serif" font-size="14.00" fill="#000000">main_BB1</text>
</g>
<!-- std_sync_Condvar_new_0_CALL -->
<g id="node28" class="node">
<title>std_sync_Condvar_new_0_CALL</title>
<polygon fill="none" stroke="#000000" points="826.0618,-833.3869 617.9102,-833.3869 617.9102,-797.3869 826.0618,-797.3869 826.0618,-833.3869"/>
<text text-anchor="middle" x="721.986" y="-811.1869" font-family="Times,serif" font-size="14.00" fill="#000000">std_sync_Condvar_new_0_CALL</text>
</g>
<!-- main_BB1&#45;&gt;std_sync_Condvar_new_0_CALL -->
<g id="edge8" class="edge">
<title>main_BB1-&gt;std_sync_Condvar_new_0_CALL</title>
<path fill="none" stroke="#000000" d="M755.8668,-874.2398C750.5661,-865.0321 743.7422,-853.1787 737.6094,-842.5256"/>
<polygon fill="#000000" stroke="#000000" points="740.4759,-840.4897 732.4534,-833.5694 734.4094,-843.9822 740.4759,-840.4897"/>
</g>
<!-- main_BB10 -->
<g id="node8" class="node">
<title>main_BB10</title>
<ellipse fill="none" stroke="#000000" cx="371.986" cy="-450" rx="18" ry="18"/>
<text text-anchor="middle" x="320.1515" y="-472.2" font-family="Times,serif" font-size="14.00" fill="#000000">main_BB10</text>
</g>
<!-- main_SWITCH_INT_FROM_BB10_TO_BB8 -->
<g id="node24" class="node">
<title>main_SWITCH_INT_FROM_BB10_TO_BB8</title>
<polygon fill="none" stroke="#000000" points="343.6314,-252 64.3406,-252 64.3406,-216 343.6314,-216 343.6314,-252"/>
<text text-anchor="middle" x="203.986" y="-229.8" font-family="Times,serif" font-size="14.00" fill="#000000">main_SWITCH_INT_FROM_BB10_TO_BB8</text>
</g>
<!-- main_BB10&#45;&gt;main_SWITCH_INT_FROM_BB10_TO_BB8 -->
<g id="edge9" class="edge">
<title>main_BB10-&gt;main_SWITCH_INT_FROM_BB10_TO_BB8</title>
<path fill="none" stroke="#000000" d="M354.3009,-446.0388C318.5759,-437.6657 239.7716,-417.1903 222.986,-396 192.63,-357.6783 194.5759,-297.368 199.0618,-262.1545"/>
<polygon fill="#000000" stroke="#000000" points="202.5509,-262.4789 200.5026,-252.084 195.6215,-261.4875 202.5509,-262.4789"/>
</g>
<!-- main_SWITCH_INT_FROM_BB10_TO_BB9 -->
<g id="node25" class="node">
<title>main_SWITCH_INT_FROM_BB10_TO_BB9</title>
<polygon fill="none" stroke="#000000" points="511.6314,-396 232.3406,-396 232.3406,-360 511.6314,-360 511.6314,-396"/>
<text text-anchor="middle" x="371.986" y="-373.8" font-family="Times,serif" font-size="14.00" fill="#000000">main_SWITCH_INT_FROM_BB10_TO_BB9</text>
</g>
<!-- main_BB10&#45;&gt;main_SWITCH_INT_FROM_BB10_TO_BB9 -->
<g id="edge10" class="edge">
<title>main_BB10-&gt;main_SWITCH_INT_FROM_BB10_TO_BB9</title>
<path fill="none" stroke="#000000" d="M371.986,-431.8314C371.986,-424.131 371.986,-414.9743 371.986,-406.4166"/>
<polygon fill="#000000" stroke="#000000" points="375.4861,-406.4132 371.986,-396.4133 368.4861,-406.4133 375.4861,-406.4132"/>
</g>
<!-- main_BB2 -->
<g id="node9" class="node">
<title>main_BB2</title>
<ellipse fill="none" stroke="#000000" cx="718.986" cy="-740.6935" rx="18" ry="18"/>
<text text-anchor="middle" x="670.6515" y="-762.8935" font-family="Times,serif" font-size="14.00" fill="#000000">main_BB2</text>
</g>
<!-- main_BB2&#45;&gt;std_sync_Mutex_T_lock_0_CALL -->
<g id="edge11" class="edge">
<title>main_BB2-&gt;std_sync_Mutex_T_lock_0_CALL</title>
<path fill="none" stroke="#000000" d="M718.2598,-722.6123C717.9196,-714.1425 717.5063,-703.8522 717.1259,-694.3799"/>
<polygon fill="#000000" stroke="#000000" points="720.6145,-694.025 716.7159,-684.1736 713.6202,-694.306 720.6145,-694.025"/>
</g>
<!-- main_BB3 -->
<g id="node10" class="node">
<title>main_BB3</title>
<ellipse fill="none" stroke="#000000" cx="715.986" cy="-594" rx="18" ry="18"/>
<text text-anchor="middle" x="667.6515" y="-616.2" font-family="Times,serif" font-size="14.00" fill="#000000">main_BB3</text>
</g>
<!-- std_result_Result_unwrap_0_CALL -->
<g id="node27" class="node">
<title>std_result_Result_unwrap_0_CALL</title>
<polygon fill="none" stroke="#000000" points="825.7295,-540 606.2425,-540 606.2425,-504 825.7295,-504 825.7295,-540"/>
<text text-anchor="middle" x="715.986" y="-517.8" font-family="Times,serif" font-size="14.00" fill="#000000">std_result_Result_unwrap_0_CALL</text>
</g>
<!-- main_BB3&#45;&gt;std_result_Result_unwrap_0_CALL -->
<g id="edge12" class="edge">
<title>main_BB3-&gt;std_result_Result_unwrap_0_CALL</title>
<path fill="none" stroke="#000000" d="M715.986,-575.8314C715.986,-568.131 715.986,-558.9743 715.986,-550.4166"/>
<polygon fill="#000000" stroke="#000000" points="719.4861,-550.4132 715.986,-540.4133 712.4861,-550.4133 719.4861,-550.4132"/>
</g>
<!-- main_BB4 -->
<g id="node11" class="node">
<title>main_BB4</title>
<ellipse fill="none" stroke="#000000" cx="721.986" cy="-450" rx="18" ry="18"/>
<text text-anchor="middle" x="673.6515" y="-472.2" font-family="Times,serif" font-size="14.00" fill="#000000">main_BB4</text>
</g>
<!-- std_sync_Condvar_notify_one_0_CALL -->
<g id="node29" class="node">
<title>std_sync_Condvar_notify_one_0_CALL</title>
<polygon fill="none" stroke="#000000" points="851.8973,-396 606.0747,-396 606.0747,-360 851.8973,-360 851.8973,-396"/>
<text text-anchor="middle" x="728.986" y="-373.8" font-family="Times,serif" font-size="14.00" fill="#000000">std_sync_Condvar_notify_one_0_CALL</text>
</g>
<!-- main_BB4&#45;&gt;std_sync_Condvar_notify_one_0_CALL -->
<g id="edge13" class="edge">
<title>main_BB4-&gt;std_sync_Condvar_notify_one_0_CALL</title>
<path fill="none" stroke="#000000" d="M723.7524,-431.8314C724.501,-424.131 725.3913,-414.9743 726.2233,-406.4166"/>
<polygon fill="#000000" stroke="#000000" points="729.7116,-406.7051 727.1958,-396.4133 722.7445,-406.0276 729.7116,-406.7051"/>
</g>
<!-- main_BB5 -->
<g id="node12" class="node">
<title>main_BB5</title>
<ellipse fill="none" stroke="#000000" cx="656.986" cy="-306" rx="18" ry="18"/>
<text text-anchor="middle" x="608.6515" y="-328.2" font-family="Times,serif" font-size="14.00" fill="#000000">main_BB5</text>
</g>
<!-- main_BB5&#45;&gt;CONDVAR_0_WAIT_START -->
<g id="edge14" class="edge">
<title>main_BB5-&gt;CONDVAR_0_WAIT_START</title>
<path fill="none" stroke="#000000" d="M641.6716,-315.6121C627.7976,-325.1513 607.9061,-341.0605 596.986,-360 576.5657,-395.4164 577.986,-409.1184 577.986,-450 577.986,-666 577.986,-666 577.986,-666 577.986,-713.2793 547.6108,-760.8838 525.5218,-789.2513"/>
<polygon fill="#000000" stroke="#000000" points="522.7788,-787.0774 519.2599,-797.0708 528.2427,-791.453 522.7788,-787.0774"/>
</g>
<!-- main_BB6 -->
<g id="node13" class="node">
<title>main_BB6</title>
<ellipse fill="none" stroke="#000000" cx="433.986" cy="-594" rx="18" ry="18"/>
<text text-anchor="middle" x="385.6515" y="-616.2" font-family="Times,serif" font-size="14.00" fill="#000000">main_BB6</text>
</g>
<!-- main_DROP_6 -->
<g id="node20" class="node">
<title>main_DROP_6</title>
<polygon fill="none" stroke="#000000" points="326.3147,-540 223.6573,-540 223.6573,-504 326.3147,-504 326.3147,-540"/>
<text text-anchor="middle" x="274.986" y="-517.8" font-family="Times,serif" font-size="14.00" fill="#000000">main_DROP_6</text>
</g>
<!-- main_BB6&#45;&gt;main_DROP_6 -->
<g id="edge15" class="edge">
<title>main_BB6-&gt;main_DROP_6</title>
<path fill="none" stroke="#000000" d="M418.2197,-584.676C413.1048,-581.7745 407.3623,-578.645 401.986,-576 378.8487,-564.6169 352.7192,-553.2607 330.2027,-543.9207"/>
<polygon fill="#000000" stroke="#000000" points="331.3727,-540.6174 320.7932,-540.0471 328.7079,-547.0904 331.3727,-540.6174"/>
</g>
<!-- main_DROP_UNWIND_6 -->
<g id="node22" class="node">
<title>main_DROP_UNWIND_6</title>
<polygon fill="none" stroke="#000000" points="511.6162,-540 344.3558,-540 344.3558,-504 511.6162,-504 511.6162,-540"/>
<text text-anchor="middle" x="427.986" y="-517.8" font-family="Times,serif" font-size="14.00" fill="#000000">main_DROP_UNWIND_6</text>
</g>
<!-- main_BB6&#45;&gt;main_DROP_UNWIND_6 -->
<g id="edge16" class="edge">
<title>main_BB6-&gt;main_DROP_UNWIND_6</title>
<path fill="none" stroke="#000000" d="M432.4719,-575.8314C431.8302,-568.131 431.0672,-558.9743 430.3541,-550.4166"/>
<polygon fill="#000000" stroke="#000000" points="433.8389,-550.088 429.5204,-540.4133 426.8631,-550.6694 433.8389,-550.088"/>
</g>
<!-- main_BB7 -->
<g id="node14" class="node">
<title>main_BB7</title>
<ellipse fill="none" stroke="#000000" cx="198.986" cy="-450" rx="18" ry="18"/>
<text text-anchor="middle" x="150.6515" y="-472.2" font-family="Times,serif" font-size="14.00" fill="#000000">main_BB7</text>
</g>
<!-- main_RETURN -->
<g id="node23" class="node">
<title>main_RETURN</title>
<polygon fill="none" stroke="#000000" points="176.4734,-396 69.4986,-396 69.4986,-360 176.4734,-360 176.4734,-396"/>
<text text-anchor="middle" x="122.986" y="-373.8" font-family="Times,serif" font-size="14.00" fill="#000000">main_RETURN</text>
</g>
<!-- main_BB7&#45;&gt;main_RETURN -->
<g id="edge17" class="edge">
<title>main_BB7-&gt;main_RETURN</title>
<path fill="none" stroke="#000000" d="M185.7478,-437.4586C175.7457,-427.9829 161.6896,-414.6666 149.4144,-403.0374"/>
<polygon fill="#000000" stroke="#000000" points="151.7203,-400.4007 142.0537,-396.0641 146.9061,-405.4824 151.7203,-400.4007"/>
</g>
<!-- main_BB8 -->
<g id="node15" class="node">
<title>main_BB8</title>
<ellipse fill="none" stroke="#000000" cx="307.986" cy="-162" rx="18" ry="18"/>
<text text-anchor="middle" x="259.6515" y="-184.2" font-family="Times,serif" font-size="14.00" fill="#000000">main_BB8</text>
</g>
<!-- main_UNWIND_8 -->
<g id="node26" class="node">
<title>main_UNWIND_8</title>
<polygon fill="none" stroke="#000000" points="369.7838,-108 246.1882,-108 246.1882,-72 369.7838,-72 369.7838,-108"/>
<text text-anchor="middle" x="307.986" y="-85.8" font-family="Times,serif" font-size="14.00" fill="#000000">main_UNWIND_8</text>
</g>
<!-- main_BB8&#45;&gt;main_UNWIND_8 -->
<g id="edge18" class="edge">
<title>main_BB8-&gt;main_UNWIND_8</title>
<path fill="none" stroke="#000000" d="M307.986,-143.8314C307.986,-136.131 307.986,-126.9743 307.986,-118.4166"/>
<polygon fill="#000000" stroke="#000000" points="311.4861,-118.4132 307.986,-108.4133 304.4861,-118.4133 311.4861,-118.4132"/>
</g>
<!-- main_BB9 -->
<g id="node16" class="node">
<title>main_BB9</title>
<ellipse fill="none" stroke="#000000" cx="391.986" cy="-306" rx="18" ry="18"/>
<text text-anchor="middle" x="343.6515" y="-328.2" font-family="Times,serif" font-size="14.00" fill="#000000">main_BB9</text>
</g>
<!-- main_DROP_9 -->
<g id="node21" class="node">
<title>main_DROP_9</title>
<polygon fill="none" stroke="#000000" points="464.3147,-252 361.6573,-252 361.6573,-216 464.3147,-216 464.3147,-252"/>
<text text-anchor="middle" x="412.986" y="-229.8" font-family="Times,serif" font-size="14.00" fill="#000000">main_DROP_9</text>
</g>
<!-- main_BB9&#45;&gt;main_DROP_9 -->
<g id="edge19" class="edge">
<title>main_BB9-&gt;main_DROP_9</title>
<path fill="none" stroke="#000000" d="M397.0695,-288.5708C399.4155,-280.5274 402.2583,-270.7808 404.8885,-261.7629"/>
<polygon fill="#000000" stroke="#000000" points="408.2899,-262.6006 407.73,-252.0206 401.5699,-260.6406 408.2899,-262.6006"/>
</g>
<!-- CONDVAR_0_LOST_SIGNAL&#45;&gt;CONDVAR_0_WAIT_ENABLED -->
<g id="edge20" class="edge">
<title>CONDVAR_0_LOST_SIGNAL-&gt;CONDVAR_0_WAIT_ENABLED</title>
<path fill="none" stroke="#000000" d="M244.1078,-946.6926C243.3177,-938.7484 243.0647,-929.2025 243.3486,-920.2323"/>
<polygon fill="#000000" stroke="#000000" points="246.8515,-920.2805 243.9286,-910.0968 239.8629,-919.8805 246.8515,-920.2805"/>
</g>
<!-- CONDVAR_0_NOTIFY_RECEIVED&#45;&gt;CONDVAR_0_WAIT_ENABLED -->
<g id="edge21" class="edge">
<title>CONDVAR_0_NOTIFY_RECEIVED-&gt;CONDVAR_0_WAIT_ENABLED</title>
<path fill="none" stroke="#000000" d="M249.986,-684.0191C249.986,-722.153 249.986,-811.4088 249.986,-858.9651"/>
<polygon fill="#000000" stroke="#000000" points="246.4861,-858.9994 249.986,-868.9994 253.4861,-858.9995 246.4861,-858.9994"/>
</g>
<!-- CONDVAR_0_NOTIFY_RECEIVED&#45;&gt;main_BB6 -->
<g id="edge22" class="edge">
<title>CONDVAR_0_NOTIFY_RECEIVED-&gt;main_BB6</title>
<path fill="none" stroke="#000000" d="M296.417,-647.8314C331.6534,-634.0432 378.8212,-615.5862 407.7698,-604.2585"/>
<polygon fill="#000000" stroke="#000000" points="409.1631,-607.4718 417.2001,-600.5684 406.6123,-600.9531 409.1631,-607.4718"/>
</g>
<!-- CONDVAR_0_WAIT_START&#45;&gt;MUTEX_0 -->
<g id="edge23" class="edge">
<title>CONDVAR_0_WAIT_START-&gt;MUTEX_0</title>
<path fill="none" stroke="#000000" d="M501.0494,-797.3057C500.2185,-789.5476 499.224,-780.2622 498.2831,-771.477"/>
<polygon fill="#000000" stroke="#000000" points="501.7612,-771.0856 497.2161,-761.5153 494.8011,-771.8312 501.7612,-771.0856"/>
</g>
<!-- main_DROP_6&#45;&gt;MUTEX_0 -->
<g id="edge24" class="edge">
<title>main_DROP_6-&gt;MUTEX_0</title>
<path fill="none" stroke="#000000" d="M293.3323,-540.2374C333.5957,-580.2616 429.5629,-675.6589 472.9807,-718.8189"/>
<polygon fill="#000000" stroke="#000000" points="470.6499,-721.437 480.2096,-726.0048 475.5849,-716.4725 470.6499,-721.437"/>
</g>
<!-- main_DROP_6&#45;&gt;main_BB7 -->
<g id="edge25" class="edge">
<title>main_DROP_6-&gt;main_BB7</title>
<path fill="none" stroke="#000000" d="M255.808,-503.8314C244.8037,-493.4062 230.982,-480.312 219.7259,-469.6483"/>
<polygon fill="#000000" stroke="#000000" points="222.0759,-467.0534 212.4092,-462.7168 217.2617,-472.1351 222.0759,-467.0534"/>
</g>
<!-- main_DROP_9&#45;&gt;MUTEX_0 -->
<g id="edge26" class="edge">
<title>main_DROP_9-&gt;MUTEX_0</title>
<path fill="none" stroke="#000000" d="M445.3621,-252.0244C482.989,-275.634 539.986,-320.8326 539.986,-378 539.986,-594 539.986,-594 539.986,-594 539.986,-637.0802 522.0282,-684.2715 508.801,-713.1882"/>
<polygon fill="#000000" stroke="#000000" points="505.6221,-711.7234 504.5293,-722.2618 511.9554,-714.705 505.6221,-711.7234"/>
</g>
<!-- main_DROP_9&#45;&gt;main_BB8 -->
<g id="edge27" class="edge">
<title>main_DROP_9-&gt;main_BB8</title>
<path fill="none" stroke="#000000" d="M386.4901,-215.8314C369.5742,-204.2319 347.8398,-189.3283 331.5304,-178.1447"/>
<polygon fill="#000000" stroke="#000000" points="333.3195,-175.1277 323.0928,-172.359 329.3607,-180.9008 333.3195,-175.1277"/>
</g>
<!-- main_DROP_UNWIND_6&#45;&gt;MUTEX_0 -->
<g id="edge28" class="edge">
<title>main_DROP_UNWIND_6-&gt;MUTEX_0</title>
<path fill="none" stroke="#000000" d="M441.2683,-540.1581C448.0836,-550.2628 455.9824,-563.3282 460.986,-576 478.6436,-620.7187 487.6531,-676.0548 491.8339,-709.844"/>
<polygon fill="#000000" stroke="#000000" points="488.3859,-710.4922 493.0265,-720.0167 495.3382,-709.6771 488.3859,-710.4922"/>
</g>
<!-- main_DROP_UNWIND_6&#45;&gt;main_BB10 -->
<g id="edge29" class="edge">
<title>main_DROP_UNWIND_6-&gt;main_BB10</title>
<path fill="none" stroke="#000000" d="M413.8548,-503.8314C406.4633,-494.3279 397.3466,-482.6065 389.5094,-472.5301"/>
<polygon fill="#000000" stroke="#000000" points="392.1953,-470.2825 383.2932,-464.5378 386.6699,-474.5801 392.1953,-470.2825"/>
</g>
<!-- main_RETURN&#45;&gt;PROGRAM_END -->
<g id="edge30" class="edge">
<title>main_RETURN-&gt;PROGRAM_END</title>
<path fill="none" stroke="#000000" d="M122.986,-359.8314C122.986,-352.131 122.986,-342.9743 122.986,-334.4166"/>
<polygon fill="#000000" stroke="#000000" points="126.4861,-334.4132 122.986,-324.4133 119.4861,-334.4133 126.4861,-334.4132"/>
</g>
<!-- main_SWITCH_INT_FROM_BB10_TO_BB8&#45;&gt;main_BB8 -->
<g id="edge31" class="edge">
<title>main_SWITCH_INT_FROM_BB10_TO_BB8-&gt;main_BB8</title>
<path fill="none" stroke="#000000" d="M230.2296,-215.8314C246.9843,-204.2319 268.5118,-189.3283 284.6659,-178.1447"/>
<polygon fill="#000000" stroke="#000000" points="286.7934,-180.9288 293.0231,-172.359 282.8089,-175.1734 286.7934,-180.9288"/>
</g>
<!-- main_SWITCH_INT_FROM_BB10_TO_BB9&#45;&gt;main_BB9 -->
<g id="edge32" class="edge">
<title>main_SWITCH_INT_FROM_BB10_TO_BB9-&gt;main_BB9</title>
<path fill="none" stroke="#000000" d="M377.0328,-359.8314C379.2619,-351.8068 381.9302,-342.2008 384.3918,-333.3392"/>
<polygon fill="#000000" stroke="#000000" points="387.8436,-333.9897 387.1477,-323.4177 381.0989,-332.1161 387.8436,-333.9897"/>
</g>
<!-- main_UNWIND_8&#45;&gt;PROGRAM_PANIC -->
<g id="edge33" class="edge">
<title>main_UNWIND_8-&gt;PROGRAM_PANIC</title>
<path fill="none" stroke="#000000" d="M307.986,-71.8314C307.986,-64.131 307.986,-54.9743 307.986,-46.4166"/>
<polygon fill="#000000" stroke="#000000" points="311.4861,-46.4132 307.986,-36.4133 304.4861,-46.4133 311.4861,-46.4132"/>
</g>
<!-- std_result_Result_unwrap_0_CALL&#45;&gt;main_BB4 -->
<g id="edge34" class="edge">
<title>std_result_Result_unwrap_0_CALL-&gt;main_BB4</title>
<path fill="none" stroke="#000000" d="M717.5001,-503.8314C718.1418,-496.131 718.9048,-486.9743 719.6179,-478.4166"/>
<polygon fill="#000000" stroke="#000000" points="723.1089,-478.6694 720.4516,-468.4133 716.1331,-478.088 723.1089,-478.6694"/>
</g>
<!-- std_sync_Condvar_new_0_CALL&#45;&gt;main_BB2 -->
<g id="edge35" class="edge">
<title>std_sync_Condvar_new_0_CALL-&gt;main_BB2</title>
<path fill="none" stroke="#000000" d="M721.2598,-797.3057C720.9196,-788.8359 720.5063,-778.5457 720.1259,-769.0734"/>
<polygon fill="#000000" stroke="#000000" points="723.6145,-768.7185 719.7159,-758.867 716.6202,-768.9995 723.6145,-768.7185"/>
</g>
<!-- std_sync_Condvar_notify_one_0_CALL&#45;&gt;CONDVAR_0_NOTIFY -->
<g id="edge36" class="edge">
<title>std_sync_Condvar_notify_one_0_CALL-&gt;CONDVAR_0_NOTIFY</title>
<path fill="none" stroke="#000000" d="M760.8522,-396.1526C797.8866,-419.8929 853.986,-465.2247 853.986,-522 853.986,-890.0804 853.986,-890.0804 853.986,-890.0804 853.986,-984.5123 508.6373,-1026.4581 406.2594,-1036.8181"/>
<polygon fill="#000000" stroke="#000000" points="405.6717,-1033.359 396.0645,-1037.8258 406.3603,-1040.3251 405.6717,-1033.359"/>
</g>
<!-- std_sync_Condvar_notify_one_0_CALL&#45;&gt;main_BB5 -->
<g id="edge37" class="edge">
<title>std_sync_Condvar_notify_one_0_CALL-&gt;main_BB5</title>
<path fill="none" stroke="#000000" d="M710.8174,-359.8314C700.6265,-349.6405 687.8853,-336.8993 677.357,-326.371"/>
<polygon fill="#000000" stroke="#000000" points="679.696,-323.7602 670.15,-319.164 674.7462,-328.71 679.696,-323.7602"/>
</g>
<!-- std_sync_Mutex_T_lock_0_CALL&#45;&gt;main_BB3 -->
<g id="edge38" class="edge">
<title>std_sync_Mutex_T_lock_0_CALL-&gt;main_BB3</title>
<path fill="none" stroke="#000000" d="M715.986,-647.8314C715.986,-640.131 715.986,-630.9743 715.986,-622.4166"/>
<polygon fill="#000000" stroke="#000000" points="719.4861,-622.4132 715.986,-612.4133 712.4861,-622.4133 719.4861,-622.4132"/>
</g>
<!-- std_sync_Mutex_T_new_0_CALL&#45;&gt;main_BB1 -->
<g id="edge39" class="edge">
<title>std_sync_Mutex_T_new_0_CALL-&gt;main_BB1</title>
<path fill="none" stroke="#000000" d="M934.0039,-946.6926C888.9529,-931.6029 826.6504,-910.7348 791.6411,-899.0084"/>
<polygon fill="#000000" stroke="#000000" points="792.708,-895.6747 782.1142,-895.8174 790.4847,-902.3123 792.708,-895.6747"/>
</g>
</g>
</svg>