<?xml version="1.0" encoding="UTF-8" standalone="no"?>
<!DOCTYPE svg PUBLIC "-//W3C//DTD SVG 1.1//EN" "http://www.w3.org/Graphics/SVG/1.1/DTD/svg11.dtd">
<!-- Generated by graphviz version 2.40.1 (20161225.0304)
 -->
<!-- Title: function Pages: 1 -->
<svg width="577pt" height="208pt" viewBox="0.00 0.00 576.93 207.60" xmlns="http://www.w3.org/2000/svg" xmlns:xlink="http://www.w3.org/1999/xlink">
<g id="graph0" class="graph" transform="scale(1 1) rotate(0) translate(4 203.6)">
<title>function</title>
<polygon fill="#ffffff" stroke="transparent" points="-4,4 -4,-203.6 572.9342,-203.6 572.9342,4 -4,4"/>
<!-- FUNCTION_START -->
<g id="node1" class="node">
<title>FUNCTION_START</title>
<ellipse fill="none" stroke="#000000" cx="287.0246" cy="-161.3" rx="21.5" ry="21.5"/>
<text text-anchor="middle" x="287.0246" y="-157.1" font-family="Times,serif" font-size="14.00" fill="#000000">•</text>
<text text-anchor="middle" x="204.4797" y="-187" font-family="Times,serif" font-size="14.00" fill="#000000">FUNCTION_START</text>
</g>
<!-- FUNCTION_NAME_CALL -->
<g id="node4" class="node">
<title>FUNCTION_NAME_CALL</title>
<polygon fill="none" stroke="#000000" points="217.0429,-103.7008 39.0063,-103.7008 39.0063,-79.0992 217.0429,-79.0992 217.0429,-103.7008"/>
<text text-anchor="middle" x="128.0246" y="-87.2" font-family="Times,serif" font-size="14.00" fill="#000000">FUNCTION_NAME_CALL</text>
</g>
<!-- FUNCTION_START&#45;&gt;FUNCTION_NAME_CALL -->
<g id="edge1" class="edge">
<title>FUNCTION_START-&gt;FUNCTION_NAME_CALL</title>
<path fill="none" stroke="#000000" d="M267.2086,-152.5884C241.8597,-141.4445 197.4328,-121.9134 165.5862,-107.9129"/>
<polygon fill="#000000" stroke="#000000" points="166.7047,-104.5814 156.1417,-103.7609 163.8875,-110.9895 166.7047,-104.5814"/>
</g>
<!-- FUNCTION_NAME_CALL_UNWIND -->
<g id="node5" class="node">
<title>FUNCTION_NAME_CALL_UNWIND</title>
<polygon fill="none" stroke="#000000" points="568.8439,-103.7008 325.2053,-103.7008 325.2053,-79.0992 568.8439,-79.0992 568.8439,-103.7008"/>
<text text-anchor="middle" x="447.0246" y="-87.2" font-family="Times,serif" font-size="14.00" fill="#000000">FUNCTION_NAME_CALL_UNWIND</text>
</g>
<!-- FUNCTION_START&#45;&gt;FUNCTION_NAME_CALL_UNWIND -->
<g id="edge3" class="edge">
<title>FUNCTION_START-&gt;FUNCTION_NAME_CALL_UNWIND</title>
<path fill="none" stroke="#000000" d="M306.9652,-152.5884C332.4735,-141.4445 377.1798,-121.9134 409.2268,-107.9129"/>
<polygon fill="#000000" stroke="#000000" points="410.9682,-110.9716 418.7307,-103.7609 408.1658,-104.5571 410.9682,-110.9716"/>
</g>
<!-- FUNCTION_END -->
<g id="node2" class="node">
<title>FUNCTION_END</title>
<ellipse fill="none" stroke="#000000" cx="128.0246" cy="-21.5" rx="21.5" ry="21.5"/>
<text text-anchor="middle" x="53.2623" y="-47.2" font-family="Times,serif" font-size="14.00" fill="#000000">FUNCTION_END</text>
</g>
<!-- FUNCTION_CLEANUP -->
<g id="node3" class="node">
<title>FUNCTION_CLEANUP</title>
<ellipse fill="none" stroke="#000000" cx="447.0246" cy="-21.5" rx="21.5" ry="21.5"/>
<text text-anchor="middle" x="354.3731" y="-47.2" font-family="Times,serif" font-size="14.00" fill="#000000">FUNCTION_CLEANUP</text>
</g>
<!-- FUNCTION_NAME_CALL&#45;&gt;FUNCTION_END -->
<g id="edge2" class="edge">
<title>FUNCTION_NAME_CALL-&gt;FUNCTION_END</title>
<path fill="none" stroke="#000000" d="M128.0246,-78.9033C128.0246,-71.7134 128.0246,-62.325 128.0246,-53.2299"/>
<polygon fill="#000000" stroke="#000000" points="131.5247,-53.2187 128.0246,-43.2187 124.5247,-53.2187 131.5247,-53.2187"/>
</g>
<!-- FUNCTION_NAME_CALL_UNWIND&#45;&gt;FUNCTION_CLEANUP -->
<g id="edge4" class="edge">
<title>FUNCTION_NAME_CALL_UNWIND-&gt;FUNCTION_CLEANUP</title>
<path fill="none" stroke="#000000" d="M447.0246,-78.9033C447.0246,-71.7134 447.0246,-62.325 447.0246,-53.2299"/>
<polygon fill="#000000" stroke="#000000" points="450.5247,-53.2187 447.0246,-43.2187 443.5247,-53.2187 450.5247,-53.2187"/>
</g>
</g>
</svg>