<?xml version="1.0" encoding="UTF-8" standalone="no"?>
<!DOCTYPE svg PUBLIC "-//W3C//DTD SVG 1.1//EN" "http://www.w3.org/Graphics/SVG/1.1/DTD/svg11.dtd">
<!-- Generated by graphviz version 2.40.1 (20161225.0304)
 -->
<!-- Title: mir Pages: 1 -->
<svg width="350pt" height="365pt" viewBox="0.00 0.00 350.00 364.80" xmlns="http://www.w3.org/2000/svg" xmlns:xlink="http://www.w3.org/1999/xlink">
<g id="graph0" class="graph" transform="scale(1 1) rotate(0) translate(4 360.8)">
<title>mir</title>
<polygon fill="#ffffff" stroke="transparent" points="-4,4 -4,-360.8 346,-360.8 346,4 -4,4"/>
<!-- bb0 -->
<g id="node1" class="node">
<title>bb0</title>
<polygon fill="none" stroke="#000000" points="116.5,-330.8 116.5,-352.8 227.5,-352.8 227.5,-330.8 116.5,-330.8"/>
<text text-anchor="start" x="161.5" y="-337.2" font-family="Times,serif" font-size="14.00" fill="#000000">bb0</text>
<polygon fill="#f08080" stroke="transparent" points="116.5,-308.8 116.5,-330.8 227.5,-330.8 227.5,-308.8 116.5,-308.8"/>
<polygon fill="none" stroke="#000000" points="116.5,-308.8 116.5,-330.8 227.5,-330.8 227.5,-308.8 116.5,-308.8"/>
<text text-anchor="start" x="119.2627" y="-315.2" font-family="Times,serif" font-size="14.00" fill="#000000">CALL: _3 = args()</text>
</g>
<!-- bb1 -->
<g id="node2" class="node">
<title>bb1</title>
<polygon fill="none" stroke="#000000" points="11.5,-241.8 11.5,-263.8 331.5,-263.8 331.5,-241.8 11.5,-241.8"/>
<text text-anchor="start" x="161" y="-248.2" font-family="Times,serif" font-size="14.00" fill="#000000">bb1</text>
<polygon fill="#add8e6" stroke="transparent" points="11.5,-219.8 11.5,-241.8 331.5,-241.8 331.5,-219.8 11.5,-219.8"/>
<polygon fill="none" stroke="#000000" points="11.5,-219.8 11.5,-241.8 331.5,-241.8 331.5,-219.8 11.5,-219.8"/>
<text text-anchor="start" x="144.6074" y="-226.2" font-family="Times,serif" font-size="14.00" fill="#000000">_2 = &amp;_3</text>
<polygon fill="#f08080" stroke="transparent" points="11.5,-197.8 11.5,-219.8 331.5,-219.8 331.5,-197.8 11.5,-197.8"/>
<polygon fill="none" stroke="#000000" points="11.5,-197.8 11.5,-219.8 331.5,-219.8 331.5,-197.8 11.5,-197.8"/>
<text text-anchor="start" x="14.2632" y="-204.2" font-family="Times,serif" font-size="14.00" fill="#000000">CALL: _1 = &lt;Args as ExactSizeIterator&gt;::len(move _2)</text>
</g>
<!-- bb0&#45;&gt;bb1 -->
<g id="edge1" class="edge">
<title>bb0-&gt;bb1</title>
<path fill="none" stroke="#000000" d="M171.5,-304.7872C171.5,-296.6302 171.5,-287.357 171.5,-278.2004"/>
<polygon fill="#000000" stroke="#000000" points="175.0001,-277.9774 171.5,-267.9775 168.0001,-277.9775 175.0001,-277.9774"/>
</g>
<!-- bb2 -->
<g id="node3" class="node">
<title>bb2</title>
<polygon fill="none" stroke="#000000" points="8.5,-115 8.5,-137 111.5,-137 111.5,-115 8.5,-115"/>
<text text-anchor="start" x="49.5" y="-121.4" font-family="Times,serif" font-size="14.00" fill="#000000">bb2</text>
<polygon fill="#f08080" stroke="transparent" points="8.5,-93 8.5,-115 111.5,-115 111.5,-93 8.5,-93"/>
<polygon fill="none" stroke="#000000" points="8.5,-93 8.5,-115 111.5,-115 111.5,-93 8.5,-93"/>
<text text-anchor="start" x="11.3976" y="-99.4" font-family="Times,serif" font-size="14.00" fill="#000000">DROP:  drop(_3)</text>
</g>
<!-- bb1&#45;&gt;bb2 -->
<g id="edge2" class="edge">
<title>bb1-&gt;bb2</title>
<path fill="none" stroke="#000000" d="M114.9845,-193.5292C108.2535,-187.9774 101.7632,-182.0168 96.0736,-175.8 89.0254,-168.0988 82.6355,-158.8331 77.2406,-149.8828"/>
<polygon fill="#000000" stroke="#000000" points="80.2116,-148.0283 72.1897,-141.1073 74.1447,-151.5202 80.2116,-148.0283"/>
<text text-anchor="middle" x="113.2132" y="-163.2" font-family="Times,serif" font-size="14.00" fill="#000000">return</text>
</g>
<!-- bb4 -->
<g id="node5" class="node">
<title>bb4</title>
<polygon fill="none" stroke="#000000" points="235.5,-115 235.5,-137 334.5,-137 334.5,-115 235.5,-115"/>
<text text-anchor="start" x="274.5" y="-121.4" font-family="Times,serif" font-size="14.00" fill="#000000">bb3</text>
<polygon fill="#f08080" stroke="transparent" points="235.5,-93 235.5,-115 334.5,-115 334.5,-93 235.5,-93"/>
<polygon fill="none" stroke="#000000" points="235.5,-93 235.5,-115 334.5,-115 334.5,-93 235.5,-93"/>
<text text-anchor="start" x="238.1476" y="-99.4" font-family="Times,serif" font-size="14.00" fill="#000000">DROP: drop(_3)</text>
</g>
<!-- bb1&#45;&gt;bb4 -->
<g id="edge4" class="edge">
<title>bb1-&gt;bb4</title>
<path fill="none" stroke="#000000" d="M207.8759,-193.5227C221.9208,-179.1298 237.8741,-162.7812 251.5741,-148.7418"/>
<polygon fill="#000000" stroke="#000000" points="254.4479,-150.8082 258.9269,-141.2067 249.4379,-145.9194 254.4479,-150.8082"/>
<text text-anchor="middle" x="261.4986" y="-163.2" font-family="Times,serif" font-size="14.00" fill="#000000">unwind</text>
</g>
<!-- bb3 -->
<g id="node4" class="node">
<title>bb3</title>
<polygon fill="none" stroke="#000000" points="18.5,-26 18.5,-48 101.5,-48 101.5,-26 18.5,-26"/>
<text text-anchor="start" x="21.3222" y="-32.4" font-family="Times,serif" font-size="14.00" fill="#000000">bb4 (cleanup)</text>
<polygon fill="#f08080" stroke="transparent" points="18.5,-4 18.5,-26 101.5,-26 101.5,-4 18.5,-4"/>
<polygon fill="none" stroke="#000000" points="18.5,-4 18.5,-26 101.5,-26 101.5,-4 18.5,-4"/>
<text text-anchor="start" x="32.0042" y="-10.4" font-family="Times,serif" font-size="14.00" fill="#000000">RETURN</text>
</g>
<!-- bb2&#45;&gt;bb3 -->
<g id="edge3" class="edge">
<title>bb2-&gt;bb3</title>
<path fill="none" stroke="#000000" d="M59.5,-88.7784C59.5,-80.4495 59.5,-71.0865 59.5,-62.1839"/>
<polygon fill="#000000" stroke="#000000" points="63.0001,-62.0341 59.5,-52.0341 56.0001,-62.0342 63.0001,-62.0341"/>
</g>
<!-- bb5 -->
<g id="node6" class="node">
<title>bb5</title>
<polygon fill="none" stroke="#000000" points="243.5,-26 243.5,-48 326.5,-48 326.5,-26 243.5,-26"/>
<text text-anchor="start" x="246.3222" y="-32.4" font-family="Times,serif" font-size="14.00" fill="#000000">bb5 (cleanup)</text>
<polygon fill="#f08080" stroke="transparent" points="243.5,-4 243.5,-26 326.5,-26 326.5,-4 243.5,-4"/>
<polygon fill="none" stroke="#000000" points="243.5,-4 243.5,-26 326.5,-26 326.5,-4 243.5,-4"/>
<text text-anchor="start" x="256.6122" y="-10.4" font-family="Times,serif" font-size="14.00" fill="#000000">RESUME</text>
</g>
<!-- bb4&#45;&gt;bb5 -->
<g id="edge5" class="edge">
<title>bb4-&gt;bb5</title>
<path fill="none" stroke="#000000" d="M284.5,-88.7784C284.5,-80.4495 284.5,-71.0865 284.5,-62.1839"/>
<polygon fill="#000000" stroke="#000000" points="288.0001,-62.0341 284.5,-52.0341 281.0001,-62.0342 288.0001,-62.0341"/>
</g>
</g>
</svg>