<?xml version="1.0" encoding="UTF-8" standalone="no"?>
<!DOCTYPE svg PUBLIC "-//W3C//DTD SVG 1.1//EN" "http://www.w3.org/Graphics/SVG/1.1/DTD/svg11.dtd">
<!-- Generated by graphviz version 2.40.1 (20161225.0304)
 -->
<!-- Title: petrinet Pages: 1 -->
<svg width="328pt" height="786pt" viewBox="0.00 0.00 328.31 786.19" xmlns="http://www.w3.org/2000/svg" xmlns:xlink="http://www.w3.org/1999/xlink">
<g id="graph0" class="graph" transform="scale(1 1) rotate(0) translate(4 782.1869)">
<title>petrinet</title>
<polygon fill="#ffffff" stroke="transparent" points="-4,4 -4,-782.1869 324.3058,-782.1869 324.3058,4 -4,4"/>
<!-- PROGRAM_END -->
<g id="node1" class="node">
<title>PROGRAM_END</title>
<ellipse fill="none" stroke="#000000" cx="163.0926" cy="-18" rx="18" ry="18"/>
<text text-anchor="middle" x="92.5996" y="-40.2" font-family="Times,serif" font-size="14.00" fill="#000000">PROGRAM_END</text>
</g>
<!-- PROGRAM_PANIC -->
<g id="node2" class="node">
<title>PROGRAM_PANIC</title>
<ellipse fill="none" stroke="#000000" cx="220.0926" cy="-740.6935" rx="18" ry="18"/>
<text text-anchor="middle" x="261.1992" y="-762.8935" font-family="Times,serif" font-size="14.00" fill="#000000">PROGRAM_PANIC</text>
</g>
<!-- PROGRAM_START -->
<g id="node3" class="node">
<title>PROGRAM_START</title>
<ellipse fill="none" stroke="#000000" cx="163.0926" cy="-740.6935" rx="20.8887" ry="20.8887"/>
<text text-anchor="middle" x="163.0926" y="-736.4935" font-family="Times,serif" font-size="14.00" fill="#000000">•</text>
<text text-anchor="middle" x="82.1235" y="-765.5869" font-family="Times,serif" font-size="14.00" fill="#000000">PROGRAM_START</text>
</g>
<!-- std_thread_spawn_0_CALL -->
<g id="node13" class="node">
<title>std_thread_spawn_0_CALL</title>
<polygon fill="none" stroke="#000000" points="250.2228,-684 75.9624,-684 75.9624,-648 250.2228,-648 250.2228,-684"/>
<text text-anchor="middle" x="163.0926" y="-661.8" font-family="Times,serif" font-size="14.00" fill="#000000">std_thread_spawn_0_CALL</text>
</g>
<!-- PROGRAM_START&#45;&gt;std_thread_spawn_0_CALL -->
<g id="edge1" class="edge">
<title>PROGRAM_START-&gt;std_thread_spawn_0_CALL</title>
<path fill="none" stroke="#000000" d="M163.0926,-719.8872C163.0926,-711.9958 163.0926,-702.8698 163.0926,-694.3968"/>
<polygon fill="#000000" stroke="#000000" points="166.5927,-694.1557 163.0926,-684.1557 159.5927,-694.1557 166.5927,-694.1557"/>
</g>
<!-- THREAD_0_END -->
<g id="node4" class="node">
<title>THREAD_0_END</title>
<ellipse fill="none" stroke="#000000" cx="140.0926" cy="-450" rx="18" ry="18"/>
<text text-anchor="middle" x="68.8289" y="-472.2" font-family="Times,serif" font-size="14.00" fill="#000000">THREAD_0_END</text>
</g>
<!-- std_thread_JoinHandle_T_join_0_CALL -->
<g id="node12" class="node">
<title>std_thread_JoinHandle_T_join_0_CALL</title>
<polygon fill="none" stroke="#000000" points="286.552,-396 39.6332,-396 39.6332,-360 286.552,-360 286.552,-396"/>
<text text-anchor="middle" x="163.0926" y="-373.8" font-family="Times,serif" font-size="14.00" fill="#000000">std_thread_JoinHandle_T_join_0_CALL</text>
</g>
<!-- THREAD_0_END&#45;&gt;std_thread_JoinHandle_T_join_0_CALL -->
<g id="edge2" class="edge">
<title>THREAD_0_END-&gt;std_thread_JoinHandle_T_join_0_CALL</title>
<path fill="none" stroke="#000000" d="M145.6603,-432.5708C148.2297,-424.5274 151.3432,-414.7808 154.2239,-405.7629"/>
<polygon fill="#000000" stroke="#000000" points="157.627,-406.6114 157.336,-396.0206 150.959,-404.4813 157.627,-406.6114"/>
</g>
<!-- THREAD_0_START -->
<g id="node5" class="node">
<title>THREAD_0_START</title>
<ellipse fill="none" stroke="#000000" cx="140.0926" cy="-594" rx="18" ry="18"/>
<text text-anchor="middle" x="61.0463" y="-616.2" font-family="Times,serif" font-size="14.00" fill="#000000">THREAD_0_START</text>
</g>
<!-- main__closure_0__RETURN -->
<g id="node11" class="node">
<title>main__closure_0__RETURN</title>
<polygon fill="none" stroke="#000000" points="191.5055,-540 8.6797,-540 8.6797,-504 191.5055,-504 191.5055,-540"/>
<text text-anchor="middle" x="100.0926" y="-517.8" font-family="Times,serif" font-size="14.00" fill="#000000">main__closure_0__RETURN</text>
</g>
<!-- THREAD_0_START&#45;&gt;main__closure_0__RETURN -->
<g id="edge3" class="edge">
<title>THREAD_0_START-&gt;main__closure_0__RETURN</title>
<path fill="none" stroke="#000000" d="M131.2153,-578.0209C126.506,-569.5441 120.5902,-558.8957 115.1844,-549.1652"/>
<polygon fill="#000000" stroke="#000000" points="118.1298,-547.2599 110.2137,-540.2181 112.0107,-550.6594 118.1298,-547.2599"/>
</g>
<!-- main_BB1 -->
<g id="node6" class="node">
<title>main_BB1</title>
<ellipse fill="none" stroke="#000000" cx="227.0926" cy="-522" rx="18" ry="18"/>
<text text-anchor="middle" x="178.7581" y="-544.2" font-family="Times,serif" font-size="14.00" fill="#000000">main_BB1</text>
</g>
<!-- main_BB1&#45;&gt;std_thread_JoinHandle_T_join_0_CALL -->
<g id="edge4" class="edge">
<title>main_BB1-&gt;std_thread_JoinHandle_T_join_0_CALL</title>
<path fill="none" stroke="#000000" d="M219.751,-505.4814C208.8954,-481.0564 188.4336,-435.0172 175.2987,-405.4637"/>
<polygon fill="#000000" stroke="#000000" points="178.4094,-403.8449 171.1496,-396.1283 172.0127,-406.6879 178.4094,-403.8449"/>
</g>
<!-- main_BB2 -->
<g id="node7" class="node">
<title>main_BB2</title>
<ellipse fill="none" stroke="#000000" cx="163.0926" cy="-306" rx="18" ry="18"/>
<text text-anchor="middle" x="114.7581" y="-328.2" font-family="Times,serif" font-size="14.00" fill="#000000">main_BB2</text>
</g>
<!-- main_DROP_2 -->
<g id="node9" class="node">
<title>main_DROP_2</title>
<polygon fill="none" stroke="#000000" points="214.4213,-252 111.7639,-252 111.7639,-216 214.4213,-216 214.4213,-252"/>
<text text-anchor="middle" x="163.0926" y="-229.8" font-family="Times,serif" font-size="14.00" fill="#000000">main_DROP_2</text>
</g>
<!-- main_BB2&#45;&gt;main_DROP_2 -->
<g id="edge5" class="edge">
<title>main_BB2-&gt;main_DROP_2</title>
<path fill="none" stroke="#000000" d="M163.0926,-287.8314C163.0926,-280.131 163.0926,-270.9743 163.0926,-262.4166"/>
<polygon fill="#000000" stroke="#000000" points="166.5927,-262.4132 163.0926,-252.4133 159.5927,-262.4133 166.5927,-262.4132"/>
</g>
<!-- main_BB3 -->
<g id="node8" class="node">
<title>main_BB3</title>
<ellipse fill="none" stroke="#000000" cx="163.0926" cy="-162" rx="18" ry="18"/>
<text text-anchor="middle" x="114.7581" y="-184.2" font-family="Times,serif" font-size="14.00" fill="#000000">main_BB3</text>
</g>
<!-- main_RETURN -->
<g id="node10" class="node">
<title>main_RETURN</title>
<polygon fill="none" stroke="#000000" points="216.58,-108 109.6052,-108 109.6052,-72 216.58,-72 216.58,-108"/>
<text text-anchor="middle" x="163.0926" y="-85.8" font-family="Times,serif" font-size="14.00" fill="#000000">main_RETURN</text>
</g>
<!-- main_BB3&#45;&gt;main_RETURN -->
<g id="edge6" class="edge">
<title>main_BB3-&gt;main_RETURN</title>
<path fill="none" stroke="#000000" d="M163.0926,-143.8314C163.0926,-136.131 163.0926,-126.9743 163.0926,-118.4166"/>
<polygon fill="#000000" stroke="#000000" points="166.5927,-118.4132 163.0926,-108.4133 159.5927,-118.4133 166.5927,-118.4132"/>
</g>
<!-- main_DROP_2&#45;&gt;main_BB3 -->
<g id="edge7" class="edge">
<title>main_DROP_2-&gt;main_BB3</title>
<path fill="none" stroke="#000000" d="M163.0926,-215.8314C163.0926,-208.131 163.0926,-198.9743 163.0926,-190.4166"/>
<polygon fill="#000000" stroke="#000000" points="166.5927,-190.4132 163.0926,-180.4133 159.5927,-190.4133 166.5927,-190.4132"/>
</g>
<!-- main_RETURN&#45;&gt;PROGRAM_END -->
<g id="edge8" class="edge">
<title>main_RETURN-&gt;PROGRAM_END</title>
<path fill="none" stroke="#000000" d="M163.0926,-71.8314C163.0926,-64.131 163.0926,-54.9743 163.0926,-46.4166"/>
<polygon fill="#000000" stroke="#000000" points="166.5927,-46.4132 163.0926,-36.4133 159.5927,-46.4133 166.5927,-46.4132"/>
</g>
<!-- main__closure_0__RETURN&#45;&gt;THREAD_0_END -->
<g id="edge9" class="edge">
<title>main__closure_0__RETURN-&gt;THREAD_0_END</title>
<path fill="none" stroke="#000000" d="M110.1863,-503.8314C115.0465,-495.083 120.9509,-484.455 126.2253,-474.9611"/>
<polygon fill="#000000" stroke="#000000" points="129.4308,-476.3981 131.2277,-465.9568 123.3117,-472.9986 129.4308,-476.3981"/>
</g>
<!-- std_thread_JoinHandle_T_join_0_CALL&#45;&gt;main_BB2 -->
<g id="edge10" class="edge">
<title>std_thread_JoinHandle_T_join_0_CALL-&gt;main_BB2</title>
<path fill="none" stroke="#000000" d="M163.0926,-359.8314C163.0926,-352.131 163.0926,-342.9743 163.0926,-334.4166"/>
<polygon fill="#000000" stroke="#000000" points="166.5927,-334.4132 163.0926,-324.4133 159.5927,-334.4133 166.5927,-334.4132"/>
</g>
<!-- std_thread_spawn_0_CALL&#45;&gt;THREAD_0_START -->
<g id="edge11" class="edge">
<title>std_thread_spawn_0_CALL-&gt;THREAD_0_START</title>
<path fill="none" stroke="#000000" d="M157.2887,-647.8314C154.6975,-639.7196 151.59,-629.9918 148.7337,-621.0505"/>
<polygon fill="#000000" stroke="#000000" points="152.0336,-619.8784 145.6566,-611.4177 145.3656,-622.0086 152.0336,-619.8784"/>
</g>
<!-- std_thread_spawn_0_CALL&#45;&gt;main_BB1 -->
<g id="edge12" class="edge">
<title>std_thread_spawn_0_CALL-&gt;main_BB1</title>
<path fill="none" stroke="#000000" d="M171.1982,-647.7623C182.3911,-622.5785 202.6452,-577.0066 215.4542,-548.1864"/>
<polygon fill="#000000" stroke="#000000" points="218.7842,-549.3115 219.6473,-538.7519 212.3875,-546.4685 218.7842,-549.3115"/>
</g>
</g>
</svg>