<?xml version="1.0" encoding="UTF-8" standalone="no"?>
<!DOCTYPE svg PUBLIC "-//W3C//DTD SVG 1.1//EN" "http://www.w3.org/Graphics/SVG/1.1/DTD/svg11.dtd">
<!-- Generated by graphviz version 2.40.1 (20161225.0304)
 -->
<!-- Title: petrinet Pages: 1 -->
<svg width="754pt" height="936pt" viewBox="0.00 0.00 754.24 935.57" xmlns="http://www.w3.org/2000/svg" xmlns:xlink="http://www.w3.org/1999/xlink">
<g id="graph0" class="graph" transform="scale(1 1) rotate(0) translate(4 931.5738)">
<title>petrinet</title>
<polygon fill="#ffffff" stroke="transparent" points="-4,4 -4,-931.5738 750.2447,-931.5738 750.2447,4 -4,4"/>
<!-- MUTEX_0 -->
<g id="node1" class="node">
<title>MUTEX_0</title>
<ellipse fill="none" stroke="#000000" cx="509.2447" cy="-740.6935" rx="20.8887" ry="20.8887"/>
<text text-anchor="middle" x="509.2447" y="-736.4935" font-family="Times,serif" font-size="14.00" fill="#000000">•</text>
<text text-anchor="middle" x="456.6697" y="-765.5869" font-family="Times,serif" font-size="14.00" fill="#000000">MUTEX_0</text>
</g>
<!-- std_sync_Mutex_T_lock_0_CALL -->
<g id="node18" class="node">
<title>std_sync_Mutex_T_lock_0_CALL</title>
<polygon fill="none" stroke="#000000" points="247.4952,-684 34.9941,-684 34.9941,-648 247.4952,-648 247.4952,-684"/>
<text text-anchor="middle" x="141.2447" y="-661.8" font-family="Times,serif" font-size="14.00" fill="#000000">std_sync_Mutex_T_lock_0_CALL</text>
</g>
<!-- MUTEX_0&#45;&gt;std_sync_Mutex_T_lock_0_CALL -->
<g id="edge1" class="edge">
<title>MUTEX_0-&gt;std_sync_Mutex_T_lock_0_CALL</title>
<path fill="none" stroke="#000000" d="M488.9352,-736.5712C442.4097,-727.1279 325.546,-703.4079 240.1039,-686.0656"/>
<polygon fill="#000000" stroke="#000000" points="240.6055,-682.5961 230.1091,-684.0369 239.213,-689.4562 240.6055,-682.5961"/>
</g>
<!-- std_sync_Mutex_T_lock_1_CALL -->
<g id="node19" class="node">
<title>std_sync_Mutex_T_lock_1_CALL</title>
<polygon fill="none" stroke="#000000" points="515.4952,-540 302.9941,-540 302.9941,-504 515.4952,-504 515.4952,-540"/>
<text text-anchor="middle" x="409.2447" y="-517.8" font-family="Times,serif" font-size="14.00" fill="#000000">std_sync_Mutex_T_lock_1_CALL</text>
</g>
<!-- MUTEX_0&#45;&gt;std_sync_Mutex_T_lock_1_CALL -->
<g id="edge2" class="edge">
<title>MUTEX_0-&gt;std_sync_Mutex_T_lock_1_CALL</title>
<path fill="none" stroke="#000000" d="M500.5452,-721.6684C482.793,-682.8454 442.3378,-594.3725 421.7622,-549.375"/>
<polygon fill="#000000" stroke="#000000" points="424.9124,-547.8477 417.5709,-540.2089 418.5464,-550.7587 424.9124,-547.8477"/>
</g>
<!-- PROGRAM_END -->
<g id="node2" class="node">
<title>PROGRAM_END</title>
<ellipse fill="none" stroke="#000000" cx="513.2447" cy="-18" rx="18" ry="18"/>
<text text-anchor="middle" x="442.7517" y="-40.2" font-family="Times,serif" font-size="14.00" fill="#000000">PROGRAM_END</text>
</g>
<!-- PROGRAM_PANIC -->
<g id="node3" class="node">
<title>PROGRAM_PANIC</title>
<ellipse fill="none" stroke="#000000" cx="658.2447" cy="-18" rx="18" ry="18"/>
<text text-anchor="middle" x="581.1381" y="-40.2" font-family="Times,serif" font-size="14.00" fill="#000000">PROGRAM_PANIC</text>
</g>
<!-- PROGRAM_START -->
<g id="node4" class="node">
<title>PROGRAM_START</title>
<ellipse fill="none" stroke="#000000" cx="141.2447" cy="-890.0804" rx="20.8887" ry="20.8887"/>
<text text-anchor="middle" x="141.2447" y="-885.8804" font-family="Times,serif" font-size="14.00" fill="#000000">•</text>
<text text-anchor="middle" x="60.2756" y="-914.9738" font-family="Times,serif" font-size="14.00" fill="#000000">PROGRAM_START</text>
</g>
<!-- std_sync_Mutex_T_new_0_CALL -->
<g id="node20" class="node">
<title>std_sync_Mutex_T_new_0_CALL</title>
<polygon fill="none" stroke="#000000" points="247.2111,-833.3869 35.2783,-833.3869 35.2783,-797.3869 247.2111,-797.3869 247.2111,-833.3869"/>
<text text-anchor="middle" x="141.2447" y="-811.1869" font-family="Times,serif" font-size="14.00" fill="#000000">std_sync_Mutex_T_new_0_CALL</text>
</g>
<!-- PROGRAM_START&#45;&gt;std_sync_Mutex_T_new_0_CALL -->
<g id="edge3" class="edge">
<title>PROGRAM_START-&gt;std_sync_Mutex_T_new_0_CALL</title>
<path fill="none" stroke="#000000" d="M141.2447,-869.2741C141.2447,-861.3827 141.2447,-852.2567 141.2447,-843.7837"/>
<polygon fill="#000000" stroke="#000000" points="144.7448,-843.5426 141.2447,-833.5426 137.7448,-843.5426 144.7448,-843.5426"/>
</g>
<!-- main_BB1 -->
<g id="node5" class="node">
<title>main_BB1</title>
<ellipse fill="none" stroke="#000000" cx="141.2447" cy="-740.6935" rx="18" ry="18"/>
<text text-anchor="middle" x="92.9102" y="-762.8935" font-family="Times,serif" font-size="14.00" fill="#000000">main_BB1</text>
</g>
<!-- main_BB1&#45;&gt;std_sync_Mutex_T_lock_0_CALL -->
<g id="edge4" class="edge">
<title>main_BB1-&gt;std_sync_Mutex_T_lock_0_CALL</title>
<path fill="none" stroke="#000000" d="M141.2447,-722.6123C141.2447,-714.1425 141.2447,-703.8522 141.2447,-694.3799"/>
<polygon fill="#000000" stroke="#000000" points="144.7448,-694.1735 141.2447,-684.1736 137.7448,-694.1736 144.7448,-694.1735"/>
</g>
<!-- main_BB2 -->
<g id="node6" class="node">
<title>main_BB2</title>
<ellipse fill="none" stroke="#000000" cx="185.2447" cy="-594" rx="18" ry="18"/>
<text text-anchor="middle" x="136.9102" y="-616.2" font-family="Times,serif" font-size="14.00" fill="#000000">main_BB2</text>
</g>
<!-- main_BB2&#45;&gt;std_sync_Mutex_T_lock_1_CALL -->
<g id="edge5" class="edge">
<title>main_BB2-&gt;std_sync_Mutex_T_lock_1_CALL</title>
<path fill="none" stroke="#000000" d="M202.4496,-588.4698C232.161,-578.9198 294.5648,-558.8614 343.0909,-543.2637"/>
<polygon fill="#000000" stroke="#000000" points="344.4583,-546.5006 352.9075,-540.1084 342.3162,-539.8364 344.4583,-546.5006"/>
</g>
<!-- main_BB3 -->
<g id="node7" class="node">
<title>main_BB3</title>
<ellipse fill="none" stroke="#000000" cx="416.2447" cy="-450" rx="18" ry="18"/>
<text text-anchor="middle" x="367.9102" y="-472.2" font-family="Times,serif" font-size="14.00" fill="#000000">main_BB3</text>
</g>
<!-- main_DROP_3 -->
<g id="node12" class="node">
<title>main_DROP_3</title>
<polygon fill="none" stroke="#000000" points="467.5734,-396 364.9159,-396 364.9159,-360 467.5734,-360 467.5734,-396"/>
<text text-anchor="middle" x="416.2447" y="-373.8" font-family="Times,serif" font-size="14.00" fill="#000000">main_DROP_3</text>
</g>
<!-- main_BB3&#45;&gt;main_DROP_3 -->
<g id="edge6" class="edge">
<title>main_BB3-&gt;main_DROP_3</title>
<path fill="none" stroke="#000000" d="M416.2447,-431.8314C416.2447,-424.131 416.2447,-414.9743 416.2447,-406.4166"/>
<polygon fill="#000000" stroke="#000000" points="419.7448,-406.4132 416.2447,-396.4133 412.7448,-406.4133 419.7448,-406.4132"/>
</g>
<!-- main_DROP_UNWIND_3 -->
<g id="node15" class="node">
<title>main_DROP_UNWIND_3</title>
<polygon fill="none" stroke="#000000" points="717.8749,-396 550.6144,-396 550.6144,-360 717.8749,-360 717.8749,-396"/>
<text text-anchor="middle" x="634.2447" y="-373.8" font-family="Times,serif" font-size="14.00" fill="#000000">main_DROP_UNWIND_3</text>
</g>
<!-- main_BB3&#45;&gt;main_DROP_UNWIND_3 -->
<g id="edge7" class="edge">
<title>main_BB3-&gt;main_DROP_UNWIND_3</title>
<path fill="none" stroke="#000000" d="M433.3507,-444.3503C462.4612,-434.7358 523.0514,-414.7244 570.1179,-399.1795"/>
<polygon fill="#000000" stroke="#000000" points="571.2406,-402.4947 579.6384,-396.0351 569.0452,-395.8479 571.2406,-402.4947"/>
</g>
<!-- main_BB4 -->
<g id="node8" class="node">
<title>main_BB4</title>
<ellipse fill="none" stroke="#000000" cx="460.2447" cy="-306" rx="18" ry="18"/>
<text text-anchor="middle" x="411.9102" y="-328.2" font-family="Times,serif" font-size="14.00" fill="#000000">main_BB4</text>
</g>
<!-- main_DROP_4 -->
<g id="node13" class="node">
<title>main_DROP_4</title>
<polygon fill="none" stroke="#000000" points="564.5734,-252 461.9159,-252 461.9159,-216 564.5734,-216 564.5734,-252"/>
<text text-anchor="middle" x="513.2447" y="-229.8" font-family="Times,serif" font-size="14.00" fill="#000000">main_DROP_4</text>
</g>
<!-- main_BB4&#45;&gt;main_DROP_4 -->
<g id="edge8" class="edge">
<title>main_BB4-&gt;main_DROP_4</title>
<path fill="none" stroke="#000000" d="M470.97,-291.4297C477.5573,-282.4809 486.1894,-270.7543 493.9348,-260.2322"/>
<polygon fill="#000000" stroke="#000000" points="496.7909,-262.2562 499.9005,-252.128 491.1536,-258.1065 496.7909,-262.2562"/>
</g>
<!-- main_BB5 -->
<g id="node9" class="node">
<title>main_BB5</title>
<ellipse fill="none" stroke="#000000" cx="513.2447" cy="-162" rx="18" ry="18"/>
<text text-anchor="middle" x="464.9102" y="-184.2" font-family="Times,serif" font-size="14.00" fill="#000000">main_BB5</text>
</g>
<!-- main_RETURN -->
<g id="node16" class="node">
<title>main_RETURN</title>
<polygon fill="none" stroke="#000000" points="566.7321,-108 459.7573,-108 459.7573,-72 566.7321,-72 566.7321,-108"/>
<text text-anchor="middle" x="513.2447" y="-85.8" font-family="Times,serif" font-size="14.00" fill="#000000">main_RETURN</text>
</g>
<!-- main_BB5&#45;&gt;main_RETURN -->
<g id="edge9" class="edge">
<title>main_BB5-&gt;main_RETURN</title>
<path fill="none" stroke="#000000" d="M513.2447,-143.8314C513.2447,-136.131 513.2447,-126.9743 513.2447,-118.4166"/>
<polygon fill="#000000" stroke="#000000" points="516.7448,-118.4132 513.2447,-108.4133 509.7448,-118.4133 516.7448,-118.4132"/>
</g>
<!-- main_BB6 -->
<g id="node10" class="node">
<title>main_BB6</title>
<ellipse fill="none" stroke="#000000" cx="642.2447" cy="-306" rx="18" ry="18"/>
<text text-anchor="middle" x="593.9102" y="-328.2" font-family="Times,serif" font-size="14.00" fill="#000000">main_BB6</text>
</g>
<!-- main_DROP_6 -->
<g id="node14" class="node">
<title>main_DROP_6</title>
<polygon fill="none" stroke="#000000" points="709.5734,-252 606.9159,-252 606.9159,-216 709.5734,-216 709.5734,-252"/>
<text text-anchor="middle" x="658.2447" y="-229.8" font-family="Times,serif" font-size="14.00" fill="#000000">main_DROP_6</text>
</g>
<!-- main_BB6&#45;&gt;main_DROP_6 -->
<g id="edge10" class="edge">
<title>main_BB6-&gt;main_DROP_6</title>
<path fill="none" stroke="#000000" d="M646.1997,-288.2022C647.9557,-280.3005 650.0644,-270.811 652.0233,-261.9959"/>
<polygon fill="#000000" stroke="#000000" points="655.4712,-262.6143 654.224,-252.0931 648.6379,-261.0957 655.4712,-262.6143"/>
</g>
<!-- main_BB7 -->
<g id="node11" class="node">
<title>main_BB7</title>
<ellipse fill="none" stroke="#000000" cx="658.2447" cy="-162" rx="18" ry="18"/>
<text text-anchor="middle" x="609.9102" y="-184.2" font-family="Times,serif" font-size="14.00" fill="#000000">main_BB7</text>
</g>
<!-- main_UNWIND_7 -->
<g id="node17" class="node">
<title>main_UNWIND_7</title>
<polygon fill="none" stroke="#000000" points="720.0424,-108 596.4469,-108 596.4469,-72 720.0424,-72 720.0424,-108"/>
<text text-anchor="middle" x="658.2447" y="-85.8" font-family="Times,serif" font-size="14.00" fill="#000000">main_UNWIND_7</text>
</g>
<!-- main_BB7&#45;&gt;main_UNWIND_7 -->
<g id="edge11" class="edge">
<title>main_BB7-&gt;main_UNWIND_7</title>
<path fill="none" stroke="#000000" d="M658.2447,-143.8314C658.2447,-136.131 658.2447,-126.9743 658.2447,-118.4166"/>
<polygon fill="#000000" stroke="#000000" points="661.7448,-118.4132 658.2447,-108.4133 654.7448,-118.4133 661.7448,-118.4132"/>
</g>
<!-- main_DROP_3&#45;&gt;MUTEX_0 -->
<g id="edge12" class="edge">
<title>main_DROP_3-&gt;MUTEX_0</title>
<path fill="none" stroke="#000000" d="M378.4592,-396.1014C336.6933,-419.053 275.2447,-462.8686 275.2447,-522 275.2447,-594 275.2447,-594 275.2447,-594 275.2447,-688.7306 414.6179,-724.6152 478.2392,-736.061"/>
<polygon fill="#000000" stroke="#000000" points="478.0324,-739.5762 488.4787,-737.8087 479.2102,-732.676 478.0324,-739.5762"/>
</g>
<!-- main_DROP_3&#45;&gt;main_BB4 -->
<g id="edge13" class="edge">
<title>main_DROP_3-&gt;main_BB4</title>
<path fill="none" stroke="#000000" d="M427.3477,-359.8314C432.8268,-350.8656 439.5123,-339.9257 445.4219,-330.2555"/>
<polygon fill="#000000" stroke="#000000" points="448.5572,-331.8369 450.7853,-321.479 442.5842,-328.1867 448.5572,-331.8369"/>
</g>
<!-- main_DROP_4&#45;&gt;MUTEX_0 -->
<g id="edge14" class="edge">
<title>main_DROP_4-&gt;MUTEX_0</title>
<path fill="none" stroke="#000000" d="M514.8355,-252.2807C518.7637,-299.7494 528.3186,-430.8336 524.2447,-540 521.9948,-600.2882 515.9559,-670.5514 512.2629,-709.9063"/>
<polygon fill="#000000" stroke="#000000" points="508.7731,-709.6337 511.311,-719.9201 515.7417,-710.2962 508.7731,-709.6337"/>
</g>
<!-- main_DROP_4&#45;&gt;main_BB5 -->
<g id="edge15" class="edge">
<title>main_DROP_4-&gt;main_BB5</title>
<path fill="none" stroke="#000000" d="M513.2447,-215.8314C513.2447,-208.131 513.2447,-198.9743 513.2447,-190.4166"/>
<polygon fill="#000000" stroke="#000000" points="516.7448,-190.4132 513.2447,-180.4133 509.7448,-190.4133 516.7448,-190.4132"/>
</g>
<!-- main_DROP_6&#45;&gt;MUTEX_0 -->
<g id="edge16" class="edge">
<title>main_DROP_6-&gt;MUTEX_0</title>
<path fill="none" stroke="#000000" d="M678.6548,-252.2913C704.6509,-277.709 746.2447,-326.4344 746.2447,-378 746.2447,-594 746.2447,-594 746.2447,-594 746.2447,-690.0307 603.8217,-725.3288 539.7894,-736.3458"/>
<polygon fill="#000000" stroke="#000000" points="539.1677,-732.9008 529.8623,-737.9663 540.2955,-739.8094 539.1677,-732.9008"/>
</g>
<!-- main_DROP_6&#45;&gt;main_BB7 -->
<g id="edge17" class="edge">
<title>main_DROP_6-&gt;main_BB7</title>
<path fill="none" stroke="#000000" d="M658.2447,-215.8314C658.2447,-208.131 658.2447,-198.9743 658.2447,-190.4166"/>
<polygon fill="#000000" stroke="#000000" points="661.7448,-190.4132 658.2447,-180.4133 654.7448,-190.4133 661.7448,-190.4132"/>
</g>
<!-- main_DROP_UNWIND_3&#45;&gt;MUTEX_0 -->
<g id="edge18" class="edge">
<title>main_DROP_UNWIND_3-&gt;MUTEX_0</title>
<path fill="none" stroke="#000000" d="M627.8824,-396.385C619.0762,-423.5162 604.2447,-476.0338 604.2447,-522 604.2447,-594 604.2447,-594 604.2447,-594 604.2447,-646.4177 560.9814,-694.8934 532.846,-720.8763"/>
<polygon fill="#000000" stroke="#000000" points="530.4659,-718.3095 525.3601,-727.5929 535.1407,-723.5197 530.4659,-718.3095"/>
</g>
<!-- main_DROP_UNWIND_3&#45;&gt;main_BB6 -->
<g id="edge19" class="edge">
<title>main_DROP_UNWIND_3-&gt;main_BB6</title>
<path fill="none" stroke="#000000" d="M636.2634,-359.8314C637.1322,-352.0125 638.1677,-342.6923 639.1311,-334.0221"/>
<polygon fill="#000000" stroke="#000000" points="642.6285,-334.2388 640.2543,-323.9134 635.6713,-333.4657 642.6285,-334.2388"/>
</g>
<!-- main_RETURN&#45;&gt;PROGRAM_END -->
<g id="edge20" class="edge">
<title>main_RETURN-&gt;PROGRAM_END</title>
<path fill="none" stroke="#000000" d="M513.2447,-71.8314C513.2447,-64.131 513.2447,-54.9743 513.2447,-46.4166"/>
<polygon fill="#000000" stroke="#000000" points="516.7448,-46.4132 513.2447,-36.4133 509.7448,-46.4133 516.7448,-46.4132"/>
</g>
<!-- main_UNWIND_7&#45;&gt;PROGRAM_PANIC -->
<g id="edge21" class="edge">
<title>main_UNWIND_7-&gt;PROGRAM_PANIC</title>
<path fill="none" stroke="#000000" d="M658.2447,-71.8314C658.2447,-64.131 658.2447,-54.9743 658.2447,-46.4166"/>
<polygon fill="#000000" stroke="#000000" points="661.7448,-46.4132 658.2447,-36.4133 654.7448,-46.4133 661.7448,-46.4132"/>
</g>
<!-- std_sync_Mutex_T_lock_0_CALL&#45;&gt;main_BB2 -->
<g id="edge22" class="edge">
<title>std_sync_Mutex_T_lock_0_CALL-&gt;main_BB2</title>
<path fill="none" stroke="#000000" d="M152.3477,-647.8314C157.8268,-638.8656 164.5123,-627.9257 170.4219,-618.2555"/>
<polygon fill="#000000" stroke="#000000" points="173.5572,-619.8369 175.7853,-609.479 167.5842,-616.1867 173.5572,-619.8369"/>
</g>
<!-- std_sync_Mutex_T_lock_1_CALL&#45;&gt;main_BB3 -->
<g id="edge23" class="edge">
<title>std_sync_Mutex_T_lock_1_CALL-&gt;main_BB3</title>
<path fill="none" stroke="#000000" d="M411.011,-503.8314C411.7597,-496.131 412.6499,-486.9743 413.4819,-478.4166"/>
<polygon fill="#000000" stroke="#000000" points="416.9703,-478.7051 414.4545,-468.4133 410.0031,-478.0276 416.9703,-478.7051"/>
</g>
<!-- std_sync_Mutex_T_new_0_CALL&#45;&gt;main_BB1 -->
<g id="edge24" class="edge">
<title>std_sync_Mutex_T_new_0_CALL-&gt;main_BB1</title>
<path fill="none" stroke="#000000" d="M141.2447,-797.3057C141.2447,-788.8359 141.2447,-778.5457 141.2447,-769.0734"/>
<polygon fill="#000000" stroke="#000000" points="144.7448,-768.867 141.2447,-758.867 137.7448,-768.8671 144.7448,-768.867"/>
</g>
</g>
</svg>