<?xml version="1.0" encoding="UTF-8" standalone="no"?>
<!DOCTYPE svg PUBLIC "-//W3C//DTD SVG 1.1//EN" "http://www.w3.org/Graphics/SVG/1.1/DTD/svg11.dtd">
<!-- Generated by graphviz version 2.40.1 (20161225.0304)
 -->
<!-- Title: petrinet Pages: 1 -->
<svg width="324pt" height="208pt" viewBox="0.00 0.00 323.55 207.60" xmlns="http://www.w3.org/2000/svg" xmlns:xlink="http://www.w3.org/1999/xlink">
<g id="graph0" class="graph" transform="scale(1 1) rotate(0) translate(4 203.6)">
<title>petrinet</title>
<polygon fill="#ffffff" stroke="transparent" points="-4,4 -4,-203.6 319.5512,-203.6 319.5512,4 -4,4"/>
<!-- PROGRAM_START -->
<g id="node1" class="node">
<title>PROGRAM_START</title>
<ellipse fill="none" stroke="#000000" cx="142.0512" cy="-161.3" rx="21.5" ry="21.5"/>
<text text-anchor="middle" x="142.0512" y="-157.1" font-family="Times,serif" font-size="14.00" fill="#000000">•</text>
<text text-anchor="middle" x="60.2756" y="-187" font-family="Times,serif" font-size="14.00" fill="#000000">PROGRAM_START</text>
</g>
<!-- main_PANIC -->
<g id="node5" class="node">
<title>main_PANIC</title>
<polygon fill="none" stroke="#000000" points="188.54,-103.7008 95.5624,-103.7008 95.5624,-79.0992 188.54,-79.0992 188.54,-103.7008"/>
<text text-anchor="middle" x="142.0512" y="-87.2" font-family="Times,serif" font-size="14.00" fill="#000000">main_PANIC</text>
</g>
<!-- PROGRAM_START&#45;&gt;main_PANIC -->
<g id="edge1" class="edge">
<title>PROGRAM_START-&gt;main_PANIC</title>
<path fill="none" stroke="#000000" d="M142.0512,-139.5664C142.0512,-131.4295 142.0512,-122.1719 142.0512,-113.9618"/>
<polygon fill="#000000" stroke="#000000" points="145.5513,-113.9547 142.0512,-103.9547 138.5513,-113.9548 145.5513,-113.9547"/>
</g>
<!-- GHOST -->
<g id="node2" class="node">
<title>GHOST</title>
</g>
<!-- PROGRAM_END -->
<g id="node3" class="node">
<title>PROGRAM_END</title>
<ellipse fill="none" stroke="#000000" cx="294.0512" cy="-21.5" rx="21.5" ry="21.5"/>
<text text-anchor="middle" x="220.0582" y="-47.2" font-family="Times,serif" font-size="14.00" fill="#000000">PROGRAM_END</text>
</g>
<!-- PROGRAM_PANIC -->
<g id="node4" class="node">
<title>PROGRAM_PANIC</title>
<ellipse fill="none" stroke="#000000" cx="142.0512" cy="-21.5" rx="21.5" ry="21.5"/>
<text text-anchor="middle" x="61.4446" y="-47.2" font-family="Times,serif" font-size="14.00" fill="#000000">PROGRAM_PANIC</text>
</g>
<!-- main_PANIC&#45;&gt;PROGRAM_PANIC -->
<g id="edge2" class="edge">
<title>main_PANIC-&gt;PROGRAM_PANIC</title>
<path fill="none" stroke="#000000" d="M142.0512,-78.9033C142.0512,-71.7134 142.0512,-62.325 142.0512,-53.2299"/>
<polygon fill="#000000" stroke="#000000" points="145.5513,-53.2187 142.0512,-43.2187 138.5513,-53.2187 145.5513,-53.2187"/>
</g>
</g>
</svg>