<?xml version="1.0" encoding="UTF-8" standalone="no"?>
<!DOCTYPE svg PUBLIC "-//W3C//DTD SVG 1.1//EN" "http://www.w3.org/Graphics/SVG/1.1/DTD/svg11.dtd">
<!-- Generated by graphviz version 2.40.1 (20161225.0304)
 -->
<!-- Title: parallel_activities Pages: 1 -->
<svg width="400pt" height="180pt" viewBox="0.00 0.00 400.00 179.80" xmlns="http://www.w3.org/2000/svg" xmlns:xlink="http://www.w3.org/1999/xlink">
<g id="graph0" class="graph" transform="scale(1 1) rotate(0) translate(4 175.8)">
<title>parallel_activities</title>
<polygon fill="#ffffff" stroke="transparent" points="-4,4 -4,-175.8 396,-175.8 396,4 -4,4"/>
<!-- P1 -->
<g id="node1" class="node">
<title>P1</title>
<ellipse fill="none" stroke="#000000" cx="111.5" cy="-99.3" rx="21.5" ry="21.5"/>
<text text-anchor="middle" x="111.5" y="-95.1" font-family="Times,serif" font-size="14.00" fill="#000000">•</text>
<text text-anchor="middle" x="82.6087" y="-65.2" font-family="Times,serif" font-size="14.00" fill="#000000">P1</text>
</g>
<!-- T2 -->
<g id="node7" class="node">
<title>T2</title>
<polygon fill="none" stroke="#000000" points="223,-110.6008 169,-110.6008 169,-85.9992 223,-85.9992 223,-110.6008"/>
<text text-anchor="middle" x="196" y="-94.1" font-family="Times,serif" font-size="14.00" fill="#000000">Task 1</text>
</g>
<!-- P1&#45;&gt;T2 -->
<g id="edge2" class="edge">
<title>P1-&gt;T2</title>
<path fill="none" stroke="#000000" d="M133.2608,-99.0425C141.0634,-98.9501 150.0962,-98.8432 158.8345,-98.7398"/>
<polygon fill="#000000" stroke="#000000" points="158.908,-102.2393 168.8659,-98.6211 158.8251,-95.2398 158.908,-102.2393"/>
</g>
<!-- P2 -->
<g id="node2" class="node">
<title>P2</title>
<ellipse fill="none" stroke="#000000" cx="111.5" cy="-38.3" rx="21.5" ry="21.5"/>
<text text-anchor="middle" x="111.5" y="-34.1" font-family="Times,serif" font-size="14.00" fill="#000000">•</text>
<text text-anchor="middle" x="82.6087" y="-4.2" font-family="Times,serif" font-size="14.00" fill="#000000">P2</text>
</g>
<!-- T3 -->
<g id="node8" class="node">
<title>T3</title>
<polygon fill="none" stroke="#000000" points="223,-50.6008 169,-50.6008 169,-25.9992 223,-25.9992 223,-50.6008"/>
<text text-anchor="middle" x="196" y="-34.1" font-family="Times,serif" font-size="14.00" fill="#000000">Task 2</text>
</g>
<!-- P2&#45;&gt;T3 -->
<g id="edge6" class="edge">
<title>P2-&gt;T3</title>
<path fill="none" stroke="#000000" d="M133.2608,-38.3C141.0634,-38.3 150.0962,-38.3 158.8345,-38.3"/>
<polygon fill="#000000" stroke="#000000" points="158.8659,-41.8001 168.8659,-38.3 158.8659,-34.8001 158.8659,-41.8001"/>
</g>
<!-- P3 -->
<g id="node3" class="node">
<title>P3</title>
<ellipse fill="none" stroke="#000000" cx="280.5" cy="-99.3" rx="21.5" ry="21.5"/>
<text text-anchor="middle" x="251.6087" y="-65.2" font-family="Times,serif" font-size="14.00" fill="#000000">P3</text>
</g>
<!-- T4 -->
<g id="node9" class="node">
<title>T4</title>
<polygon fill="none" stroke="#000000" points="392,-111.6008 338,-111.6008 338,-86.9992 392,-86.9992 392,-111.6008"/>
<text text-anchor="middle" x="365" y="-95.1" font-family="Times,serif" font-size="14.00" fill="#000000">Join</text>
</g>
<!-- P3&#45;&gt;T4 -->
<g id="edge4" class="edge">
<title>P3-&gt;T4</title>
<path fill="none" stroke="#000000" d="M302.2608,-99.3C310.0634,-99.3 319.0962,-99.3 327.8345,-99.3"/>
<polygon fill="#000000" stroke="#000000" points="327.8659,-102.8001 337.8659,-99.3 327.8659,-95.8001 327.8659,-102.8001"/>
</g>
<!-- P4 -->
<g id="node4" class="node">
<title>P4</title>
<ellipse fill="none" stroke="#000000" cx="280.5" cy="-38.3" rx="21.5" ry="21.5"/>
<text text-anchor="middle" x="251.6087" y="-4.2" font-family="Times,serif" font-size="14.00" fill="#000000">P4</text>
</g>
<!-- P4&#45;&gt;T4 -->
<g id="edge8" class="edge">
<title>P4-&gt;T4</title>
<path fill="none" stroke="#000000" d="M298.0085,-50.9392C309.9842,-59.5844 326.0547,-71.1856 339.4537,-80.8583"/>
<polygon fill="#000000" stroke="#000000" points="337.6464,-83.8703 347.8031,-86.8857 341.7436,-78.1946 337.6464,-83.8703"/>
</g>
<!-- P5 -->
<g id="node5" class="node">
<title>P5</title>
<ellipse fill="none" stroke="#000000" cx="196" cy="-150.3" rx="21.5" ry="21.5"/>
<text text-anchor="middle" x="167.1087" y="-116.2" font-family="Times,serif" font-size="14.00" fill="#000000">P5</text>
</g>
<!-- T1 -->
<g id="node6" class="node">
<title>T1</title>
<polygon fill="none" stroke="#000000" points="54,-111.6008 0,-111.6008 0,-86.9992 54,-86.9992 54,-111.6008"/>
<text text-anchor="middle" x="27" y="-95.1" font-family="Times,serif" font-size="14.00" fill="#000000">Fork</text>
</g>
<!-- P5&#45;&gt;T1 -->
<g id="edge10" class="edge">
<title>P5-&gt;T1</title>
<path fill="none" stroke="#000000" d="M174.4814,-147.6389C152.7759,-144.5848 118.4929,-138.7423 90,-129.3 79.4557,-125.8057 68.3823,-120.9658 58.5117,-116.1924"/>
<polygon fill="#000000" stroke="#000000" points="59.9838,-113.0155 49.4732,-111.6824 56.8584,-119.279 59.9838,-113.0155"/>
</g>
<!-- T1&#45;&gt;P1 -->
<g id="edge1" class="edge">
<title>T1-&gt;P1</title>
<path fill="none" stroke="#000000" d="M54.2015,-99.3C62.343,-99.3 71.3421,-99.3 79.7491,-99.3"/>
<polygon fill="#000000" stroke="#000000" points="79.9722,-102.8001 89.9721,-99.3 79.9721,-95.8001 79.9722,-102.8001"/>
</g>
<!-- T1&#45;&gt;P2 -->
<g id="edge5" class="edge">
<title>T1-&gt;P2</title>
<path fill="none" stroke="#000000" d="M44.0998,-86.9557C55.9677,-78.3884 71.9981,-66.8161 85.4479,-57.1069"/>
<polygon fill="#000000" stroke="#000000" points="87.7845,-59.7368 93.8439,-51.0458 83.6872,-54.0612 87.7845,-59.7368"/>
</g>
<!-- T2&#45;&gt;P3 -->
<g id="edge3" class="edge">
<title>T2-&gt;P3</title>
<path fill="none" stroke="#000000" d="M223.2015,-98.6219C231.343,-98.7183 240.3421,-98.8248 248.7491,-98.9242"/>
<polygon fill="#000000" stroke="#000000" points="248.9314,-102.4266 258.9721,-99.0452 249.0143,-95.427 248.9314,-102.4266"/>
</g>
<!-- T3&#45;&gt;P4 -->
<g id="edge7" class="edge">
<title>T3-&gt;P4</title>
<path fill="none" stroke="#000000" d="M223.2015,-38.3C231.343,-38.3 240.3421,-38.3 248.7491,-38.3"/>
<polygon fill="#000000" stroke="#000000" points="248.9722,-41.8001 258.9721,-38.3 248.9721,-34.8001 248.9722,-41.8001"/>
</g>
<!-- T4&#45;&gt;P5 -->
<g id="edge9" class="edge">
<title>T4-&gt;P5</title>
<path fill="none" stroke="#000000" d="M342.5268,-111.6824C330.7495,-117.7347 315.9142,-124.689 302,-129.3 277.6252,-137.3776 249.013,-142.8208 227.6627,-146.1375"/>
<polygon fill="#000000" stroke="#000000" points="226.8984,-142.7124 217.5186,-147.6389 227.9233,-149.637 226.8984,-142.7124"/>
</g>
</g>
</svg>