<?xml version="1.0" encoding="UTF-8" standalone="no"?>
<!DOCTYPE svg PUBLIC "-//W3C//DTD SVG 1.1//EN" "http://www.w3.org/Graphics/SVG/1.1/DTD/svg11.dtd">
<!-- Generated by graphviz version 2.40.1 (20161225.0304)
 -->
<!-- Title: petrinet Pages: 1 -->
<svg width="557pt" height="129pt" viewBox="0.00 0.00 556.77 128.80" xmlns="http://www.w3.org/2000/svg" xmlns:xlink="http://www.w3.org/1999/xlink">
<g id="graph0" class="graph" transform="scale(1 1) rotate(0) translate(4 124.8)">
<title>petrinet</title>
<polygon fill="#ffffff" stroke="transparent" points="-4,4 -4,-124.8 552.775,-124.8 552.775,4 -4,4"/>
<!-- PLACE_1_A -->
<g id="node1" class="node">
<title>PLACE_1_A</title>
<ellipse fill="none" stroke="#000000" cx="76.331" cy="-68.3" rx="21.5" ry="21.5"/>
<text text-anchor="middle" x="76.331" y="-64.1" font-family="Times,serif" font-size="14.00" fill="#000000">•</text>
<text text-anchor="middle" x="27.4155" y="-34.2" font-family="Times,serif" font-size="14.00" fill="#000000">PLACE 1</text>
</g>
<!-- TRANSITION_1_A -->
<g id="node5" class="node">
<title>TRANSITION_1_A</title>
<polygon fill="none" stroke="#000000" points="244.54,-80.6008 133.594,-80.6008 133.594,-55.9992 244.54,-55.9992 244.54,-80.6008"/>
<text text-anchor="middle" x="189.067" y="-64.1" font-family="Times,serif" font-size="14.00" fill="#000000">TRANSITION 1</text>
</g>
<!-- PLACE_1_A&#45;&gt;TRANSITION_1_A -->
<g id="edge1" class="edge">
<title>PLACE_1_A-&gt;TRANSITION_1_A</title>
<path fill="none" stroke="#000000" d="M98.0676,-68.3C105.5857,-68.3 114.4458,-68.3 123.6359,-68.3"/>
<polygon fill="#000000" stroke="#000000" points="123.6898,-71.8001 133.6898,-68.3 123.6898,-64.8001 123.6898,-71.8001"/>
</g>
<!-- PLACE_2_A -->
<g id="node2" class="node">
<title>PLACE_2_A</title>
<ellipse fill="none" stroke="#000000" cx="301.803" cy="-99.3" rx="21.5" ry="21.5"/>
<text text-anchor="middle" x="295.8875" y="-65.2" font-family="Times,serif" font-size="14.00" fill="#000000">PLACE 2</text>
</g>
<!-- TRANSITION_2_A -->
<g id="node6" class="node">
<title>TRANSITION_2_A</title>
<polygon fill="none" stroke="#000000" points="470.012,-80.6008 359.066,-80.6008 359.066,-55.9992 470.012,-55.9992 470.012,-80.6008"/>
<text text-anchor="middle" x="414.539" y="-64.1" font-family="Times,serif" font-size="14.00" fill="#000000">TRANSITION 2</text>
</g>
<!-- PLACE_2_A&#45;&gt;TRANSITION_2_A -->
<g id="edge4" class="edge">
<title>PLACE_2_A-&gt;TRANSITION_2_A</title>
<path fill="none" stroke="#000000" d="M322.7436,-93.5418C333.1965,-90.6675 346.3828,-87.0415 359.4752,-83.4414"/>
<polygon fill="#000000" stroke="#000000" points="360.7079,-86.7324 369.422,-80.7062 358.8519,-79.9829 360.7079,-86.7324"/>
</g>
<!-- PLACE_3_A -->
<g id="node3" class="node">
<title>PLACE_3_A</title>
<ellipse fill="none" stroke="#000000" cx="301.803" cy="-38.3" rx="21.5" ry="21.5"/>
<text text-anchor="middle" x="252.8875" y="-4.2" font-family="Times,serif" font-size="14.00" fill="#000000">PLACE 3</text>
</g>
<!-- PLACE_3_A&#45;&gt;TRANSITION_2_A -->
<g id="edge5" class="edge">
<title>PLACE_3_A-&gt;TRANSITION_2_A</title>
<path fill="none" stroke="#000000" d="M322.7436,-43.8725C332.892,-46.5731 345.617,-49.9593 358.3311,-53.3426"/>
<polygon fill="#000000" stroke="#000000" points="357.4449,-56.7285 368.0086,-55.9179 359.245,-49.9639 357.4449,-56.7285"/>
</g>
<!-- PLACE_4_A -->
<g id="node4" class="node">
<title>PLACE_4_A</title>
<ellipse fill="none" stroke="#000000" cx="527.275" cy="-68.3" rx="21.5" ry="21.5"/>
<text text-anchor="middle" x="478.3595" y="-34.2" font-family="Times,serif" font-size="14.00" fill="#000000">PLACE 4</text>
</g>
<!-- TRANSITION_1_A&#45;&gt;PLACE_2_A -->
<g id="edge2" class="edge">
<title>TRANSITION_1_A-&gt;PLACE_2_A</title>
<path fill="none" stroke="#000000" d="M233.9472,-80.6411C246.3583,-84.0539 259.5454,-87.6801 270.9615,-90.8192"/>
<polygon fill="#000000" stroke="#000000" points="270.3047,-94.2685 280.8748,-93.5452 272.1607,-87.519 270.3047,-94.2685"/>
</g>
<!-- TRANSITION_1_A&#45;&gt;PLACE_3_A -->
<g id="edge3" class="edge">
<title>TRANSITION_1_A-&gt;PLACE_3_A</title>
<path fill="none" stroke="#000000" d="M235.5719,-55.9246C247.5225,-52.7445 260.0835,-49.4019 271.0154,-46.4928"/>
<polygon fill="#000000" stroke="#000000" points="272.1606,-49.81 280.9242,-43.856 270.3604,-43.0454 272.1606,-49.81"/>
</g>
<!-- TRANSITION_2_A&#45;&gt;PLACE_4_A -->
<g id="edge6" class="edge">
<title>TRANSITION_2_A-&gt;PLACE_4_A</title>
<path fill="none" stroke="#000000" d="M469.9162,-68.3C478.6447,-68.3 487.4049,-68.3 495.3593,-68.3"/>
<polygon fill="#000000" stroke="#000000" points="495.6281,-71.8001 505.628,-68.3 495.628,-64.8001 495.6281,-71.8001"/>
</g>
</g>
</svg>