<?xml version="1.0" encoding="UTF-8" standalone="no"?>
<!DOCTYPE svg PUBLIC "-//W3C//DTD SVG 1.1//EN" "http://www.w3.org/Graphics/SVG/1.1/DTD/svg11.dtd">
<!-- Generated by graphviz version 2.40.1 (20161225.0304)
 -->
<!-- Title: petrinet Pages: 1 -->
<svg width="572pt" height="244pt" viewBox="0.00 0.00 571.64 244.00" xmlns="http://www.w3.org/2000/svg" xmlns:xlink="http://www.w3.org/1999/xlink">
<g id="graph0" class="graph" transform="scale(1 1) rotate(0) translate(4 240)">
<title>petrinet</title>
<polygon fill="#ffffff" stroke="transparent" points="-4,4 -4,-240 567.6416,-240 567.6416,4 -4,4"/>
<g id="clust1" class="cluster">
<title>cluster_0</title>
</g>
<g id="clust4" class="cluster">
<title>cluster_1</title>
</g>
<!-- P1 -->
<g id="node1" class="node">
<title>P1</title>
<ellipse fill="none" stroke="#000000" cx="172.9906" cy="-124" rx="21.5" ry="21.5"/>
<text text-anchor="middle" x="172.9906" y="-119.8" font-family="Times,serif" font-size="14.00" fill="#000000">•</text>
<text text-anchor="middle" x="144.0993" y="-89.9" font-family="Times,serif" font-size="14.00" fill="#000000">P1</text>
</g>
<!-- T1 -->
<g id="node3" class="node">
<title>T1</title>
<polygon fill="none" stroke="#000000" points="199.9906,-220.3008 145.9906,-220.3008 145.9906,-195.6992 199.9906,-195.6992 199.9906,-220.3008"/>
<text text-anchor="middle" x="172.9906" y="-203.8" font-family="Times,serif" font-size="14.00" fill="#000000">T1</text>
</g>
<!-- P1&#45;&gt;T1 -->
<g id="edge1" class="edge">
<title>P1-&gt;T1</title>
<path fill="none" stroke="#000000" d="M172.9906,-145.6563C172.9906,-158.8525 172.9906,-172.0488 172.9906,-185.2451"/>
<polygon fill="#000000" stroke="#000000" points="169.4907,-185.3364 172.9906,-195.3364 176.4907,-185.3365 169.4907,-185.3364"/>
</g>
<!-- M2 -->
<g id="node7" class="node">
<title>M2</title>
<text text-anchor="middle" x="289.651" y="-29.8" font-family="Times,serif" font-size="14.00" fill="#000000">M2 = (1, 0)</text>
</g>
<!-- P1&#45;&gt;M2 -->
<!-- P2 -->
<g id="node2" class="node">
<title>P2</title>
<ellipse fill="none" stroke="#000000" cx="289.651" cy="-198" rx="21.5" ry="21.5"/>
<text text-anchor="middle" x="260.7597" y="-163.9" font-family="Times,serif" font-size="14.00" fill="#000000">P2</text>
</g>
<!-- T2 -->
<g id="node4" class="node">
<title>T2</title>
<polygon fill="none" stroke="#000000" points="316.651,-126.3008 262.651,-126.3008 262.651,-101.6992 316.651,-101.6992 316.651,-126.3008"/>
<text text-anchor="middle" x="289.651" y="-109.8" font-family="Times,serif" font-size="14.00" fill="#000000">T2</text>
</g>
<!-- P2&#45;&gt;T2 -->
<g id="edge3" class="edge">
<title>P2-&gt;T2</title>
<path fill="none" stroke="#000000" d="M289.651,-176.4847C289.651,-163.1992 289.651,-149.9137 289.651,-136.6282"/>
<polygon fill="#000000" stroke="#000000" points="293.1511,-136.4687 289.651,-126.4688 286.1511,-136.4688 293.1511,-136.4687"/>
</g>
<!-- T1&#45;&gt;P2 -->
<g id="edge2" class="edge">
<title>T1-&gt;P2</title>
<path fill="none" stroke="#000000" d="M200.0481,-205.6807C217.3783,-204.1951 239.9373,-202.2614 258.084,-200.7059"/>
<polygon fill="#000000" stroke="#000000" points="258.5212,-204.1813 268.1857,-199.84 257.9233,-197.2069 258.5212,-204.1813"/>
</g>
<!-- T2&#45;&gt;P1 -->
<g id="edge4" class="edge">
<title>T2-&gt;P1</title>
<path fill="none" stroke="#000000" d="M262.3396,-116.3411C245.0911,-117.8196 222.7393,-119.7356 204.7069,-121.2813"/>
<polygon fill="#000000" stroke="#000000" points="204.3246,-117.8012 194.6601,-122.1425 204.9225,-124.7756 204.3246,-117.8012"/>
</g>
<!-- M0 -->
<g id="node5" class="node">
<title>M0</title>
<text text-anchor="middle" x="56.3302" y="-29.8" font-family="Times,serif" font-size="14.00" fill="#000000">M0 = (1, 0)</text>
</g>
<!-- M1 -->
<g id="node6" class="node">
<title>M1</title>
<text text-anchor="middle" x="172.9906" y="-29.8" font-family="Times,serif" font-size="14.00" fill="#000000">M1 = (0, 1)</text>
</g>
<!-- M0&#45;&gt;M1 -->
<g id="edge5" class="edge">
<title>M0-&gt;M1</title>
<path fill="none" stroke="#000000" d="M96.8049,-34C105.0393,-34 113.7991,-34 122.3357,-34"/>
<polygon fill="#000000" stroke="#000000" points="122.5874,-37.5001 132.5874,-34 122.5874,-30.5001 122.5874,-37.5001"/>
<text text-anchor="middle" x="106.9171" y="-5.4" font-family="Times,serif" font-size="14.00" fill="#000000">T1</text>
</g>
<!-- M1&#45;&gt;M2 -->
<g id="edge6" class="edge">
<title>M1-&gt;M2</title>
<path fill="none" stroke="#000000" d="M213.4653,-34C221.6997,-34 230.4595,-34 238.9961,-34"/>
<polygon fill="#000000" stroke="#000000" points="239.2478,-37.5001 249.2478,-34 239.2478,-30.5001 239.2478,-37.5001"/>
<text text-anchor="middle" x="223.5775" y="-5.4" font-family="Times,serif" font-size="14.00" fill="#000000">T2</text>
</g>
<!-- M3 -->
<g id="node8" class="node">
<title>M3</title>
<text text-anchor="middle" x="406.3114" y="-29.8" font-family="Times,serif" font-size="14.00" fill="#000000">M3 = (0, 1)</text>
</g>
<!-- M2&#45;&gt;M3 -->
<g id="edge7" class="edge">
<title>M2-&gt;M3</title>
<path fill="none" stroke="#000000" d="M330.1257,-34C338.3601,-34 347.1199,-34 355.6565,-34"/>
<polygon fill="#000000" stroke="#000000" points="355.9082,-37.5001 365.9082,-34 355.9082,-30.5001 355.9082,-37.5001"/>
<text text-anchor="middle" x="340.2379" y="-5.4" font-family="Times,serif" font-size="14.00" fill="#000000">T1</text>
</g>
<!-- M4 -->
<g id="node9" class="node">
<title>M4</title>
<text text-anchor="middle" x="515.1416" y="-29.8" font-family="Times,serif" font-size="14.00" fill="#000000">• • •</text>
</g>
<!-- M3&#45;&gt;M4 -->
<g id="edge8" class="edge">
<title>M3-&gt;M4</title>
<path fill="none" stroke="#000000" d="M446.5265,-34C454.9638,-34 463.8908,-34 472.4161,-34"/>
<polygon fill="#000000" stroke="#000000" points="472.5558,-37.5001 482.5558,-34 472.5557,-30.5001 472.5558,-37.5001"/>
<text text-anchor="middle" x="456.9641" y="-5.4" font-family="Times,serif" font-size="14.00" fill="#000000">T2</text>
</g>
</g>
</svg>