<?xml version="1.0" encoding="UTF-8" standalone="no"?>
<!DOCTYPE svg PUBLIC "-//W3C//DTD SVG 1.1//EN" "http://www.w3.org/Graphics/SVG/1.1/DTD/svg11.dtd">
<!-- Generated by graphviz version 2.40.1 (20161225.0304)
 -->
<!-- Title: reachability_tree Pages: 1 -->
<svg width="399pt" height="327pt" viewBox="0.00 0.00 399.24 326.60" xmlns="http://www.w3.org/2000/svg" xmlns:xlink="http://www.w3.org/1999/xlink">
<g id="graph0" class="graph" transform="scale(1 1) rotate(0) translate(4 322.6)">
<title>reachability_tree</title>
<polygon fill="#ffffff" stroke="transparent" points="-4,4 -4,-322.6 395.2407,-322.6 395.2407,4 -4,4"/>
<!-- M0 -->
<g id="node1" class="node">
<title>M0</title>
<text text-anchor="middle" x="131.3302" y="-296.4" font-family="Times,serif" font-size="14.00" fill="#000000">M0 = (1, 0, 0)</text>
</g>
<!-- M1 -->
<g id="node2" class="node">
<title>M1</title>
<text text-anchor="middle" x="47.3302" y="-191.6" font-family="Times,serif" font-size="14.00" fill="#000000">M1 = (0, 0, 1)</text>
</g>
<!-- M0&#45;&gt;M1 -->
<g id="edge1" class="edge">
<title>M0-&gt;M1</title>
<path fill="none" stroke="#000000" d="M116.6985,-282.3452C103.2683,-265.5894 83.2252,-240.5832 68.1321,-221.7528"/>
<polygon fill="#000000" stroke="#000000" points="70.7795,-219.4595 61.7942,-213.8456 65.3174,-223.8375 70.7795,-219.4595"/>
<text text-anchor="middle" x="76.3862" y="-252.5027" font-family="Times,serif" font-size="14.00" fill="#000000">T1   </text>
</g>
<!-- M2 -->
<g id="node3" class="node">
<title>M2</title>
<text text-anchor="middle" x="250.3302" y="-191.6" font-family="Times,serif" font-size="14.00" fill="#000000">M2 = (1, ω, 0)</text>
</g>
<!-- M0&#45;&gt;M2 -->
<g id="edge2" class="edge">
<title>M0-&gt;M2</title>
<path fill="none" stroke="#000000" d="M151.787,-282.5842C171.1996,-265.4882 200.5394,-239.6493 222.159,-220.6096"/>
<polygon fill="#000000" stroke="#000000" points="224.5506,-223.1672 229.7421,-213.9314 219.9242,-217.9139 224.5506,-223.1672"/>
<text text-anchor="middle" x="216.1065" y="-252" font-family="Times,serif" font-size="14.00" fill="#000000">T3</text>
</g>
<!-- M3 -->
<g id="node4" class="node">
<title>M3</title>
<text text-anchor="middle" x="139.3302" y="-86.8" font-family="Times,serif" font-size="14.00" fill="#000000">M3 = (0, ω, 1)</text>
</g>
<!-- M2&#45;&gt;M3 -->
<g id="edge3" class="edge">
<title>M2-&gt;M3</title>
<path fill="none" stroke="#000000" d="M231.2486,-177.7842C213.2205,-160.7631 186.0136,-135.0758 165.8733,-116.0605"/>
<polygon fill="#000000" stroke="#000000" points="168.2083,-113.4516 158.5342,-109.1314 163.4027,-118.5414 168.2083,-113.4516"/>
<text text-anchor="middle" x="181.7065" y="-147.508" font-family="Times,serif" font-size="14.00" fill="#000000">T1   </text>
</g>
<!-- M4 -->
<g id="node5" class="node">
<title>M4</title>
<text text-anchor="middle" x="343.3302" y="-86.8" font-family="Times,serif" font-size="14.00" fill="#000000">M4 = (1, ω, 0)</text>
</g>
<!-- M2&#45;&gt;M4 -->
<g id="edge4" class="edge">
<title>M2-&gt;M4</title>
<path fill="none" stroke="#000000" d="M266.5296,-177.5452C281.4654,-160.7143 303.7885,-135.5588 320.524,-116.6999"/>
<polygon fill="#000000" stroke="#000000" points="323.2969,-118.8483 327.3165,-109.0456 318.0611,-114.2021 323.2969,-118.8483"/>
<text text-anchor="middle" x="318.1065" y="-147.2" font-family="Times,serif" font-size="14.00" fill="#000000">T3</text>
</g>
<!-- M5 -->
<g id="node6" class="node">
<title>M5</title>
<text text-anchor="middle" x="139.3302" y="-13.8" font-family="Times,serif" font-size="14.00" fill="#000000">M5 = (0, ω, 1)</text>
</g>
<!-- M3&#45;&gt;M5 -->
<g id="edge5" class="edge">
<title>M3-&gt;M5</title>
<path fill="none" stroke="#000000" d="M139.3302,-72.9551C139.3302,-64.8828 139.3302,-55.1764 139.3302,-46.1817"/>
<polygon fill="#000000" stroke="#000000" points="142.8303,-46.0903 139.3302,-36.0904 135.8303,-46.0904 142.8303,-46.0903"/>
<text text-anchor="middle" x="126.3039" y="-58.5194" font-family="Times,serif" font-size="14.00" fill="#000000">T2   </text>
</g>
</g>
</svg>