<?xml version="1.0" encoding="UTF-8" standalone="no"?>
<!DOCTYPE svg PUBLIC "-//W3C//DTD SVG 1.1//EN" "http://www.w3.org/Graphics/SVG/1.1/DTD/svg11.dtd">
<!-- Generated by graphviz version 2.40.1 (20161225.0304)
 -->
<!-- Title: reachability_tree Pages: 1 -->
<svg width="619pt" height="463pt" viewBox="0.00 0.00 619.33 463.20" xmlns="http://www.w3.org/2000/svg" xmlns:xlink="http://www.w3.org/1999/xlink">
<g id="graph0" class="graph" transform="scale(1 1) rotate(0) translate(4 459.2)">
<title>reachability_tree</title>
<polygon fill="#ffffff" stroke="transparent" points="-4,4 -4,-459.2 615.3302,-459.2 615.3302,4 -4,4"/>
<!-- M0 -->
<g id="node1" class="node">
<title>M0</title>
<text text-anchor="middle" x="131.3302" y="-433" font-family="Times,serif" font-size="14.00" fill="#000000">M0 = (1, 0, 0)</text>
</g>
<!-- M1 -->
<g id="node2" class="node">
<title>M1</title>
<text text-anchor="middle" x="47.3302" y="-328.2" font-family="Times,serif" font-size="14.00" fill="#000000">M1 = (0, 0, 1)</text>
</g>
<!-- M0&#45;&gt;M1 -->
<g id="edge1" class="edge">
<title>M0-&gt;M1</title>
<path fill="none" stroke="#000000" d="M116.6985,-418.9452C103.2683,-402.1894 83.2252,-377.1832 68.1321,-358.3528"/>
<polygon fill="#000000" stroke="#000000" points="70.7795,-356.0595 61.7942,-350.4456 65.3174,-360.4375 70.7795,-356.0595"/>
<text text-anchor="middle" x="76.3862" y="-389.1027" font-family="Times,serif" font-size="14.00" fill="#000000">T1   </text>
</g>
<!-- M2 -->
<g id="node3" class="node">
<title>M2</title>
<text text-anchor="middle" x="250.3302" y="-328.2" font-family="Times,serif" font-size="14.00" fill="#000000">M2 = (1, 1, 0)</text>
</g>
<!-- M0&#45;&gt;M2 -->
<g id="edge2" class="edge">
<title>M0-&gt;M2</title>
<path fill="none" stroke="#000000" d="M151.787,-419.1842C171.1996,-402.0882 200.5394,-376.2493 222.159,-357.2096"/>
<polygon fill="#000000" stroke="#000000" points="224.5506,-359.7672 229.7421,-350.5314 219.9242,-354.5139 224.5506,-359.7672"/>
<text text-anchor="middle" x="217.1065" y="-388.6" font-family="Times,serif" font-size="14.00" fill="#000000">T3</text>
</g>
<!-- M3 -->
<g id="node4" class="node">
<title>M3</title>
<text text-anchor="middle" x="145.3302" y="-223.4" font-family="Times,serif" font-size="14.00" fill="#000000">M3 = (0, 1, 1)</text>
</g>
<!-- M2&#45;&gt;M3 -->
<g id="edge3" class="edge">
<title>M2-&gt;M3</title>
<path fill="none" stroke="#000000" d="M232.0406,-314.1452C215.027,-297.164 189.5233,-271.7089 170.5745,-252.7962"/>
<polygon fill="#000000" stroke="#000000" points="172.9606,-250.2327 163.4102,-245.6456 168.0155,-255.1872 172.9606,-250.2327"/>
<text text-anchor="middle" x="184.6671" y="-284.0634" font-family="Times,serif" font-size="14.00" fill="#000000">T1   </text>
</g>
<!-- M4 -->
<g id="node5" class="node">
<title>M4</title>
<text text-anchor="middle" x="368.3302" y="-223.4" font-family="Times,serif" font-size="14.00" fill="#000000">M4 = (1, 2, 0)</text>
</g>
<!-- M2&#45;&gt;M4 -->
<g id="edge4" class="edge">
<title>M2-&gt;M4</title>
<path fill="none" stroke="#000000" d="M270.6151,-314.3842C289.8645,-297.2882 318.9578,-271.4493 340.3957,-252.4096"/>
<polygon fill="#000000" stroke="#000000" points="342.7624,-254.9888 347.9151,-245.7314 338.114,-249.755 342.7624,-254.9888"/>
<text text-anchor="middle" x="335.1065" y="-283.8" font-family="Times,serif" font-size="14.00" fill="#000000">T3</text>
</g>
<!-- M5 -->
<g id="node6" class="node">
<title>M5</title>
<text text-anchor="middle" x="105.3302" y="-118.6" font-family="Times,serif" font-size="14.00" fill="#000000">M5 = (0, 0, 1)</text>
</g>
<!-- M3&#45;&gt;M5 -->
<g id="edge5" class="edge">
<title>M3-&gt;M5</title>
<path fill="none" stroke="#000000" d="M138.3627,-209.3452C132.1395,-193.0403 122.9344,-168.9229 115.821,-150.2859"/>
<polygon fill="#000000" stroke="#000000" points="119.0537,-148.9401 112.2178,-140.8456 112.5139,-151.4363 119.0537,-148.9401"/>
<text text-anchor="middle" x="112.3465" y="-179.5117" font-family="Times,serif" font-size="14.00" fill="#000000">T2   </text>
</g>
<!-- M6 -->
<g id="node7" class="node">
<title>M6</title>
<text text-anchor="middle" x="308.3302" y="-118.6" font-family="Times,serif" font-size="14.00" fill="#000000">M6 = (0, 2, 1)</text>
</g>
<!-- M4&#45;&gt;M6 -->
<g id="edge6" class="edge">
<title>M4-&gt;M6</title>
<path fill="none" stroke="#000000" d="M350.0969,-209.5096C345.2138,-204.0545 340.2177,-197.8481 336.3302,-191.6 328.4281,-178.8996 321.9386,-163.5839 317.2038,-150.6301"/>
<polygon fill="#000000" stroke="#000000" points="320.3881,-149.132 313.7893,-140.843 313.7788,-151.4378 320.3881,-149.132"/>
<text text-anchor="middle" x="315.3477" y="-181.3251" font-family="Times,serif" font-size="14.00" fill="#000000">T1   </text>
</g>
<!-- M7 -->
<g id="node8" class="node">
<title>M7</title>
<text text-anchor="middle" x="511.3302" y="-118.6" font-family="Times,serif" font-size="14.00" fill="#000000">M7 = (1, 3, 0)</text>
</g>
<!-- M4&#45;&gt;M7 -->
<g id="edge7" class="edge">
<title>M4-&gt;M7</title>
<path fill="none" stroke="#000000" d="M392.9128,-209.5842C416.5474,-192.2632 452.4275,-165.9679 478.498,-146.8616"/>
<polygon fill="#000000" stroke="#000000" points="480.5929,-149.6657 486.5899,-140.9314 476.4551,-144.0196 480.5929,-149.6657"/>
<text text-anchor="middle" x="468.1065" y="-179" font-family="Times,serif" font-size="14.00" fill="#000000">T3</text>
</g>
<!-- M8 -->
<g id="node9" class="node">
<title>M8</title>
<text text-anchor="middle" x="234.3302" y="-13.8" font-family="Times,serif" font-size="14.00" fill="#000000">M8 = (0, 1, 0)</text>
</g>
<!-- M6&#45;&gt;M8 -->
<g id="edge8" class="edge">
<title>M6-&gt;M8</title>
<path fill="none" stroke="#000000" d="M295.4404,-104.5452C283.7151,-87.9397 266.2682,-63.2311 253.0144,-44.4609"/>
<polygon fill="#000000" stroke="#000000" points="255.6995,-42.1956 247.0723,-36.0456 249.9813,-46.2332 255.6995,-42.1956"/>
<text text-anchor="middle" x="258.2569" y="-74.5334" font-family="Times,serif" font-size="14.00" fill="#000000">T2   </text>
</g>
<!-- M9 -->
<g id="node10" class="node">
<title>M9</title>
<text text-anchor="middle" x="416.3302" y="-13.8" font-family="Times,serif" font-size="14.00" fill="#000000">....</text>
</g>
<!-- M7&#45;&gt;M9 -->
<g id="edge9" class="edge">
<title>M7-&gt;M9</title>
<path fill="none" stroke="#000000" d="M494.7825,-104.5452C479.5254,-87.7143 456.7223,-62.5588 439.6268,-43.6999"/>
<polygon fill="#000000" stroke="#000000" points="441.9977,-41.1039 432.6883,-36.0456 436.8113,-45.8053 441.9977,-41.1039"/>
<text text-anchor="middle" x="450.7476" y="-74.5379" font-family="Times,serif" font-size="14.00" fill="#000000">T1   </text>
</g>
<!-- M10 -->
<g id="node11" class="node">
<title>M10</title>
<text text-anchor="middle" x="584.3302" y="-13.8" font-family="Times,serif" font-size="14.00" fill="#000000">....</text>
</g>
<!-- M7&#45;&gt;M10 -->
<g id="edge10" class="edge">
<title>M7-&gt;M10</title>
<path fill="none" stroke="#000000" d="M524.0458,-104.5452C535.6126,-87.9397 552.8238,-63.2311 565.8984,-44.4609"/>
<polygon fill="#000000" stroke="#000000" points="568.9165,-46.2516 571.7603,-36.0456 563.1726,-42.2506 568.9165,-46.2516"/>
<text text-anchor="middle" x="566.1065" y="-74.2" font-family="Times,serif" font-size="14.00" fill="#000000">T3</text>
</g>
</g>
</svg>