<?xml version="1.0" encoding="UTF-8" standalone="no"?>
<!DOCTYPE svg PUBLIC "-//W3C//DTD SVG 1.1//EN" "http://www.w3.org/Graphics/SVG/1.1/DTD/svg11.dtd">
<!-- Generated by graphviz version 2.40.1 (20161225.0304)
 -->
<!-- Title: reachability_tree Pages: 1 -->
<svg width="309pt" height="226pt" viewBox="0.00 0.00 309.00 225.80" xmlns="http://www.w3.org/2000/svg" xmlns:xlink="http://www.w3.org/1999/xlink">
<g id="graph0" class="graph" transform="scale(1 1) rotate(0) translate(4 221.8)">
<title>reachability_tree</title>
<polygon fill="#ffffff" stroke="transparent" points="-4,4 -4,-221.8 305,-221.8 305,4 -4,4"/>
<!-- P1 -->
<g id="node1" class="node">
<title>P1</title>
<ellipse fill="none" stroke="#000000" cx="153" cy="-179.5" rx="21.5" ry="21.5"/>
<text text-anchor="middle" x="153" y="-175.3" font-family="Times,serif" font-size="14.00" fill="#000000">•</text>
<text text-anchor="middle" x="124.1087" y="-205.2" font-family="Times,serif" font-size="14.00" fill="#000000">P1</text>
</g>
<!-- T0 -->
<g id="node4" class="node">
<title>T0</title>
<polygon fill="none" stroke="#000000" points="54,-112.8008 0,-112.8008 0,-88.1992 54,-88.1992 54,-112.8008"/>
<text text-anchor="middle" x="27" y="-96.3" font-family="Times,serif" font-size="14.00" fill="#000000">T0</text>
</g>
<!-- P1&#45;&gt;T0 -->
<g id="edge3" class="edge">
<title>P1-&gt;T0</title>
<path fill="none" stroke="#000000" d="M134.6785,-168.0127C113.9801,-155.0351 80.0253,-133.746 55.779,-118.544"/>
<polygon fill="#000000" stroke="#000000" points="57.3413,-115.3925 47.0097,-113.0457 53.6229,-121.3232 57.3413,-115.3925"/>
</g>
<!-- T1 -->
<g id="node5" class="node">
<title>T1</title>
<polygon fill="none" stroke="#000000" points="180,-112.8008 126,-112.8008 126,-88.1992 180,-88.1992 180,-112.8008"/>
<text text-anchor="middle" x="153" y="-96.3" font-family="Times,serif" font-size="14.00" fill="#000000">T1</text>
</g>
<!-- P1&#45;&gt;T1 -->
<g id="edge1" class="edge">
<title>P1-&gt;T1</title>
<path fill="none" stroke="#000000" d="M153,-157.9129C153,-147.0857 153,-133.9804 153,-123.0259"/>
<polygon fill="#000000" stroke="#000000" points="156.5001,-122.9524 153,-112.9524 149.5001,-122.9525 156.5001,-122.9524"/>
</g>
<!-- T3 -->
<g id="node7" class="node">
<title>T3</title>
<polygon fill="none" stroke="#000000" points="301,-191.8008 247,-191.8008 247,-167.1992 301,-167.1992 301,-191.8008"/>
<text text-anchor="middle" x="274" y="-175.3" font-family="Times,serif" font-size="14.00" fill="#000000">T3</text>
</g>
<!-- P1&#45;&gt;T3 -->
<g id="edge5" class="edge">
<title>P1-&gt;T3</title>
<path fill="none" stroke="#000000" d="M172.8516,-170.6541C194.2092,-163.0049 215.5668,-161.3843 236.9244,-165.7923"/>
<polygon fill="#000000" stroke="#000000" points="236.1874,-169.2156 246.7373,-168.2418 237.8827,-162.424 236.1874,-169.2156"/>
</g>
<!-- P2 -->
<g id="node2" class="node">
<title>P2</title>
<ellipse fill="none" stroke="#000000" cx="274" cy="-100.5" rx="21.5" ry="21.5"/>
<text text-anchor="middle" x="245.1087" y="-126.2" font-family="Times,serif" font-size="14.00" fill="#000000">P2</text>
</g>
<!-- T2 -->
<g id="node6" class="node">
<title>T2</title>
<polygon fill="none" stroke="#000000" points="301,-33.8008 247,-33.8008 247,-9.1992 301,-9.1992 301,-33.8008"/>
<text text-anchor="middle" x="274" y="-17.3" font-family="Times,serif" font-size="14.00" fill="#000000">T2</text>
</g>
<!-- P2&#45;&gt;T2 -->
<g id="edge8" class="edge">
<title>P2-&gt;T2</title>
<path fill="none" stroke="#000000" d="M274,-78.9129C274,-68.0857 274,-54.9804 274,-44.0259"/>
<polygon fill="#000000" stroke="#000000" points="277.5001,-43.9524 274,-33.9524 270.5001,-43.9525 277.5001,-43.9524"/>
</g>
<!-- P3 -->
<g id="node3" class="node">
<title>P3</title>
<ellipse fill="none" stroke="#000000" cx="153" cy="-21.5" rx="21.5" ry="21.5"/>
<text text-anchor="middle" x="124.1087" y="-47.2" font-family="Times,serif" font-size="14.00" fill="#000000">P3</text>
</g>
<!-- P3&#45;&gt;T0 -->
<g id="edge4" class="edge">
<title>P3-&gt;T0</title>
<path fill="none" stroke="#000000" d="M134.6785,-32.9873C113.8877,-46.0228 79.7218,-67.4443 55.4549,-82.6593"/>
<polygon fill="#000000" stroke="#000000" points="53.3007,-79.8788 46.6875,-88.1563 57.0192,-85.8095 53.3007,-79.8788"/>
</g>
<!-- P3&#45;&gt;T2 -->
<g id="edge10" class="edge">
<title>P3-&gt;T2</title>
<path fill="none" stroke="#000000" d="M172.8516,-30.3459C194.2092,-37.9951 215.5668,-39.6157 236.9244,-35.2077"/>
<polygon fill="#000000" stroke="#000000" points="237.8827,-38.576 246.7373,-32.7582 236.1874,-31.7844 237.8827,-38.576"/>
</g>
<!-- T1&#45;&gt;P3 -->
<g id="edge2" class="edge">
<title>T1-&gt;P3</title>
<path fill="none" stroke="#000000" d="M153,-88.1563C153,-78.8926 153,-65.7666 153,-53.6092"/>
<polygon fill="#000000" stroke="#000000" points="156.5001,-53.2962 153,-43.2962 149.5001,-53.2963 156.5001,-53.2962"/>
</g>
<!-- T2&#45;&gt;P3 -->
<g id="edge9" class="edge">
<title>T2-&gt;P3</title>
<path fill="none" stroke="#000000" d="M246.7373,-10.2418C225.3797,-3.9872 204.0221,-3.7612 182.6645,-9.5638"/>
<polygon fill="#000000" stroke="#000000" points="181.3384,-6.3119 172.8516,-12.6541 183.4411,-12.9886 181.3384,-6.3119"/>
</g>
<!-- T3&#45;&gt;P1 -->
<g id="edge6" class="edge">
<title>T3-&gt;P1</title>
<path fill="none" stroke="#000000" d="M246.7373,-190.7582C225.3797,-197.0128 204.0221,-197.2388 182.6645,-191.4362"/>
<polygon fill="#000000" stroke="#000000" points="183.4411,-188.0114 172.8516,-188.3459 181.3384,-194.6881 183.4411,-188.0114"/>
</g>
<!-- T3&#45;&gt;P2 -->
<g id="edge7" class="edge">
<title>T3-&gt;P2</title>
<path fill="none" stroke="#000000" d="M274,-167.1563C274,-157.8926 274,-144.7666 274,-132.6092"/>
<polygon fill="#000000" stroke="#000000" points="277.5001,-132.2962 274,-122.2962 270.5001,-132.2963 277.5001,-132.2962"/>
</g>
</g>
</svg>