<?xml version="1.0" encoding="UTF-8" standalone="no"?>
<!DOCTYPE svg PUBLIC "-//W3C//DTD SVG 1.1//EN" "http://www.w3.org/Graphics/SVG/1.1/DTD/svg11.dtd">
<!-- Generated by graphviz version 2.40.1 (20161225.0304)
 -->
<!-- Title: reachability_tree Pages: 1 -->
<svg width="407pt" height="254pt" viewBox="0.00 0.00 406.66 253.60" xmlns="http://www.w3.org/2000/svg" xmlns:xlink="http://www.w3.org/1999/xlink">
<g id="graph0" class="graph" transform="scale(1 1) rotate(0) translate(4 249.6)">
<title>reachability_tree</title>
<polygon fill="#ffffff" stroke="transparent" points="-4,4 -4,-249.6 402.6604,-249.6 402.6604,4 -4,4"/>
<!-- M0 -->
<g id="node1" class="node">
<title>M0</title>
<text text-anchor="middle" x="131.3302" y="-223.4" font-family="Times,serif" font-size="14.00" fill="#000000">M0 = (1, 0, 0)</text>
</g>
<!-- M1 -->
<g id="node2" class="node">
<title>M1</title>
<text text-anchor="middle" x="47.3302" y="-118.6" font-family="Times,serif" font-size="14.00" fill="#000000">M1 = (0, 0, 1)</text>
</g>
<!-- M0&#45;&gt;M1 -->
<g id="edge1" class="edge">
<title>M0-&gt;M1</title>
<path fill="none" stroke="#000000" d="M116.6985,-209.3452C103.2683,-192.5894 83.2252,-167.5832 68.1321,-148.7528"/>
<polygon fill="#000000" stroke="#000000" points="70.7795,-146.4595 61.7942,-140.8456 65.3174,-150.8375 70.7795,-146.4595"/>
<text text-anchor="middle" x="76.3862" y="-179.5027" font-family="Times,serif" font-size="14.00" fill="#000000">T1   </text>
</g>
<!-- M2 -->
<g id="node3" class="node">
<title>M2</title>
<text text-anchor="middle" x="250.3302" y="-118.6" font-family="Times,serif" font-size="14.00" fill="#000000">M2 = (1, 1, 0)</text>
</g>
<!-- M0&#45;&gt;M2 -->
<g id="edge2" class="edge">
<title>M0-&gt;M2</title>
<path fill="none" stroke="#000000" d="M151.787,-209.5842C171.1996,-192.4882 200.5394,-166.6493 222.159,-147.6096"/>
<polygon fill="#000000" stroke="#000000" points="224.5506,-150.1672 229.7421,-140.9314 219.9242,-144.9139 224.5506,-150.1672"/>
<text text-anchor="middle" x="216.1065" y="-179" font-family="Times,serif" font-size="14.00" fill="#000000">T3</text>
</g>
<!-- M3 -->
<g id="node4" class="node">
<title>M3</title>
<text text-anchor="middle" x="148.3302" y="-13.8" font-family="Times,serif" font-size="14.00" fill="#000000">M3 = (0, 1, 1)</text>
</g>
<!-- M2&#45;&gt;M3 -->
<g id="edge3" class="edge">
<title>M2-&gt;M3</title>
<path fill="none" stroke="#000000" d="M232.5632,-104.5452C216.1088,-87.6392 191.4797,-62.334 173.098,-43.4477"/>
<polygon fill="#000000" stroke="#000000" points="175.3765,-40.7706 165.8936,-36.0456 170.3602,-45.6529 175.3765,-40.7706"/>
<text text-anchor="middle" x="186.0831" y="-74.3731" font-family="Times,serif" font-size="14.00" fill="#000000">T1   </text>
</g>
<!-- M4 -->
<g id="node5" class="node">
<title>M4</title>
<text text-anchor="middle" x="351.3302" y="-13.8" font-family="Times,serif" font-size="14.00" fill="#000000">M4 = (1, 2, 0)</text>
</g>
<!-- M2&#45;&gt;M4 -->
<g id="edge4" class="edge">
<title>M2-&gt;M4</title>
<path fill="none" stroke="#000000" d="M267.9231,-104.5452C284.2161,-87.6392 308.6037,-62.334 326.8053,-43.4477"/>
<polygon fill="#000000" stroke="#000000" points="329.5197,-45.6748 333.9389,-36.0456 324.4794,-40.8172 329.5197,-45.6748"/>
<text text-anchor="middle" x="323.1065" y="-74.2" font-family="Times,serif" font-size="14.00" fill="#000000">T3</text>
</g>
</g>
</svg>