<?xml version="1.0" encoding="UTF-8" standalone="no"?>
<!DOCTYPE svg PUBLIC "-//W3C//DTD SVG 1.1//EN" "http://www.w3.org/Graphics/SVG/1.1/DTD/svg11.dtd">
<!-- Generated by graphviz version 2.40.1 (20161225.0304)
 -->
<!-- Title: readers_writers Pages: 1 -->
<svg width="562pt" height="303pt" viewBox="0.00 0.00 562.38 303.00" xmlns="http://www.w3.org/2000/svg" xmlns:xlink="http://www.w3.org/1999/xlink">
<g id="graph0" class="graph" transform="scale(1 1) rotate(0) translate(4 299)">
<title>readers_writers</title>
<polygon fill="#ffffff" stroke="transparent" points="-4,4 -4,-299 558.3777,-299 558.3777,4 -4,4"/>
<!-- P1 -->
<g id="node1" class="node">
<title>P1</title>
<ellipse fill="none" stroke="#000000" cx="205.0332" cy="-256.7" rx="21.5" ry="21.5"/>
<text text-anchor="middle" x="205.0332" y="-252.5" font-family="Times,serif" font-size="14.00" fill="#000000">k</text>
<text text-anchor="middle" x="176.1419" y="-282.4" font-family="Times,serif" font-size="14.00" fill="#000000">P1</text>
</g>
<!-- T1 -->
<g id="node5" class="node">
<title>T1</title>
<polygon fill="none" stroke="#000000" points="127.0332,-198.1008 73.0332,-198.1008 73.0332,-173.4992 127.0332,-173.4992 127.0332,-198.1008"/>
<text text-anchor="middle" x="100.0332" y="-181.6" font-family="Times,serif" font-size="14.00" fill="#000000">T1</text>
</g>
<!-- P1&#45;&gt;T1 -->
<g id="edge5" class="edge">
<title>P1-&gt;T1</title>
<path fill="none" stroke="#000000" d="M186.7436,-244.3502C170.2078,-233.1846 145.6522,-216.6037 126.8893,-203.9343"/>
<polygon fill="#000000" stroke="#000000" points="128.7117,-200.9417 118.4655,-198.2462 124.7945,-206.743 128.7117,-200.9417"/>
</g>
<!-- T2 -->
<g id="node6" class="node">
<title>T2</title>
<polygon fill="none" stroke="#000000" points="477.0332,-198.1008 423.0332,-198.1008 423.0332,-173.4992 477.0332,-173.4992 477.0332,-198.1008"/>
<text text-anchor="middle" x="450.0332" y="-181.6" font-family="Times,serif" font-size="14.00" fill="#000000">T2</text>
</g>
<!-- P1&#45;&gt;T2 -->
<g id="edge1" class="edge">
<title>P1-&gt;T2</title>
<path fill="none" stroke="#000000" d="M225.9218,-250.6551C267.4719,-238.631 360.9653,-211.5752 413.112,-196.4845"/>
<polygon fill="#000000" stroke="#000000" points="414.3296,-199.7759 422.9625,-193.6339 412.3836,-193.0518 414.3296,-199.7759"/>
</g>
<!-- P2 -->
<g id="node2" class="node">
<title>P2</title>
<ellipse fill="none" stroke="#000000" cx="100.0332" cy="-99.1" rx="21.5" ry="21.5"/>
<text text-anchor="middle" x="55.205" y="-141.6" font-family="Times,serif" font-size="14.00" fill="#000000">P2</text>
<text text-anchor="middle" x="55.205" y="-124.8" font-family="Times,serif" font-size="14.00" fill="#000000">Reading</text>
</g>
<!-- T3 -->
<g id="node7" class="node">
<title>T3</title>
<polygon fill="none" stroke="#000000" points="127.0332,-24.7008 73.0332,-24.7008 73.0332,-.0992 127.0332,-.0992 127.0332,-24.7008"/>
<text text-anchor="middle" x="100.0332" y="-8.2" font-family="Times,serif" font-size="14.00" fill="#000000">T3</text>
</g>
<!-- P2&#45;&gt;T3 -->
<g id="edge7" class="edge">
<title>P2-&gt;T3</title>
<path fill="none" stroke="#000000" d="M100.0332,-77.2219C100.0332,-64.3673 100.0332,-48.1427 100.0332,-35.1413"/>
<polygon fill="#000000" stroke="#000000" points="103.5333,-35.123 100.0332,-25.123 96.5333,-35.1231 103.5333,-35.123"/>
</g>
<!-- P3 -->
<g id="node3" class="node">
<title>P3</title>
<ellipse fill="none" stroke="#000000" cx="275.0332" cy="-99.1" rx="21.5" ry="21.5"/>
<text text-anchor="middle" x="275.0332" y="-94.9" font-family="Times,serif" font-size="14.00" fill="#000000">k</text>
<text text-anchor="middle" x="246.1419" y="-124.8" font-family="Times,serif" font-size="14.00" fill="#000000">P3</text>
</g>
<!-- P3&#45;&gt;T1 -->
<g id="edge9" class="edge">
<title>P3-&gt;T1</title>
<path fill="none" stroke="#000000" d="M255.6772,-108.6895C226.4321,-123.1784 170.5574,-150.8603 134.3182,-168.8142"/>
<polygon fill="#000000" stroke="#000000" points="132.5132,-165.8024 125.1064,-173.378 135.6208,-172.0748 132.5132,-165.8024"/>
</g>
<!-- P3&#45;&gt;T2 -->
<g id="edge10" class="edge">
<title>P3-&gt;T2</title>
<path fill="none" stroke="#000000" stroke-width="3" d="M294.3891,-108.6895C323.6343,-123.1784 379.509,-150.8603 415.7482,-168.8142"/>
<polygon fill="#000000" stroke="#000000" stroke-width="3" points="414.4456,-172.0748 424.96,-173.378 417.5531,-165.8024 414.4456,-172.0748"/>
<text text-anchor="middle" x="392.5332" y="-142.8" font-family="Times,serif" font-size="14.00" fill="#000000">k</text>
</g>
<!-- P4 -->
<g id="node4" class="node">
<title>P4</title>
<ellipse fill="none" stroke="#000000" cx="450.0332" cy="-99.1" rx="21.5" ry="21.5"/>
<text text-anchor="middle" x="406.7597" y="-98.6" font-family="Times,serif" font-size="14.00" fill="#000000">P4</text>
<text text-anchor="middle" x="406.7597" y="-81.8" font-family="Times,serif" font-size="14.00" fill="#000000">Writing</text>
</g>
<!-- T4 -->
<g id="node8" class="node">
<title>T4</title>
<polygon fill="none" stroke="#000000" points="477.0332,-24.7008 423.0332,-24.7008 423.0332,-.0992 477.0332,-.0992 477.0332,-24.7008"/>
<text text-anchor="middle" x="450.0332" y="-8.2" font-family="Times,serif" font-size="14.00" fill="#000000">T4</text>
</g>
<!-- P4&#45;&gt;T4 -->
<g id="edge3" class="edge">
<title>P4-&gt;T4</title>
<path fill="none" stroke="#000000" d="M450.0332,-77.2219C450.0332,-64.3673 450.0332,-48.1427 450.0332,-35.1413"/>
<polygon fill="#000000" stroke="#000000" points="453.5333,-35.123 450.0332,-25.123 446.5333,-35.1231 453.5333,-35.123"/>
</g>
<!-- T1&#45;&gt;P2 -->
<g id="edge6" class="edge">
<title>T1-&gt;P2</title>
<path fill="none" stroke="#000000" d="M100.0332,-173.378C100.0332,-162.3761 100.0332,-145.8285 100.0332,-131.1424"/>
<polygon fill="#000000" stroke="#000000" points="103.5333,-130.8836 100.0332,-120.8836 96.5333,-130.8837 103.5333,-130.8836"/>
</g>
<!-- T2&#45;&gt;P4 -->
<g id="edge2" class="edge">
<title>T2-&gt;P4</title>
<path fill="none" stroke="#000000" d="M450.0332,-173.378C450.0332,-162.3761 450.0332,-145.8285 450.0332,-131.1424"/>
<polygon fill="#000000" stroke="#000000" points="453.5333,-130.8836 450.0332,-120.8836 446.5333,-130.8837 453.5333,-130.8836"/>
</g>
<!-- T3&#45;&gt;P1 -->
<g id="edge8" class="edge">
<title>T3-&gt;P1</title>
<path fill="none" stroke="#000000" d="M77.2905,-24.8665C59.3325,-36.081 35.4617,-54.3545 24.0332,-77.6 -18.4244,-163.9584 6.185,-180.6904 19.0332,-198.2 37.5039,-223.372 125.9299,-242.6419 173.9061,-251.4458"/>
<polygon fill="#000000" stroke="#000000" points="173.3095,-254.8945 183.77,-253.2129 174.5439,-248.0042 173.3095,-254.8945"/>
</g>
<!-- T3&#45;&gt;P3 -->
<g id="edge11" class="edge">
<title>T3-&gt;P3</title>
<path fill="none" stroke="#000000" d="M125.1501,-24.8436C157.2293,-40.7366 212.6159,-68.1767 246.3295,-84.8794"/>
<polygon fill="#000000" stroke="#000000" points="245.1221,-88.1871 255.6365,-89.4903 248.2297,-81.9147 245.1221,-88.1871"/>
</g>
<!-- T4&#45;&gt;P1 -->
<g id="edge4" class="edge">
<title>T4-&gt;P1</title>
<path fill="none" stroke="#000000" d="M477.2219,-18.9121C498.4949,-24.6223 525.5296,-33.4527 532.0332,-42.8 572.2821,-100.6474 548.8385,-177.4134 531.0332,-198.2 493.1513,-242.4249 311.1525,-253.289 236.7903,-255.8979"/>
<polygon fill="#000000" stroke="#000000" points="236.5117,-252.405 226.6298,-256.2259 236.7376,-259.4013 236.5117,-252.405"/>
</g>
<!-- T4&#45;&gt;P3 -->
<g id="edge12" class="edge">
<title>T4-&gt;P3</title>
<path fill="none" stroke="#000000" stroke-width="3" d="M424.9163,-24.8436C392.8371,-40.7366 337.4505,-68.1767 303.7369,-84.8794"/>
<polygon fill="#000000" stroke="#000000" stroke-width="3" points="301.8367,-81.9147 294.4299,-89.4903 304.9443,-88.1871 301.8367,-81.9147"/>
<text text-anchor="middle" x="392.5332" y="-47" font-family="Times,serif" font-size="14.00" fill="#000000">k</text>
</g>
</g>
</svg>