<?xml version="1.0" encoding="UTF-8" standalone="no"?>
<!DOCTYPE svg PUBLIC "-//W3C//DTD SVG 1.1//EN" "http://www.w3.org/Graphics/SVG/1.1/DTD/svg11.dtd">
<!-- Generated by graphviz version 2.40.1 (20161225.0304)
 -->
<!-- Title: repeated_function_call Pages: 1 -->
<svg width="481pt" height="663pt" viewBox="0.00 0.00 480.54 663.40" xmlns="http://www.w3.org/2000/svg" xmlns:xlink="http://www.w3.org/1999/xlink">
<g id="graph0" class="graph" transform="scale(1 1) rotate(0) translate(4 659.4)">
<title>repeated_function_call</title>
<polygon fill="#ffffff" stroke="transparent" points="-4,4 -4,-659.4 476.5449,-659.4 476.5449,4 -4,4"/>
<!-- PROGRAM_START -->
<g id="node1" class="node">
<title>PROGRAM_START</title>
<ellipse fill="none" stroke="#000000" cx="142.0512" cy="-617.1" rx="21.5" ry="21.5"/>
<text text-anchor="middle" x="142.0512" y="-612.9" font-family="Times,serif" font-size="14.00" fill="#000000">•</text>
<text text-anchor="middle" x="60.2756" y="-642.8" font-family="Times,serif" font-size="14.00" fill="#000000">PROGRAM_START</text>
</g>
<!-- CALL_main -->
<g id="node8" class="node">
<title>CALL_main</title>
<polygon fill="none" stroke="#000000" points="185.5966,-559.5008 98.5058,-559.5008 98.5058,-534.8992 185.5966,-534.8992 185.5966,-559.5008"/>
<text text-anchor="middle" x="142.0512" y="-543" font-family="Times,serif" font-size="14.00" fill="#000000">CALL_main</text>
</g>
<!-- PROGRAM_START&#45;&gt;CALL_main -->
<g id="edge1" class="edge">
<title>PROGRAM_START-&gt;CALL_main</title>
<path fill="none" stroke="#000000" d="M142.0512,-595.3664C142.0512,-587.2295 142.0512,-577.9719 142.0512,-569.7618"/>
<polygon fill="#000000" stroke="#000000" points="145.5513,-569.7547 142.0512,-559.7547 138.5513,-569.7548 145.5513,-569.7547"/>
</g>
<!-- PROGRAM_END -->
<g id="node2" class="node">
<title>PROGRAM_END</title>
<ellipse fill="none" stroke="#000000" cx="144.0512" cy="-21.5" rx="21.5" ry="21.5"/>
<text text-anchor="middle" x="70.0582" y="-47.2" font-family="Times,serif" font-size="14.00" fill="#000000">PROGRAM_END</text>
</g>
<!-- main_START -->
<g id="node3" class="node">
<title>main_START</title>
<ellipse fill="none" stroke="#000000" cx="142.0512" cy="-477.3" rx="21.5" ry="21.5"/>
<text text-anchor="middle" x="80.8878" y="-503" font-family="Times,serif" font-size="14.00" fill="#000000">main_START</text>
</g>
<!-- enter_loop -->
<g id="node9" class="node">
<title>enter_loop</title>
<polygon fill="none" stroke="#000000" points="179.9223,-410.6008 104.1801,-410.6008 104.1801,-385.9992 179.9223,-385.9992 179.9223,-410.6008"/>
<text text-anchor="middle" x="142.0512" y="-394.1" font-family="Times,serif" font-size="14.00" fill="#000000">enter_loop</text>
</g>
<!-- main_START&#45;&gt;enter_loop -->
<g id="edge3" class="edge">
<title>main_START-&gt;enter_loop</title>
<path fill="none" stroke="#000000" d="M142.0512,-455.7129C142.0512,-444.8857 142.0512,-431.7804 142.0512,-420.8259"/>
<polygon fill="#000000" stroke="#000000" points="145.5513,-420.7524 142.0512,-410.7524 138.5513,-420.7525 145.5513,-420.7524"/>
</g>
<!-- check_condition -->
<g id="node4" class="node">
<title>check_condition</title>
<ellipse fill="none" stroke="#000000" cx="144.0512" cy="-319.3" rx="21.5" ry="21.5"/>
<text text-anchor="middle" x="76.2861" y="-345" font-family="Times,serif" font-size="14.00" fill="#000000">check_condition</text>
</g>
<!-- CALL_simple_function -->
<g id="node10" class="node">
<title>CALL_simple_function</title>
<polygon fill="none" stroke="#000000" points="440.0877,-489.6008 290.0147,-489.6008 290.0147,-464.9992 440.0877,-464.9992 440.0877,-489.6008"/>
<text text-anchor="middle" x="365.0512" y="-473.1" font-family="Times,serif" font-size="14.00" fill="#000000">CALL_simple_function</text>
</g>
<!-- check_condition&#45;&gt;CALL_simple_function -->
<g id="edge5" class="edge">
<title>check_condition-&gt;CALL_simple_function</title>
<path fill="none" stroke="#000000" d="M161.6179,-331.859C200.5457,-359.6897 294.1997,-426.646 339.5673,-459.0807"/>
<polygon fill="#000000" stroke="#000000" points="337.5393,-461.9333 347.7097,-464.902 341.6104,-456.2389 337.5393,-461.9333"/>
</g>
<!-- exit_loop -->
<g id="node13" class="node">
<title>exit_loop</title>
<polygon fill="none" stroke="#000000" points="178.4377,-252.6008 109.6647,-252.6008 109.6647,-227.9992 178.4377,-227.9992 178.4377,-252.6008"/>
<text text-anchor="middle" x="144.0512" y="-236.1" font-family="Times,serif" font-size="14.00" fill="#000000">exit_loop</text>
</g>
<!-- check_condition&#45;&gt;exit_loop -->
<g id="edge11" class="edge">
<title>check_condition-&gt;exit_loop</title>
<path fill="none" stroke="#000000" d="M144.0512,-297.7129C144.0512,-286.8857 144.0512,-273.7804 144.0512,-262.8259"/>
<polygon fill="#000000" stroke="#000000" points="147.5513,-262.7524 144.0512,-252.7524 140.5513,-262.7525 147.5513,-262.7524"/>
</g>
<!-- main_END -->
<g id="node5" class="node">
<title>main_END</title>
<ellipse fill="none" stroke="#000000" cx="144.0512" cy="-161.3" rx="21.5" ry="21.5"/>
<text text-anchor="middle" x="90.6704" y="-187" font-family="Times,serif" font-size="14.00" fill="#000000">main_END</text>
</g>
<!-- RETURN_main -->
<g id="node14" class="node">
<title>RETURN_main</title>
<polygon fill="none" stroke="#000000" points="197.5386,-103.7008 90.5638,-103.7008 90.5638,-79.0992 197.5386,-79.0992 197.5386,-103.7008"/>
<text text-anchor="middle" x="144.0512" y="-87.2" font-family="Times,serif" font-size="14.00" fill="#000000">RETURN_main</text>
</g>
<!-- main_END&#45;&gt;RETURN_main -->
<g id="edge13" class="edge">
<title>main_END-&gt;RETURN_main</title>
<path fill="none" stroke="#000000" d="M144.0512,-139.5664C144.0512,-131.4295 144.0512,-122.1719 144.0512,-113.9618"/>
<polygon fill="#000000" stroke="#000000" points="147.5513,-113.9547 144.0512,-103.9547 140.5513,-113.9548 147.5513,-113.9547"/>
</g>
<!-- simple_function_START -->
<g id="node6" class="node">
<title>simple_function_START</title>
<ellipse fill="none" stroke="#000000" cx="420.0512" cy="-398.3" rx="21.5" ry="21.5"/>
<text text-anchor="middle" x="327.392" y="-424" font-family="Times,serif" font-size="14.00" fill="#000000">simple_function_START</text>
</g>
<!-- simple_function -->
<g id="node11" class="node">
<title>simple_function</title>
<polygon fill="none" stroke="#000000" points="472.5386,-331.6008 365.5638,-331.6008 365.5638,-306.9992 472.5386,-306.9992 472.5386,-331.6008"/>
<text text-anchor="middle" x="419.0512" y="-315.1" font-family="Times,serif" font-size="14.00" fill="#000000">simple_function</text>
</g>
<!-- simple_function_START&#45;&gt;simple_function -->
<g id="edge7" class="edge">
<title>simple_function_START-&gt;simple_function</title>
<path fill="none" stroke="#000000" d="M419.7779,-376.7129C419.6409,-365.8857 419.475,-352.7804 419.3363,-341.8259"/>
<polygon fill="#000000" stroke="#000000" points="422.8352,-341.7073 419.2088,-331.7524 415.8358,-341.7959 422.8352,-341.7073"/>
</g>
<!-- simple_function_END -->
<g id="node7" class="node">
<title>simple_function_END</title>
<ellipse fill="none" stroke="#000000" cx="419.0512" cy="-240.3" rx="21.5" ry="21.5"/>
<text text-anchor="middle" x="334.1746" y="-266" font-family="Times,serif" font-size="14.00" fill="#000000">simple_function_END</text>
</g>
<!-- RETURN_simple_function -->
<g id="node12" class="node">
<title>RETURN_simple_function</title>
<polygon fill="none" stroke="#000000" points="455.0302,-173.6008 285.0722,-173.6008 285.0722,-148.9992 455.0302,-148.9992 455.0302,-173.6008"/>
<text text-anchor="middle" x="370.0512" y="-157.1" font-family="Times,serif" font-size="14.00" fill="#000000">RETURN_simple_function</text>
</g>
<!-- simple_function_END&#45;&gt;RETURN_simple_function -->
<g id="edge9" class="edge">
<title>simple_function_END-&gt;RETURN_simple_function</title>
<path fill="none" stroke="#000000" d="M407.6865,-221.9772C400.3871,-210.2088 390.8791,-194.8797 383.2463,-182.5737"/>
<polygon fill="#000000" stroke="#000000" points="386.0878,-180.5147 377.8425,-173.8614 380.1391,-184.2044 386.0878,-180.5147"/>
</g>
<!-- CALL_main&#45;&gt;main_START -->
<g id="edge2" class="edge">
<title>CALL_main-&gt;main_START</title>
<path fill="none" stroke="#000000" d="M142.0512,-534.7033C142.0512,-527.5134 142.0512,-518.125 142.0512,-509.0299"/>
<polygon fill="#000000" stroke="#000000" points="145.5513,-509.0187 142.0512,-499.0187 138.5513,-509.0187 145.5513,-509.0187"/>
</g>
<!-- enter_loop&#45;&gt;check_condition -->
<g id="edge4" class="edge">
<title>enter_loop-&gt;check_condition</title>
<path fill="none" stroke="#000000" d="M142.3637,-385.9563C142.5982,-376.6926 142.9305,-363.5666 143.2383,-351.4092"/>
<polygon fill="#000000" stroke="#000000" points="146.7451,-351.1816 143.4994,-341.0962 139.7473,-351.0044 146.7451,-351.1816"/>
</g>
<!-- CALL_simple_function&#45;&gt;simple_function_START -->
<g id="edge6" class="edge">
<title>CALL_simple_function-&gt;simple_function_START</title>
<path fill="none" stroke="#000000" d="M373.645,-464.9563C381.1296,-454.2056 392.2357,-438.2531 401.7065,-424.6496"/>
<polygon fill="#000000" stroke="#000000" points="404.7983,-426.3344 407.6395,-416.1276 399.0534,-422.3348 404.7983,-426.3344"/>
</g>
<!-- simple_function&#45;&gt;simple_function_END -->
<g id="edge8" class="edge">
<title>simple_function-&gt;simple_function_END</title>
<path fill="none" stroke="#000000" d="M419.0512,-306.9563C419.0512,-297.6926 419.0512,-284.5666 419.0512,-272.4092"/>
<polygon fill="#000000" stroke="#000000" points="422.5513,-272.0962 419.0512,-262.0962 415.5513,-272.0963 422.5513,-272.0962"/>
</g>
<!-- RETURN_simple_function&#45;&gt;check_condition -->
<g id="edge10" class="edge">
<title>RETURN_simple_function-&gt;check_condition</title>
<path fill="none" stroke="#000000" d="M352.3997,-173.6404C312.7886,-201.3331 216.6581,-268.5394 170.1338,-301.0652"/>
<polygon fill="#000000" stroke="#000000" points="167.9754,-298.3037 161.785,-306.902 171.9862,-304.0407 167.9754,-298.3037"/>
</g>
<!-- exit_loop&#45;&gt;main_END -->
<g id="edge12" class="edge">
<title>exit_loop-&gt;main_END</title>
<path fill="none" stroke="#000000" d="M144.0512,-227.9563C144.0512,-218.6926 144.0512,-205.5666 144.0512,-193.4092"/>
<polygon fill="#000000" stroke="#000000" points="147.5513,-193.0962 144.0512,-183.0962 140.5513,-193.0963 147.5513,-193.0962"/>
</g>
<!-- RETURN_main&#45;&gt;PROGRAM_END -->
<g id="edge14" class="edge">
<title>RETURN_main-&gt;PROGRAM_END</title>
<path fill="none" stroke="#000000" d="M144.0512,-78.9033C144.0512,-71.7134 144.0512,-62.325 144.0512,-53.2299"/>
<polygon fill="#000000" stroke="#000000" points="147.5513,-53.2187 144.0512,-43.2187 140.5513,-53.2187 147.5513,-53.2187"/>
</g>
</g>
</svg>