<?xml version="1.0" encoding="UTF-8" standalone="no"?>
<!DOCTYPE svg PUBLIC "-//W3C//DTD SVG 1.1//EN" "http://www.w3.org/Graphics/SVG/1.1/DTD/svg11.dtd">
<!-- Generated by graphviz version 2.40.1 (20161225.0304)
 -->
<!-- Title: function Pages: 1 -->
<svg width="219pt" height="208pt" viewBox="0.00 0.00 219.07 207.60" xmlns="http://www.w3.org/2000/svg" xmlns:xlink="http://www.w3.org/1999/xlink">
<g id="graph0" class="graph" transform="scale(1 1) rotate(0) translate(4 203.6)">
<title>function</title>
<polygon fill="#ffffff" stroke="transparent" points="-4,4 -4,-203.6 215.0744,-203.6 215.0744,4 -4,4"/>
<!-- FUNCTION_START -->
<g id="node1" class="node">
<title>FUNCTION_START</title>
<ellipse fill="none" stroke="#000000" cx="143.5898" cy="-161.3" rx="21.5" ry="21.5"/>
<text text-anchor="middle" x="143.5898" y="-157.1" font-family="Times,serif" font-size="14.00" fill="#000000">•</text>
<text text-anchor="middle" x="61.0449" y="-187" font-family="Times,serif" font-size="14.00" fill="#000000">FUNCTION_START</text>
</g>
<!-- FUNCTION_NAME -->
<g id="node3" class="node">
<title>FUNCTION_NAME</title>
<polygon fill="none" stroke="#000000" points="211.059,-103.7008 76.1206,-103.7008 76.1206,-79.0992 211.059,-79.0992 211.059,-103.7008"/>
<text text-anchor="middle" x="143.5898" y="-87.2" font-family="Times,serif" font-size="14.00" fill="#000000">FUNCTION_NAME</text>
</g>
<!-- FUNCTION_START&#45;&gt;FUNCTION_NAME -->
<g id="edge1" class="edge">
<title>FUNCTION_START-&gt;FUNCTION_NAME</title>
<path fill="none" stroke="#000000" d="M143.5898,-139.5664C143.5898,-131.4295 143.5898,-122.1719 143.5898,-113.9618"/>
<polygon fill="#000000" stroke="#000000" points="147.0899,-113.9547 143.5898,-103.9547 140.0899,-113.9548 147.0899,-113.9547"/>
</g>
<!-- FUNCTION_END -->
<g id="node2" class="node">
<title>FUNCTION_END</title>
<ellipse fill="none" stroke="#000000" cx="143.5898" cy="-21.5" rx="21.5" ry="21.5"/>
<text text-anchor="middle" x="68.8275" y="-47.2" font-family="Times,serif" font-size="14.00" fill="#000000">FUNCTION_END</text>
</g>
<!-- FUNCTION_NAME&#45;&gt;FUNCTION_END -->
<g id="edge2" class="edge">
<title>FUNCTION_NAME-&gt;FUNCTION_END</title>
<path fill="none" stroke="#000000" d="M143.5898,-78.9033C143.5898,-71.7134 143.5898,-62.325 143.5898,-53.2299"/>
<polygon fill="#000000" stroke="#000000" points="147.0899,-53.2187 143.5898,-43.2187 140.0899,-53.2187 147.0899,-53.2187"/>
</g>
</g>
</svg>