<?xml version="1.0" encoding="UTF-8" standalone="no"?>
<!DOCTYPE svg PUBLIC "-//W3C//DTD SVG 1.1//EN" "http://www.w3.org/Graphics/SVG/1.1/DTD/svg11.dtd">
<!-- Generated by graphviz version 2.40.1 (20161225.0304)
 -->
<!-- Title: state_machine Pages: 1 -->
<svg width="538pt" height="241pt" viewBox="0.00 0.00 538.09 240.80" xmlns="http://www.w3.org/2000/svg" xmlns:xlink="http://www.w3.org/1999/xlink">
<g id="graph0" class="graph" transform="scale(1 1) rotate(0) translate(4 236.8)">
<title>state_machine</title>
<polygon fill="#ffffff" stroke="transparent" points="-4,4 -4,-236.8 534.0928,-236.8 534.0928,4 -4,4"/>
<!-- P1 -->
<g id="node1" class="node">
<title>P1</title>
<ellipse fill="none" stroke="#000000" cx="43.6606" cy="-96.4" rx="21.5" ry="21.5"/>
<text text-anchor="middle" x="43.6606" y="-92.2" font-family="Times,serif" font-size="14.00" fill="#000000">•</text>
<text text-anchor="middle" x="11.0803" y="-62.3" font-family="Times,serif" font-size="14.00" fill="#000000">0 €</text>
</g>
<!-- T1 -->
<g id="node6" class="node">
<title>T1</title>
<polygon fill="none" stroke="#000000" points="174.4595,-160.7008 101.3933,-160.7008 101.3933,-136.0992 174.4595,-136.0992 174.4595,-160.7008"/>
<text text-anchor="middle" x="137.9264" y="-144.2" font-family="Times,serif" font-size="14.00" fill="#000000">Insert 1 €</text>
</g>
<!-- P1&#45;&gt;T1 -->
<g id="edge1" class="edge">
<title>P1-&gt;T1</title>
<path fill="none" stroke="#000000" d="M62.7367,-106.923C75.27,-113.8368 91.9649,-123.0462 106.4393,-131.0307"/>
<polygon fill="#000000" stroke="#000000" points="105.1176,-134.2988 115.5643,-136.0644 108.4988,-128.1695 105.1176,-134.2988"/>
</g>
<!-- T2 -->
<g id="node7" class="node">
<title>T2</title>
<polygon fill="none" stroke="#000000" points="174.4595,-87.7008 101.3933,-87.7008 101.3933,-63.0992 174.4595,-63.0992 174.4595,-87.7008"/>
<text text-anchor="middle" x="137.9264" y="-71.2" font-family="Times,serif" font-size="14.00" fill="#000000">Insert 2 €</text>
</g>
<!-- P1&#45;&gt;T2 -->
<g id="edge3" class="edge">
<title>P1-&gt;T2</title>
<path fill="none" stroke="#000000" d="M65.051,-91.6348C72.8698,-89.8929 82.052,-87.8474 91.2131,-85.8065"/>
<polygon fill="#000000" stroke="#000000" points="92.0803,-89.1992 101.08,-83.6084 90.5582,-82.3667 92.0803,-89.1992"/>
</g>
<!-- P2 -->
<g id="node2" class="node">
<title>P2</title>
<ellipse fill="none" stroke="#000000" cx="260.8609" cy="-168.4" rx="21.5" ry="21.5"/>
<text text-anchor="middle" x="228.2806" y="-134.3" font-family="Times,serif" font-size="14.00" fill="#000000">1 €</text>
</g>
<!-- T3 -->
<g id="node8" class="node">
<title>T3</title>
<polygon fill="none" stroke="#000000" points="297.394,-128.7008 224.3278,-128.7008 224.3278,-104.0992 297.394,-104.0992 297.394,-128.7008"/>
<text text-anchor="middle" x="260.8609" y="-112.2" font-family="Times,serif" font-size="14.00" fill="#000000">Insert 1 €</text>
</g>
<!-- P2&#45;&gt;T3 -->
<g id="edge5" class="edge">
<title>P2-&gt;T3</title>
<path fill="none" stroke="#000000" d="M260.8609,-146.8497C260.8609,-144.2457 260.8609,-141.6417 260.8609,-139.0377"/>
<polygon fill="#000000" stroke="#000000" points="264.361,-138.9937 260.8609,-128.9938 257.361,-138.9938 264.361,-138.9937"/>
</g>
<!-- T4 -->
<g id="node9" class="node">
<title>T4</title>
<polygon fill="none" stroke="#000000" points="420.3285,-180.7008 347.2623,-180.7008 347.2623,-156.0992 420.3285,-156.0992 420.3285,-180.7008"/>
<text text-anchor="middle" x="383.7954" y="-164.2" font-family="Times,serif" font-size="14.00" fill="#000000">Insert 2 €</text>
</g>
<!-- P2&#45;&gt;T4 -->
<g id="edge7" class="edge">
<title>P2-&gt;T4</title>
<path fill="none" stroke="#000000" d="M282.5561,-168.4C297.5613,-168.4 318.108,-168.4 336.7715,-168.4"/>
<polygon fill="#000000" stroke="#000000" points="336.8993,-171.9001 346.8993,-168.4 336.8992,-164.9001 336.8993,-171.9001"/>
</g>
<!-- P3 -->
<g id="node3" class="node">
<title>P3</title>
<ellipse fill="none" stroke="#000000" cx="260.8609" cy="-64.4" rx="21.5" ry="21.5"/>
<text text-anchor="middle" x="228.2806" y="-30.3" font-family="Times,serif" font-size="14.00" fill="#000000">2 €</text>
</g>
<!-- T5 -->
<g id="node10" class="node">
<title>T5</title>
<polygon fill="none" stroke="#000000" points="420.3285,-128.7008 347.2623,-128.7008 347.2623,-104.0992 420.3285,-104.0992 420.3285,-128.7008"/>
<text text-anchor="middle" x="383.7954" y="-112.2" font-family="Times,serif" font-size="14.00" fill="#000000">Insert 1 €</text>
</g>
<!-- P3&#45;&gt;T5 -->
<g id="edge9" class="edge">
<title>P3-&gt;T5</title>
<path fill="none" stroke="#000000" d="M280.8861,-72.8704C298.2323,-80.2077 323.8206,-91.0313 345.1414,-100.0498"/>
<polygon fill="#000000" stroke="#000000" points="344.0187,-103.3751 354.5922,-104.0474 346.7458,-96.9281 344.0187,-103.3751"/>
</g>
<!-- T6 -->
<g id="node11" class="node">
<title>T6</title>
<polygon fill="none" stroke="#000000" points="420.3285,-76.7008 347.2623,-76.7008 347.2623,-52.0992 420.3285,-52.0992 420.3285,-76.7008"/>
<text text-anchor="middle" x="383.7954" y="-60.2" font-family="Times,serif" font-size="14.00" fill="#000000">Insert 2 €</text>
</g>
<!-- P3&#45;&gt;T6 -->
<g id="edge11" class="edge">
<title>P3-&gt;T6</title>
<path fill="none" stroke="#000000" d="M282.5561,-64.4C297.5613,-64.4 318.108,-64.4 336.7715,-64.4"/>
<polygon fill="#000000" stroke="#000000" points="336.8993,-67.9001 346.8993,-64.4 336.8992,-60.9001 336.8993,-67.9001"/>
</g>
<!-- P4 -->
<g id="node4" class="node">
<title>P4</title>
<ellipse fill="none" stroke="#000000" cx="493.327" cy="-168.4" rx="21.5" ry="21.5"/>
<text text-anchor="middle" x="460.7467" y="-134.3" font-family="Times,serif" font-size="14.00" fill="#000000">3 €</text>
</g>
<!-- T7 -->
<g id="node12" class="node">
<title>T7</title>
<polygon fill="none" stroke="#000000" points="529.8601,-128.7008 456.7939,-128.7008 456.7939,-104.0992 529.8601,-104.0992 529.8601,-128.7008"/>
<text text-anchor="middle" x="493.327" y="-112.2" font-family="Times,serif" font-size="14.00" fill="#000000">Insert 1 €</text>
</g>
<!-- P4&#45;&gt;T7 -->
<g id="edge13" class="edge">
<title>P4-&gt;T7</title>
<path fill="none" stroke="#000000" d="M493.327,-146.8497C493.327,-144.2457 493.327,-141.6417 493.327,-139.0377"/>
<polygon fill="#000000" stroke="#000000" points="496.8271,-138.9937 493.327,-128.9938 489.8271,-138.9938 496.8271,-138.9937"/>
</g>
<!-- T8 -->
<g id="node13" class="node">
<title>T8</title>
<polygon fill="none" stroke="#000000" points="311.1989,-232.7008 210.5229,-232.7008 210.5229,-208.0992 311.1989,-208.0992 311.1989,-232.7008"/>
<text text-anchor="middle" x="260.8609" y="-216.2" font-family="Times,serif" font-size="14.00" fill="#000000">Get 3 € coffee</text>
</g>
<!-- P4&#45;&gt;T8 -->
<g id="edge15" class="edge">
<title>P4-&gt;T8</title>
<path fill="none" stroke="#000000" d="M472.7568,-174.8682C458.255,-179.2972 438.3296,-185.1205 420.5612,-189.4 387.8743,-197.2726 351.054,-204.5268 321.0126,-210.0354"/>
<polygon fill="#000000" stroke="#000000" points="320.3142,-206.6049 311.1003,-211.835 321.5647,-213.4923 320.3142,-206.6049"/>
</g>
<!-- P5 -->
<g id="node5" class="node">
<title>P5</title>
<ellipse fill="none" stroke="#000000" cx="493.327" cy="-64.4" rx="21.5" ry="21.5"/>
<text text-anchor="middle" x="460.7467" y="-30.3" font-family="Times,serif" font-size="14.00" fill="#000000">4 €</text>
</g>
<!-- T9 -->
<g id="node14" class="node">
<title>T9</title>
<polygon fill="none" stroke="#000000" points="311.1989,-24.7008 210.5229,-24.7008 210.5229,-.0992 311.1989,-.0992 311.1989,-24.7008"/>
<text text-anchor="middle" x="260.8609" y="-8.2" font-family="Times,serif" font-size="14.00" fill="#000000">Get 4 € coffee</text>
</g>
<!-- P5&#45;&gt;T9 -->
<g id="edge17" class="edge">
<title>P5-&gt;T9</title>
<path fill="none" stroke="#000000" d="M472.7568,-57.9318C458.255,-53.5028 438.3296,-47.6795 420.5612,-43.4 387.8743,-35.5274 351.054,-28.2732 321.0126,-22.7646"/>
<polygon fill="#000000" stroke="#000000" points="321.5647,-19.3077 311.1003,-20.965 320.3142,-26.1951 321.5647,-19.3077"/>
</g>
<!-- T1&#45;&gt;P2 -->
<g id="edge2" class="edge">
<title>T1-&gt;P2</title>
<path fill="none" stroke="#000000" d="M174.478,-154.3465C192.0616,-157.2072 212.9197,-160.6005 229.7345,-163.3361"/>
<polygon fill="#000000" stroke="#000000" points="229.1839,-166.7925 239.6162,-164.9437 230.308,-159.8833 229.1839,-166.7925"/>
</g>
<!-- T2&#45;&gt;P3 -->
<g id="edge4" class="edge">
<title>T2-&gt;P3</title>
<path fill="none" stroke="#000000" d="M174.478,-72.1294C191.7796,-70.5813 212.2515,-68.7495 228.9224,-67.2578"/>
<polygon fill="#000000" stroke="#000000" points="229.6089,-70.7105 239.2571,-66.3331 228.985,-63.7383 229.6089,-70.7105"/>
</g>
<!-- T3&#45;&gt;P3 -->
<g id="edge6" class="edge">
<title>T3-&gt;P3</title>
<path fill="none" stroke="#000000" d="M260.8609,-104.0221C260.8609,-101.3838 260.8609,-98.7456 260.8609,-96.1073"/>
<polygon fill="#000000" stroke="#000000" points="264.361,-95.9312 260.8609,-85.9312 257.361,-95.9313 264.361,-95.9312"/>
</g>
<!-- T4&#45;&gt;P4 -->
<g id="edge8" class="edge">
<title>T4-&gt;P4</title>
<path fill="none" stroke="#000000" d="M420.5725,-168.4C433.8762,-168.4 448.7731,-168.4 461.6055,-168.4"/>
<polygon fill="#000000" stroke="#000000" points="461.8188,-171.9001 471.8188,-168.4 461.8188,-164.9001 461.8188,-171.9001"/>
</g>
<!-- T5&#45;&gt;P4 -->
<g id="edge10" class="edge">
<title>T5-&gt;P4</title>
<path fill="none" stroke="#000000" d="M409.7529,-128.7233C426.1465,-136.5061 447.3547,-146.5747 464.3043,-154.6215"/>
<polygon fill="#000000" stroke="#000000" points="463.1885,-157.9661 473.7232,-159.0931 466.1906,-151.6426 463.1885,-157.9661"/>
</g>
<!-- T6&#45;&gt;P5 -->
<g id="edge12" class="edge">
<title>T6-&gt;P5</title>
<path fill="none" stroke="#000000" d="M420.5725,-64.4C433.8762,-64.4 448.7731,-64.4 461.6055,-64.4"/>
<polygon fill="#000000" stroke="#000000" points="461.8188,-67.9001 471.8188,-64.4 461.8188,-60.9001 461.8188,-67.9001"/>
</g>
<!-- T7&#45;&gt;P5 -->
<g id="edge14" class="edge">
<title>T7-&gt;P5</title>
<path fill="none" stroke="#000000" d="M493.327,-104.0221C493.327,-101.3838 493.327,-98.7456 493.327,-96.1073"/>
<polygon fill="#000000" stroke="#000000" points="496.8271,-95.9312 493.327,-85.9312 489.8271,-95.9313 496.8271,-95.9312"/>
</g>
<!-- T8&#45;&gt;P1 -->
<g id="edge16" class="edge">
<title>T8-&gt;P1</title>
<path fill="none" stroke="#000000" d="M210.6585,-212.3154C177.3593,-205.1319 133.9262,-192.1236 101.1606,-169.4 84.2053,-157.6411 69.8396,-139.4107 59.7081,-124.1103"/>
<polygon fill="#000000" stroke="#000000" points="62.5615,-122.0747 54.2446,-115.5112 56.6532,-125.8286 62.5615,-122.0747"/>
</g>
<!-- T9&#45;&gt;P1 -->
<g id="edge18" class="edge">
<title>T9-&gt;P1</title>
<path fill="none" stroke="#000000" d="M210.6181,-20.6086C178.2956,-27.0838 135.9809,-37.8362 101.1606,-54.4 89.5908,-59.9037 77.9647,-67.8349 68.2242,-75.326"/>
<polygon fill="#000000" stroke="#000000" points="65.8363,-72.7535 60.1985,-81.7238 70.1998,-78.2272 65.8363,-72.7535"/>
</g>
</g>
</svg>