<?xml version="1.0" encoding="UTF-8" standalone="no"?>
<!DOCTYPE svg PUBLIC "-//W3C//DTD SVG 1.1//EN" "http://www.w3.org/Graphics/SVG/1.1/DTD/svg11.dtd">
<!-- Generated by graphviz version 2.40.1 (20161225.0304)
 -->
<!-- Title: statement_model_comparison Pages: 1 -->
<svg width="377pt" height="635pt" viewBox="0.00 0.00 377.27 635.20" xmlns="http://www.w3.org/2000/svg" xmlns:xlink="http://www.w3.org/1999/xlink">
<g id="graph0" class="graph" transform="scale(1 1) rotate(0) translate(4 631.2)">
<title>statement_model_comparison</title>
<polygon fill="#ffffff" stroke="transparent" points="-4,4 -4,-631.2 373.2714,-631.2 373.2714,4 -4,4"/>
<g id="clust1" class="cluster">
<title>cluster_0</title>
<polygon fill="none" stroke="#ff0000" points="79.2714,-64 79.2714,-583.2 189.2714,-583.2 189.2714,-64 79.2714,-64"/>
<text text-anchor="middle" x="134.2714" y="-566.6" font-family="Times,serif" font-size="14.00" fill="#000000">Old model</text>
</g>
<g id="clust2" class="cluster">
<title>cluster_1</title>
<polygon fill="none" stroke="#00ff00" points="281.2714,-64 281.2714,-147.8 361.2714,-147.8 361.2714,-64 281.2714,-64"/>
<text text-anchor="middle" x="321.2714" y="-131.2" font-family="Times,serif" font-size="14.00" fill="#000000">New model</text>
</g>
<!-- start_1 -->
<g id="node1" class="node">
<title>start_1</title>
<text text-anchor="middle" x="134.2714" y="-605" font-family="Times,serif" font-size="14.00" fill="#000000">• • •</text>
</g>
<!-- BB0_START -->
<g id="node5" class="node">
<title>BB0_START</title>
<ellipse fill="none" stroke="#000000" cx="134.2714" cy="-528.9" rx="21.5" ry="21.5"/>
<text text-anchor="middle" x="134.2714" y="-524.7" font-family="Times,serif" font-size="14.00" fill="#000000">•</text>
<text text-anchor="middle" x="74.2693" y="-511.6" font-family="Times,serif" font-size="14.00" fill="#000000">BB0_START</text>
</g>
<!-- start_1&#45;&gt;BB0_START -->
<g id="edge7" class="edge">
<title>start_1-&gt;BB0_START</title>
<path fill="none" stroke="#000000" d="M134.2714,-590.9787C134.2714,-582.0494 134.2714,-571.0327 134.2714,-560.7705"/>
<polygon fill="#000000" stroke="#000000" points="137.7715,-560.4684 134.2714,-550.4684 130.7715,-560.4685 137.7715,-560.4684"/>
</g>
<!-- start_2 -->
<g id="node2" class="node">
<title>start_2</title>
<text text-anchor="middle" x="321.2714" y="-169.6" font-family="Times,serif" font-size="14.00" fill="#000000">• • •</text>
</g>
<!-- BB0 -->
<g id="node12" class="node">
<title>BB0</title>
<ellipse fill="none" stroke="#000000" cx="321.2714" cy="-93.5" rx="21.5" ry="21.5"/>
<text text-anchor="middle" x="321.2714" y="-89.3" font-family="Times,serif" font-size="14.00" fill="#000000">•</text>
<text text-anchor="middle" x="286.9348" y="-76.2" font-family="Times,serif" font-size="14.00" fill="#000000">BB0</text>
</g>
<!-- start_2&#45;&gt;BB0 -->
<g id="edge8" class="edge">
<title>start_2-&gt;BB0</title>
<path fill="none" stroke="#000000" d="M321.2714,-155.5787C321.2714,-146.6494 321.2714,-135.6327 321.2714,-125.3705"/>
<polygon fill="#000000" stroke="#000000" points="324.7715,-125.0684 321.2714,-115.0684 317.7715,-125.0685 324.7715,-125.0684"/>
</g>
<!-- end_1 -->
<g id="node3" class="node">
<title>end_1</title>
<text text-anchor="middle" x="321.2714" y="-13.8" font-family="Times,serif" font-size="14.00" fill="#000000">• • •</text>
</g>
<!-- end_2 -->
<g id="node4" class="node">
<title>end_2</title>
<text text-anchor="middle" x="134.2714" y="-13.8" font-family="Times,serif" font-size="14.00" fill="#000000">• • •</text>
</g>
<!-- BB0_STMT0 -->
<g id="node9" class="node">
<title>BB0_STMT0</title>
<polygon fill="none" stroke="#000000" points="180.777,-471.3008 87.7658,-471.3008 87.7658,-446.6992 180.777,-446.6992 180.777,-471.3008"/>
<text text-anchor="middle" x="134.2714" y="-454.8" font-family="Times,serif" font-size="14.00" fill="#000000">BB0_STMT0</text>
</g>
<!-- BB0_START&#45;&gt;BB0_STMT0 -->
<g id="edge1" class="edge">
<title>BB0_START-&gt;BB0_STMT0</title>
<path fill="none" stroke="#000000" d="M134.2714,-507.1664C134.2714,-499.0295 134.2714,-489.7719 134.2714,-481.5618"/>
<polygon fill="#000000" stroke="#000000" points="137.7715,-481.5547 134.2714,-471.5547 130.7715,-481.5548 137.7715,-481.5547"/>
</g>
<!-- BB0_STMT0_END -->
<g id="node6" class="node">
<title>BB0_STMT0_END</title>
<ellipse fill="none" stroke="#000000" cx="134.2714" cy="-389.1" rx="21.5" ry="21.5"/>
<text text-anchor="middle" x="56.3857" y="-414.8" font-family="Times,serif" font-size="14.00" fill="#000000">BB0_STMT0_END</text>
</g>
<!-- BB0_STMT1 -->
<g id="node10" class="node">
<title>BB0_STMT1</title>
<polygon fill="none" stroke="#000000" points="180.777,-331.5008 87.7658,-331.5008 87.7658,-306.8992 180.777,-306.8992 180.777,-331.5008"/>
<text text-anchor="middle" x="134.2714" y="-315" font-family="Times,serif" font-size="14.00" fill="#000000">BB0_STMT1</text>
</g>
<!-- BB0_STMT0_END&#45;&gt;BB0_STMT1 -->
<g id="edge3" class="edge">
<title>BB0_STMT0_END-&gt;BB0_STMT1</title>
<path fill="none" stroke="#000000" d="M134.2714,-367.3664C134.2714,-359.2295 134.2714,-349.9719 134.2714,-341.7618"/>
<polygon fill="#000000" stroke="#000000" points="137.7715,-341.7547 134.2714,-331.7547 130.7715,-341.7548 137.7715,-341.7547"/>
</g>
<!-- BB0_STMT1_END -->
<g id="node7" class="node">
<title>BB0_STMT1_END</title>
<ellipse fill="none" stroke="#000000" cx="134.2714" cy="-249.3" rx="21.5" ry="21.5"/>
<text text-anchor="middle" x="56.3857" y="-275" font-family="Times,serif" font-size="14.00" fill="#000000">BB0_STMT1_END</text>
</g>
<!-- BB0_STMT2 -->
<g id="node11" class="node">
<title>BB0_STMT2</title>
<polygon fill="none" stroke="#000000" points="180.777,-186.1008 87.7658,-186.1008 87.7658,-161.4992 180.777,-161.4992 180.777,-186.1008"/>
<text text-anchor="middle" x="134.2714" y="-169.6" font-family="Times,serif" font-size="14.00" fill="#000000">BB0_STMT2</text>
</g>
<!-- BB0_STMT1_END&#45;&gt;BB0_STMT2 -->
<g id="edge5" class="edge">
<title>BB0_STMT1_END-&gt;BB0_STMT2</title>
<path fill="none" stroke="#000000" d="M134.2714,-227.4623C134.2714,-217.7164 134.2714,-206.2386 134.2714,-196.4046"/>
<polygon fill="#000000" stroke="#000000" points="137.7715,-196.1801 134.2714,-186.1801 130.7715,-196.1801 137.7715,-196.1801"/>
</g>
<!-- BB0_END -->
<g id="node8" class="node">
<title>BB0_END</title>
<ellipse fill="none" stroke="#000000" cx="134.2714" cy="-93.5" rx="21.5" ry="21.5"/>
<text text-anchor="middle" x="82.0519" y="-119.2" font-family="Times,serif" font-size="14.00" fill="#000000">BB0_END</text>
</g>
<!-- BB0_END&#45;&gt;end_2 -->
<g id="edge10" class="edge">
<title>BB0_END-&gt;end_2</title>
<path fill="none" stroke="#000000" d="M134.2714,-71.6623C134.2714,-63.8231 134.2714,-54.8634 134.2714,-46.5399"/>
<polygon fill="#000000" stroke="#000000" points="137.7715,-46.4693 134.2714,-36.4694 130.7715,-46.4694 137.7715,-46.4693"/>
</g>
<!-- BB0_STMT0&#45;&gt;BB0_STMT0_END -->
<g id="edge2" class="edge">
<title>BB0_STMT0-&gt;BB0_STMT0_END</title>
<path fill="none" stroke="#000000" d="M134.2714,-446.5033C134.2714,-439.3134 134.2714,-429.925 134.2714,-420.8299"/>
<polygon fill="#000000" stroke="#000000" points="137.7715,-420.8187 134.2714,-410.8187 130.7715,-420.8187 137.7715,-420.8187"/>
</g>
<!-- BB0_STMT1&#45;&gt;BB0_STMT1_END -->
<g id="edge4" class="edge">
<title>BB0_STMT1-&gt;BB0_STMT1_END</title>
<path fill="none" stroke="#000000" d="M134.2714,-306.7033C134.2714,-299.5134 134.2714,-290.125 134.2714,-281.0299"/>
<polygon fill="#000000" stroke="#000000" points="137.7715,-281.0187 134.2714,-271.0187 130.7715,-281.0187 137.7715,-281.0187"/>
</g>
<!-- BB0_STMT2&#45;&gt;BB0_END -->
<g id="edge6" class="edge">
<title>BB0_STMT2-&gt;BB0_END</title>
<path fill="none" stroke="#000000" d="M134.2714,-161.2531C134.2714,-151.604 134.2714,-137.8324 134.2714,-125.2223"/>
<polygon fill="#000000" stroke="#000000" points="137.7715,-125.0189 134.2714,-115.0189 130.7715,-125.019 137.7715,-125.0189"/>
</g>
<!-- BB0&#45;&gt;end_1 -->
<g id="edge9" class="edge">
<title>BB0-&gt;end_1</title>
<path fill="none" stroke="#000000" d="M321.2714,-71.6623C321.2714,-63.8231 321.2714,-54.8634 321.2714,-46.5399"/>
<polygon fill="#000000" stroke="#000000" points="324.7715,-46.4693 321.2714,-36.4694 317.7715,-46.4694 324.7715,-46.4693"/>
</g>
</g>
</svg>