<?xml version="1.0" encoding="UTF-8" standalone="no"?>
<!DOCTYPE svg PUBLIC "-//W3C//DTD SVG 1.1//EN" "http://www.w3.org/Graphics/SVG/1.1/DTD/svg11.dtd">
<!-- Generated by graphviz version 2.40.1 (20161225.0304)
 -->
<!-- Title: stategraph Pages: 1 -->
<svg width="202pt" height="51pt" viewBox="0.00 0.00 202.00 51.00" xmlns="http://www.w3.org/2000/svg" xmlns:xlink="http://www.w3.org/1999/xlink">
<g id="graph0" class="graph" transform="scale(1 1) rotate(0) translate(4 47)">
<title>stategraph</title>
<polygon fill="#ffffff" stroke="transparent" points="-4,4 -4,-47 198,-47 198,4 -4,4"/>
<!-- X -->
<g id="node1" class="node">
<title>X</title>
<ellipse fill="none" stroke="#000000" cx="21.5" cy="-21.5" rx="21.5" ry="21.5"/>
<text text-anchor="middle" x="21.5" y="-17.3" font-family="Times,serif" font-size="14.00" fill="#000000">X</text>
</g>
<!-- Y -->
<g id="node2" class="node">
<title>Y</title>
<ellipse fill="none" stroke="#000000" cx="172.5" cy="-21.5" rx="21.5" ry="21.5"/>
<text text-anchor="middle" x="172.5" y="-17.3" font-family="Times,serif" font-size="14.00" fill="#000000">Y</text>
</g>
<!-- X&#45;&gt;Y -->
<g id="edge1" class="edge">
<title>X-&gt;Y</title>
<path fill="none" stroke="#000000" d="M41.8496,-13.9791C75.2937,-3.5438 108.7378,-2.6007 142.1818,-11.1498"/>
<polygon fill="#000000" stroke="#000000" points="141.5103,-14.5973 152.0859,-13.9589 143.4205,-7.8629 141.5103,-14.5973"/>
</g>
<!-- Y&#45;&gt;X -->
<g id="edge2" class="edge">
<title>Y-&gt;X</title>
<path fill="none" stroke="#000000" d="M152.0859,-29.0411C118.6418,-39.4641 85.1977,-40.395 51.7536,-31.8337"/>
<polygon fill="#000000" stroke="#000000" points="52.4254,-28.3862 41.8496,-29.0209 50.513,-35.1199 52.4254,-28.3862"/>
</g>
</g>
</svg>