<?xml version="1.0" encoding="UTF-8" standalone="no"?>
<!DOCTYPE svg PUBLIC "-//W3C//DTD SVG 1.1//EN" "http://www.w3.org/Graphics/SVG/1.1/DTD/svg11.dtd">
<!-- Generated by graphviz version 2.40.1 (20161225.0304)
 -->
<!-- Title: two_function_call_incorrect Pages: 1 -->
<svg width="556pt" height="767pt" viewBox="0.00 0.00 556.08 766.80" xmlns="http://www.w3.org/2000/svg" xmlns:xlink="http://www.w3.org/1999/xlink">
<g id="graph0" class="graph" transform="scale(1 1) rotate(0) translate(4 762.8)">
<title>two_function_call_incorrect</title>
<polygon fill="#ffffff" stroke="transparent" points="-4,4 -4,-762.8 552.0751,-762.8 552.0751,4 -4,4"/>
<!-- PROGRAM_START -->
<g id="node1" class="node">
<title>PROGRAM_START</title>
<ellipse fill="none" stroke="#000000" cx="269.5814" cy="-720.5" rx="21.5" ry="21.5"/>
<text text-anchor="middle" x="269.5814" y="-716.3" font-family="Times,serif" font-size="14.00" fill="#000000">•</text>
<text text-anchor="middle" x="187.8058" y="-746.2" font-family="Times,serif" font-size="14.00" fill="#000000">PROGRAM_START</text>
</g>
<!-- CALL_main -->
<g id="node10" class="node">
<title>CALL_main</title>
<polygon fill="none" stroke="#000000" points="313.1268,-662.9008 226.036,-662.9008 226.036,-638.2992 313.1268,-638.2992 313.1268,-662.9008"/>
<text text-anchor="middle" x="269.5814" y="-646.4" font-family="Times,serif" font-size="14.00" fill="#000000">CALL_main</text>
</g>
<!-- PROGRAM_START&#45;&gt;CALL_main -->
<g id="edge1" class="edge">
<title>PROGRAM_START-&gt;CALL_main</title>
<path fill="none" stroke="#000000" d="M269.5814,-698.7664C269.5814,-690.6295 269.5814,-681.3719 269.5814,-673.1618"/>
<polygon fill="#000000" stroke="#000000" points="273.0815,-673.1547 269.5814,-663.1547 266.0815,-673.1548 273.0815,-673.1547"/>
</g>
<!-- PROGRAM_PANIC -->
<g id="node2" class="node">
<title>PROGRAM_PANIC</title>
<ellipse fill="none" stroke="#000000" cx="327.5814" cy="-21.5" rx="21.5" ry="21.5"/>
<text text-anchor="middle" x="246.9748" y="-47.2" font-family="Times,serif" font-size="14.00" fill="#000000">PROGRAM_PANIC</text>
</g>
<!-- PROGRAM_END -->
<g id="node3" class="node">
<title>PROGRAM_END</title>
<ellipse fill="none" stroke="#000000" cx="494.5814" cy="-21.5" rx="21.5" ry="21.5"/>
<text text-anchor="middle" x="420.5884" y="-47.2" font-family="Times,serif" font-size="14.00" fill="#000000">PROGRAM_END</text>
</g>
<!-- flag_set_false -->
<g id="node4" class="node">
<title>flag_set_false</title>
<ellipse fill="none" stroke="#000000" cx="269.5814" cy="-580.7" rx="21.5" ry="21.5"/>
<text text-anchor="middle" x="209.2111" y="-606.4" font-family="Times,serif" font-size="14.00" fill="#000000">flag_set_false</text>
</g>
<!-- CALL_simple_function -->
<g id="node11" class="node">
<title>CALL_simple_function</title>
<polygon fill="none" stroke="#000000" points="344.6179,-523.1008 194.5449,-523.1008 194.5449,-498.4992 344.6179,-498.4992 344.6179,-523.1008"/>
<text text-anchor="middle" x="269.5814" y="-506.6" font-family="Times,serif" font-size="14.00" fill="#000000">CALL_simple_function</text>
</g>
<!-- flag_set_false&#45;&gt;CALL_simple_function -->
<g id="edge3" class="edge">
<title>flag_set_false-&gt;CALL_simple_function</title>
<path fill="none" stroke="#000000" d="M269.5814,-558.9664C269.5814,-550.8295 269.5814,-541.5719 269.5814,-533.3618"/>
<polygon fill="#000000" stroke="#000000" points="273.0815,-533.3547 269.5814,-523.3547 266.0815,-533.3548 273.0815,-533.3547"/>
</g>
<!-- check_flag -->
<g id="node5" class="node">
<title>check_flag</title>
<ellipse fill="none" stroke="#000000" cx="269.5814" cy="-161.3" rx="21.5" ry="21.5"/>
<text text-anchor="middle" x="217.3766" y="-187" font-family="Times,serif" font-size="14.00" fill="#000000">check_flag</text>
</g>
<!-- flag_is_false -->
<g id="node14" class="node">
<title>flag_is_false</title>
<polygon fill="none" stroke="#000000" points="214.1087,-103.7008 127.0541,-103.7008 127.0541,-79.0992 214.1087,-79.0992 214.1087,-103.7008"/>
<text text-anchor="middle" x="170.5814" y="-87.2" font-family="Times,serif" font-size="14.00" fill="#000000">flag_is_false</text>
</g>
<!-- check_flag&#45;&gt;flag_is_false -->
<g id="edge11" class="edge">
<title>check_flag-&gt;flag_is_false</title>
<path fill="none" stroke="#000000" d="M251.8822,-148.8033C236.5371,-137.9687 214.1213,-122.1418 196.7114,-109.8494"/>
<polygon fill="#000000" stroke="#000000" points="198.3151,-106.6972 188.1274,-103.7885 194.2776,-112.4155 198.3151,-106.6972"/>
</g>
<!-- flag_is_true -->
<g id="node15" class="node">
<title>flag_is_true</title>
<polygon fill="none" stroke="#000000" points="368.9483,-103.7008 286.2145,-103.7008 286.2145,-79.0992 368.9483,-79.0992 368.9483,-103.7008"/>
<text text-anchor="middle" x="327.5814" y="-87.2" font-family="Times,serif" font-size="14.00" fill="#000000">flag_is_true</text>
</g>
<!-- check_flag&#45;&gt;flag_is_true -->
<g id="edge9" class="edge">
<title>check_flag-&gt;flag_is_true</title>
<path fill="none" stroke="#000000" d="M283.3266,-144.7347C291.4678,-134.9231 301.8514,-122.4091 310.5143,-111.9689"/>
<polygon fill="#000000" stroke="#000000" points="313.325,-114.0626 317.0171,-104.1318 307.9379,-109.5926 313.325,-114.0626"/>
</g>
<!-- flag_set_true -->
<g id="node6" class="node">
<title>flag_set_true</title>
<ellipse fill="none" stroke="#000000" cx="94.5814" cy="-21.5" rx="21.5" ry="21.5"/>
<text text-anchor="middle" x="36.5407" y="-47.2" font-family="Times,serif" font-size="14.00" fill="#000000">flag_set_true</text>
</g>
<!-- flag_set_true&#45;&gt;CALL_simple_function -->
<g id="edge13" class="edge">
<title>flag_set_true-&gt;CALL_simple_function</title>
<path fill="none" stroke="#000000" d="M79.3687,-36.7504C56.9285,-60.9431 17.5814,-110.5929 17.5814,-161.3 17.5814,-371 17.5814,-371 17.5814,-371 17.5814,-449.0071 111.0584,-483.8514 184.1483,-499.1735"/>
<polygon fill="#000000" stroke="#000000" points="183.822,-502.6775 194.3144,-501.2083 185.1959,-495.8136 183.822,-502.6775"/>
</g>
<!-- main_end_place -->
<g id="node7" class="node">
<title>main_end_place</title>
<ellipse fill="none" stroke="#000000" cx="439.5814" cy="-161.3" rx="21.5" ry="21.5"/>
<text text-anchor="middle" x="372.209" y="-187" font-family="Times,serif" font-size="14.00" fill="#000000">main_end_place</text>
</g>
<!-- RETURN_main -->
<g id="node16" class="node">
<title>RETURN_main</title>
<polygon fill="none" stroke="#000000" points="548.0688,-103.7008 441.094,-103.7008 441.094,-79.0992 548.0688,-79.0992 548.0688,-103.7008"/>
<text text-anchor="middle" x="494.5814" y="-87.2" font-family="Times,serif" font-size="14.00" fill="#000000">RETURN_main</text>
</g>
<!-- main_end_place&#45;&gt;RETURN_main -->
<g id="edge15" class="edge">
<title>main_end_place-&gt;RETURN_main</title>
<path fill="none" stroke="#000000" d="M452.8954,-144.3792C460.5453,-134.6568 470.212,-122.3713 478.3102,-112.0792"/>
<polygon fill="#000000" stroke="#000000" points="481.232,-114.0259 484.6651,-104.0027 475.7308,-109.6973 481.232,-114.0259"/>
</g>
<!-- simple_function_START -->
<g id="node8" class="node">
<title>simple_function_START</title>
<ellipse fill="none" stroke="#000000" cx="269.5814" cy="-440.9" rx="21.5" ry="21.5"/>
<text text-anchor="middle" x="176.9222" y="-466.6" font-family="Times,serif" font-size="14.00" fill="#000000">simple_function_START</text>
</g>
<!-- simple_function -->
<g id="node12" class="node">
<title>simple_function</title>
<polygon fill="none" stroke="#000000" points="323.0688,-383.3008 216.094,-383.3008 216.094,-358.6992 323.0688,-358.6992 323.0688,-383.3008"/>
<text text-anchor="middle" x="269.5814" y="-366.8" font-family="Times,serif" font-size="14.00" fill="#000000">simple_function</text>
</g>
<!-- simple_function_START&#45;&gt;simple_function -->
<g id="edge5" class="edge">
<title>simple_function_START-&gt;simple_function</title>
<path fill="none" stroke="#000000" d="M269.5814,-419.1664C269.5814,-411.0295 269.5814,-401.7719 269.5814,-393.5618"/>
<polygon fill="#000000" stroke="#000000" points="273.0815,-393.5547 269.5814,-383.5547 266.0815,-393.5548 273.0815,-393.5547"/>
</g>
<!-- simple_function_END -->
<g id="node9" class="node">
<title>simple_function_END</title>
<ellipse fill="none" stroke="#000000" cx="269.5814" cy="-301.1" rx="21.5" ry="21.5"/>
<text text-anchor="middle" x="184.7048" y="-326.8" font-family="Times,serif" font-size="14.00" fill="#000000">simple_function_END</text>
</g>
<!-- RETURN_simple_function -->
<g id="node13" class="node">
<title>RETURN_simple_function</title>
<polygon fill="none" stroke="#000000" points="354.5604,-243.5008 184.6024,-243.5008 184.6024,-218.8992 354.5604,-218.8992 354.5604,-243.5008"/>
<text text-anchor="middle" x="269.5814" y="-227" font-family="Times,serif" font-size="14.00" fill="#000000">RETURN_simple_function</text>
</g>
<!-- simple_function_END&#45;&gt;RETURN_simple_function -->
<g id="edge7" class="edge">
<title>simple_function_END-&gt;RETURN_simple_function</title>
<path fill="none" stroke="#000000" d="M269.5814,-279.3664C269.5814,-271.2295 269.5814,-261.9719 269.5814,-253.7618"/>
<polygon fill="#000000" stroke="#000000" points="273.0815,-253.7547 269.5814,-243.7547 266.0815,-253.7548 273.0815,-253.7547"/>
</g>
<!-- CALL_main&#45;&gt;flag_set_false -->
<g id="edge2" class="edge">
<title>CALL_main-&gt;flag_set_false</title>
<path fill="none" stroke="#000000" d="M269.5814,-638.1033C269.5814,-630.9134 269.5814,-621.525 269.5814,-612.4299"/>
<polygon fill="#000000" stroke="#000000" points="273.0815,-612.4187 269.5814,-602.4187 266.0815,-612.4187 273.0815,-612.4187"/>
</g>
<!-- CALL_simple_function&#45;&gt;simple_function_START -->
<g id="edge4" class="edge">
<title>CALL_simple_function-&gt;simple_function_START</title>
<path fill="none" stroke="#000000" d="M269.5814,-498.3033C269.5814,-491.1134 269.5814,-481.725 269.5814,-472.6299"/>
<polygon fill="#000000" stroke="#000000" points="273.0815,-472.6187 269.5814,-462.6187 266.0815,-472.6187 273.0815,-472.6187"/>
</g>
<!-- simple_function&#45;&gt;simple_function_END -->
<g id="edge6" class="edge">
<title>simple_function-&gt;simple_function_END</title>
<path fill="none" stroke="#000000" d="M269.5814,-358.5033C269.5814,-351.3134 269.5814,-341.925 269.5814,-332.8299"/>
<polygon fill="#000000" stroke="#000000" points="273.0815,-332.8187 269.5814,-322.8187 266.0815,-332.8187 273.0815,-332.8187"/>
</g>
<!-- RETURN_simple_function&#45;&gt;check_flag -->
<g id="edge8" class="edge">
<title>RETURN_simple_function-&gt;check_flag</title>
<path fill="none" stroke="#000000" d="M269.5814,-218.7033C269.5814,-211.5134 269.5814,-202.125 269.5814,-193.0299"/>
<polygon fill="#000000" stroke="#000000" points="273.0815,-193.0187 269.5814,-183.0187 266.0815,-193.0187 273.0815,-193.0187"/>
</g>
<!-- RETURN_simple_function&#45;&gt;main_end_place -->
<g id="edge14" class="edge">
<title>RETURN_simple_function-&gt;main_end_place</title>
<path fill="none" stroke="#000000" d="M299.5827,-218.8642C330.7187,-206.0618 379.1091,-186.1648 410.0646,-173.4366"/>
<polygon fill="#000000" stroke="#000000" points="411.5408,-176.614 419.4585,-169.5741 408.8788,-170.1399 411.5408,-176.614"/>
</g>
<!-- flag_is_false&#45;&gt;flag_set_true -->
<g id="edge12" class="edge">
<title>flag_is_false-&gt;flag_set_true</title>
<path fill="none" stroke="#000000" d="M156.9941,-78.9033C146.1747,-68.9523 130.7765,-54.79 117.9822,-43.0226"/>
<polygon fill="#000000" stroke="#000000" points="120.1463,-40.2577 110.4166,-36.0643 115.4076,-45.4099 120.1463,-40.2577"/>
</g>
<!-- flag_is_true&#45;&gt;PROGRAM_PANIC -->
<g id="edge10" class="edge">
<title>flag_is_true-&gt;PROGRAM_PANIC</title>
<path fill="none" stroke="#000000" d="M327.5814,-78.9033C327.5814,-71.7134 327.5814,-62.325 327.5814,-53.2299"/>
<polygon fill="#000000" stroke="#000000" points="331.0815,-53.2187 327.5814,-43.2187 324.0815,-53.2187 331.0815,-53.2187"/>
</g>
<!-- RETURN_main&#45;&gt;PROGRAM_END -->
<g id="edge16" class="edge">
<title>RETURN_main-&gt;PROGRAM_END</title>
<path fill="none" stroke="#000000" d="M494.5814,-78.9033C494.5814,-71.7134 494.5814,-62.325 494.5814,-53.2299"/>
<polygon fill="#000000" stroke="#000000" points="498.0815,-53.2187 494.5814,-43.2187 491.0815,-53.2187 498.0815,-53.2187"/>
</g>
</g>
</svg>