<?xml version="1.0" encoding="UTF-8" standalone="no"?>
<!DOCTYPE svg PUBLIC "-//W3C//DTD SVG 1.1//EN" "http://www.w3.org/Graphics/SVG/1.1/DTD/svg11.dtd">
<!-- Generated by graphviz version 2.40.1 (20161225.0304)
 -->
<!-- Title: two_function_call_correct Pages: 1 -->
<svg width="680pt" height="767pt" viewBox="0.00 0.00 679.81 766.80" xmlns="http://www.w3.org/2000/svg" xmlns:xlink="http://www.w3.org/1999/xlink">
<g id="graph0" class="graph" transform="scale(1 1) rotate(0) translate(4 762.8)">
<title>two_function_call_correct</title>
<polygon fill="#ffffff" stroke="transparent" points="-4,4 -4,-762.8 675.8079,-762.8 675.8079,4 -4,4"/>
<!-- PROGRAM_START -->
<g id="node1" class="node">
<title>PROGRAM_START</title>
<ellipse fill="none" stroke="#000000" cx="177.8184" cy="-720.5" rx="21.5" ry="21.5"/>
<text text-anchor="middle" x="177.8184" y="-716.3" font-family="Times,serif" font-size="14.00" fill="#000000">•</text>
<text text-anchor="middle" x="96.0428" y="-746.2" font-family="Times,serif" font-size="14.00" fill="#000000">PROGRAM_START</text>
</g>
<!-- CALL_main -->
<g id="node14" class="node">
<title>CALL_main</title>
<polygon fill="none" stroke="#000000" points="221.3638,-662.9008 134.273,-662.9008 134.273,-638.2992 221.3638,-638.2992 221.3638,-662.9008"/>
<text text-anchor="middle" x="177.8184" y="-646.4" font-family="Times,serif" font-size="14.00" fill="#000000">CALL_main</text>
</g>
<!-- PROGRAM_START&#45;&gt;CALL_main -->
<g id="edge1" class="edge">
<title>PROGRAM_START-&gt;CALL_main</title>
<path fill="none" stroke="#000000" d="M177.8184,-698.7664C177.8184,-690.6295 177.8184,-681.3719 177.8184,-673.1618"/>
<polygon fill="#000000" stroke="#000000" points="181.3185,-673.1547 177.8184,-663.1547 174.3185,-673.1548 181.3185,-673.1547"/>
</g>
<!-- PROGRAM_PANIC -->
<g id="node2" class="node">
<title>PROGRAM_PANIC</title>
<ellipse fill="none" stroke="#000000" cx="177.8184" cy="-21.5" rx="21.5" ry="21.5"/>
<text text-anchor="middle" x="97.2118" y="-47.2" font-family="Times,serif" font-size="14.00" fill="#000000">PROGRAM_PANIC</text>
</g>
<!-- PROGRAM_END -->
<g id="node3" class="node">
<title>PROGRAM_END</title>
<ellipse fill="none" stroke="#000000" cx="579.8184" cy="-21.5" rx="21.5" ry="21.5"/>
<text text-anchor="middle" x="505.8254" y="-47.2" font-family="Times,serif" font-size="14.00" fill="#000000">PROGRAM_END</text>
</g>
<!-- flag_set_false -->
<g id="node4" class="node">
<title>flag_set_false</title>
<ellipse fill="none" stroke="#000000" cx="177.8184" cy="-580.7" rx="21.5" ry="21.5"/>
<text text-anchor="middle" x="117.4481" y="-606.4" font-family="Times,serif" font-size="14.00" fill="#000000">flag_set_false</text>
</g>
<!-- CALL_simple_function_1 -->
<g id="node15" class="node">
<title>CALL_simple_function_1</title>
<polygon fill="none" stroke="#000000" points="259.8549,-523.1008 95.7819,-523.1008 95.7819,-498.4992 259.8549,-498.4992 259.8549,-523.1008"/>
<text text-anchor="middle" x="177.8184" y="-506.6" font-family="Times,serif" font-size="14.00" fill="#000000">CALL_simple_function_1</text>
</g>
<!-- flag_set_false&#45;&gt;CALL_simple_function_1 -->
<g id="edge3" class="edge">
<title>flag_set_false-&gt;CALL_simple_function_1</title>
<path fill="none" stroke="#000000" d="M177.8184,-558.9664C177.8184,-550.8295 177.8184,-541.5719 177.8184,-533.3618"/>
<polygon fill="#000000" stroke="#000000" points="181.3185,-533.3547 177.8184,-523.3547 174.3185,-533.3548 181.3185,-533.3547"/>
</g>
<!-- check_flag -->
<g id="node5" class="node">
<title>check_flag</title>
<ellipse fill="none" stroke="#000000" cx="177.8184" cy="-161.3" rx="21.5" ry="21.5"/>
<text text-anchor="middle" x="125.6136" y="-187" font-family="Times,serif" font-size="14.00" fill="#000000">check_flag</text>
</g>
<!-- flag_is_false -->
<g id="node19" class="node">
<title>flag_is_false</title>
<polygon fill="none" stroke="#000000" points="400.3457,-103.7008 313.2911,-103.7008 313.2911,-79.0992 400.3457,-79.0992 400.3457,-103.7008"/>
<text text-anchor="middle" x="356.8184" y="-87.2" font-family="Times,serif" font-size="14.00" fill="#000000">flag_is_false</text>
</g>
<!-- check_flag&#45;&gt;flag_is_false -->
<g id="edge11" class="edge">
<title>check_flag-&gt;flag_is_false</title>
<path fill="none" stroke="#000000" d="M198.004,-153.4175C226.4568,-142.3066 278.9911,-121.7918 315.8228,-107.4089"/>
<polygon fill="#000000" stroke="#000000" points="317.2504,-110.6089 325.2922,-103.7111 314.7041,-104.0884 317.2504,-110.6089"/>
</g>
<!-- flag_is_true -->
<g id="node20" class="node">
<title>flag_is_true</title>
<polygon fill="none" stroke="#000000" points="219.1853,-103.7008 136.4515,-103.7008 136.4515,-79.0992 219.1853,-79.0992 219.1853,-103.7008"/>
<text text-anchor="middle" x="177.8184" y="-87.2" font-family="Times,serif" font-size="14.00" fill="#000000">flag_is_true</text>
</g>
<!-- check_flag&#45;&gt;flag_is_true -->
<g id="edge9" class="edge">
<title>check_flag-&gt;flag_is_true</title>
<path fill="none" stroke="#000000" d="M177.8184,-139.5664C177.8184,-131.4295 177.8184,-122.1719 177.8184,-113.9618"/>
<polygon fill="#000000" stroke="#000000" points="181.3185,-113.9547 177.8184,-103.9547 174.3185,-113.9548 181.3185,-113.9547"/>
</g>
<!-- flag_set_true -->
<g id="node6" class="node">
<title>flag_set_true</title>
<ellipse fill="none" stroke="#000000" cx="574.8184" cy="-580.7" rx="21.5" ry="21.5"/>
<text text-anchor="middle" x="516.7777" y="-606.4" font-family="Times,serif" font-size="14.00" fill="#000000">flag_set_true</text>
</g>
<!-- CALL_simple_function_2 -->
<g id="node17" class="node">
<title>CALL_simple_function_2</title>
<polygon fill="none" stroke="#000000" points="656.8549,-523.1008 492.7819,-523.1008 492.7819,-498.4992 656.8549,-498.4992 656.8549,-523.1008"/>
<text text-anchor="middle" x="574.8184" y="-506.6" font-family="Times,serif" font-size="14.00" fill="#000000">CALL_simple_function_2</text>
</g>
<!-- flag_set_true&#45;&gt;CALL_simple_function_2 -->
<g id="edge13" class="edge">
<title>flag_set_true-&gt;CALL_simple_function_2</title>
<path fill="none" stroke="#000000" d="M574.8184,-558.9664C574.8184,-550.8295 574.8184,-541.5719 574.8184,-533.3618"/>
<polygon fill="#000000" stroke="#000000" points="578.3185,-533.3547 574.8184,-523.3547 571.3185,-533.3548 578.3185,-533.3547"/>
</g>
<!-- main_end_place -->
<g id="node7" class="node">
<title>main_end_place</title>
<ellipse fill="none" stroke="#000000" cx="579.8184" cy="-161.3" rx="21.5" ry="21.5"/>
<text text-anchor="middle" x="512.446" y="-187" font-family="Times,serif" font-size="14.00" fill="#000000">main_end_place</text>
</g>
<!-- RETURN_main -->
<g id="node21" class="node">
<title>RETURN_main</title>
<polygon fill="none" stroke="#000000" points="633.3058,-103.7008 526.331,-103.7008 526.331,-79.0992 633.3058,-79.0992 633.3058,-103.7008"/>
<text text-anchor="middle" x="579.8184" y="-87.2" font-family="Times,serif" font-size="14.00" fill="#000000">RETURN_main</text>
</g>
<!-- main_end_place&#45;&gt;RETURN_main -->
<g id="edge19" class="edge">
<title>main_end_place-&gt;RETURN_main</title>
<path fill="none" stroke="#000000" d="M579.8184,-139.5664C579.8184,-131.4295 579.8184,-122.1719 579.8184,-113.9618"/>
<polygon fill="#000000" stroke="#000000" points="583.3185,-113.9547 579.8184,-103.9547 576.3185,-113.9548 583.3185,-113.9547"/>
</g>
<!-- simple_function_1_START -->
<g id="node8" class="node">
<title>simple_function_1_START</title>
<ellipse fill="none" stroke="#000000" cx="177.8184" cy="-440.9" rx="21.5" ry="21.5"/>
<text text-anchor="middle" x="78.1592" y="-466.6" font-family="Times,serif" font-size="14.00" fill="#000000">simple_function_1_START</text>
</g>
<!-- simple_function_1 -->
<g id="node9" class="node">
<title>simple_function_1</title>
<polygon fill="none" stroke="#000000" points="238.3058,-383.3008 117.331,-383.3008 117.331,-358.6992 238.3058,-358.6992 238.3058,-383.3008"/>
<text text-anchor="middle" x="177.8184" y="-366.8" font-family="Times,serif" font-size="14.00" fill="#000000">simple_function_1</text>
</g>
<!-- simple_function_1_START&#45;&gt;simple_function_1 -->
<g id="edge5" class="edge">
<title>simple_function_1_START-&gt;simple_function_1</title>
<path fill="none" stroke="#000000" d="M177.8184,-419.1664C177.8184,-411.0295 177.8184,-401.7719 177.8184,-393.5618"/>
<polygon fill="#000000" stroke="#000000" points="181.3185,-393.5547 177.8184,-383.5547 174.3185,-393.5548 181.3185,-393.5547"/>
</g>
<!-- simple_function_1_END -->
<g id="node10" class="node">
<title>simple_function_1_END</title>
<ellipse fill="none" stroke="#000000" cx="177.8184" cy="-301.1" rx="21.5" ry="21.5"/>
<text text-anchor="middle" x="85.9418" y="-326.8" font-family="Times,serif" font-size="14.00" fill="#000000">simple_function_1_END</text>
</g>
<!-- simple_function_1&#45;&gt;simple_function_1_END -->
<g id="edge6" class="edge">
<title>simple_function_1-&gt;simple_function_1_END</title>
<path fill="none" stroke="#000000" d="M177.8184,-358.5033C177.8184,-351.3134 177.8184,-341.925 177.8184,-332.8299"/>
<polygon fill="#000000" stroke="#000000" points="181.3185,-332.8187 177.8184,-322.8187 174.3185,-332.8187 181.3185,-332.8187"/>
</g>
<!-- RETURN_simple_function_1 -->
<g id="node16" class="node">
<title>RETURN_simple_function_1</title>
<polygon fill="none" stroke="#000000" points="269.7974,-243.5008 85.8394,-243.5008 85.8394,-218.8992 269.7974,-218.8992 269.7974,-243.5008"/>
<text text-anchor="middle" x="177.8184" y="-227" font-family="Times,serif" font-size="14.00" fill="#000000">RETURN_simple_function_1</text>
</g>
<!-- simple_function_1_END&#45;&gt;RETURN_simple_function_1 -->
<g id="edge7" class="edge">
<title>simple_function_1_END-&gt;RETURN_simple_function_1</title>
<path fill="none" stroke="#000000" d="M177.8184,-279.3664C177.8184,-271.2295 177.8184,-261.9719 177.8184,-253.7618"/>
<polygon fill="#000000" stroke="#000000" points="181.3185,-253.7547 177.8184,-243.7547 174.3185,-253.7548 181.3185,-253.7547"/>
</g>
<!-- simple_function_2_START -->
<g id="node11" class="node">
<title>simple_function_2_START</title>
<ellipse fill="none" stroke="#000000" cx="575.8184" cy="-440.9" rx="21.5" ry="21.5"/>
<text text-anchor="middle" x="476.1592" y="-466.6" font-family="Times,serif" font-size="14.00" fill="#000000">simple_function_2_START</text>
</g>
<!-- simple_function_2 -->
<g id="node12" class="node">
<title>simple_function_2</title>
<polygon fill="none" stroke="#000000" points="638.3058,-383.3008 517.331,-383.3008 517.331,-358.6992 638.3058,-358.6992 638.3058,-383.3008"/>
<text text-anchor="middle" x="577.8184" y="-366.8" font-family="Times,serif" font-size="14.00" fill="#000000">simple_function_2</text>
</g>
<!-- simple_function_2_START&#45;&gt;simple_function_2 -->
<g id="edge15" class="edge">
<title>simple_function_2_START-&gt;simple_function_2</title>
<path fill="none" stroke="#000000" d="M576.4402,-419.1664C576.6731,-411.0295 576.9379,-401.7719 577.1729,-393.5618"/>
<polygon fill="#000000" stroke="#000000" points="580.6716,-393.6508 577.4592,-383.5547 573.6745,-393.4505 580.6716,-393.6508"/>
</g>
<!-- simple_function_2_END -->
<g id="node13" class="node">
<title>simple_function_2_END</title>
<ellipse fill="none" stroke="#000000" cx="578.8184" cy="-301.1" rx="21.5" ry="21.5"/>
<text text-anchor="middle" x="486.9418" y="-326.8" font-family="Times,serif" font-size="14.00" fill="#000000">simple_function_2_END</text>
</g>
<!-- simple_function_2&#45;&gt;simple_function_2_END -->
<g id="edge16" class="edge">
<title>simple_function_2-&gt;simple_function_2_END</title>
<path fill="none" stroke="#000000" d="M577.9972,-358.5033C578.1,-351.3134 578.2344,-341.925 578.3645,-332.8299"/>
<polygon fill="#000000" stroke="#000000" points="581.8642,-332.8678 578.5077,-322.8187 574.8649,-332.7676 581.8642,-332.8678"/>
</g>
<!-- RETURN_simple_function_2 -->
<g id="node18" class="node">
<title>RETURN_simple_function_2</title>
<polygon fill="none" stroke="#000000" points="671.7974,-243.5008 487.8394,-243.5008 487.8394,-218.8992 671.7974,-218.8992 671.7974,-243.5008"/>
<text text-anchor="middle" x="579.8184" y="-227" font-family="Times,serif" font-size="14.00" fill="#000000">RETURN_simple_function_2</text>
</g>
<!-- simple_function_2_END&#45;&gt;RETURN_simple_function_2 -->
<g id="edge17" class="edge">
<title>simple_function_2_END-&gt;RETURN_simple_function_2</title>
<path fill="none" stroke="#000000" d="M579.1293,-279.3664C579.2457,-271.2295 579.3782,-261.9719 579.4956,-253.7618"/>
<polygon fill="#000000" stroke="#000000" points="582.9953,-253.8038 579.6388,-243.7547 575.996,-253.7036 582.9953,-253.8038"/>
</g>
<!-- CALL_main&#45;&gt;flag_set_false -->
<g id="edge2" class="edge">
<title>CALL_main-&gt;flag_set_false</title>
<path fill="none" stroke="#000000" d="M177.8184,-638.1033C177.8184,-630.9134 177.8184,-621.525 177.8184,-612.4299"/>
<polygon fill="#000000" stroke="#000000" points="181.3185,-612.4187 177.8184,-602.4187 174.3185,-612.4187 181.3185,-612.4187"/>
</g>
<!-- CALL_simple_function_1&#45;&gt;simple_function_1_START -->
<g id="edge4" class="edge">
<title>CALL_simple_function_1-&gt;simple_function_1_START</title>
<path fill="none" stroke="#000000" d="M177.8184,-498.3033C177.8184,-491.1134 177.8184,-481.725 177.8184,-472.6299"/>
<polygon fill="#000000" stroke="#000000" points="181.3185,-472.6187 177.8184,-462.6187 174.3185,-472.6187 181.3185,-472.6187"/>
</g>
<!-- RETURN_simple_function_1&#45;&gt;check_flag -->
<g id="edge8" class="edge">
<title>RETURN_simple_function_1-&gt;check_flag</title>
<path fill="none" stroke="#000000" d="M177.8184,-218.7033C177.8184,-211.5134 177.8184,-202.125 177.8184,-193.0299"/>
<polygon fill="#000000" stroke="#000000" points="181.3185,-193.0187 177.8184,-183.0187 174.3185,-193.0187 181.3185,-193.0187"/>
</g>
<!-- CALL_simple_function_2&#45;&gt;simple_function_2_START -->
<g id="edge14" class="edge">
<title>CALL_simple_function_2-&gt;simple_function_2_START</title>
<path fill="none" stroke="#000000" d="M574.9972,-498.3033C575.1,-491.1134 575.2344,-481.725 575.3645,-472.6299"/>
<polygon fill="#000000" stroke="#000000" points="578.8642,-472.6678 575.5077,-462.6187 571.8649,-472.5676 578.8642,-472.6678"/>
</g>
<!-- RETURN_simple_function_2&#45;&gt;main_end_place -->
<g id="edge18" class="edge">
<title>RETURN_simple_function_2-&gt;main_end_place</title>
<path fill="none" stroke="#000000" d="M579.8184,-218.7033C579.8184,-211.5134 579.8184,-202.125 579.8184,-193.0299"/>
<polygon fill="#000000" stroke="#000000" points="583.3185,-193.0187 579.8184,-183.0187 576.3185,-193.0187 583.3185,-193.0187"/>
</g>
<!-- flag_is_false&#45;&gt;flag_set_true -->
<g id="edge12" class="edge">
<title>flag_is_false-&gt;flag_set_true</title>
<path fill="none" stroke="#000000" d="M360.1597,-104.0172C366.3142,-128.4021 378.8184,-183.7808 378.8184,-231.2 378.8184,-440.9 378.8184,-440.9 378.8184,-440.9 378.8184,-520.8064 488.1272,-559.3321 543.483,-573.719"/>
<polygon fill="#000000" stroke="#000000" points="542.9206,-577.1857 553.4699,-576.2045 544.6112,-570.3929 542.9206,-577.1857"/>
</g>
<!-- flag_is_true&#45;&gt;PROGRAM_PANIC -->
<g id="edge10" class="edge">
<title>flag_is_true-&gt;PROGRAM_PANIC</title>
<path fill="none" stroke="#000000" d="M177.8184,-78.9033C177.8184,-71.7134 177.8184,-62.325 177.8184,-53.2299"/>
<polygon fill="#000000" stroke="#000000" points="181.3185,-53.2187 177.8184,-43.2187 174.3185,-53.2187 181.3185,-53.2187"/>
</g>
<!-- RETURN_main&#45;&gt;PROGRAM_END -->
<g id="edge20" class="edge">
<title>RETURN_main-&gt;PROGRAM_END</title>
<path fill="none" stroke="#000000" d="M579.8184,-78.9033C579.8184,-71.7134 579.8184,-62.325 579.8184,-53.2299"/>
<polygon fill="#000000" stroke="#000000" points="583.3185,-53.2187 579.8184,-43.2187 576.3185,-53.2187 583.3185,-53.2187"/>
</g>
</g>
</svg>